<svg xmlns="http://www.w3.org/2000/svg" width="10" height="6" viewBox="0 0 10 6">
  <defs>
    <style>
      .cls-1 {
        fill: #999;
        fill-rule: evenodd;
      }
    </style>
  </defs>
  <path id="arrow_down" data-name="arrow down" class="cls-1" d="M438.5,4548.94l-3.683,3.59a1.042,1.042,0,0,1-.314.31l-0.02.02c-0.019.01-.04,0.01-0.059,0.02a0.8,0.8,0,0,1-.255.09,1.5,1.5,0,0,1-.346,0,0.8,0.8,0,0,1-.255-0.09c-0.019-.01-0.04-0.01-0.059-0.02l-0.02-.02a0.938,0.938,0,0,1-.314-0.31l-3.683-3.59a1.068,1.068,0,0,1-.363-1.42,0.962,0.962,0,0,1,1.354-.38l3.513,3.43,3.513-3.43a0.962,0.962,0,0,1,1.354.38A1.068,1.068,0,0,1,438.5,4548.94Z" transform="translate(-429 -4547)"/>
</svg>
