<svg xmlns="http://www.w3.org/2000/svg" width="6" height="10" viewBox="0 0 6 10">
  <defs>
    <style>
      .cls-1 {
        fill: #999;
        fill-rule: evenodd;
      }
    </style>
  </defs>
  <path id="arrow_down" data-name="arrow down" class="cls-1" d="M1092.95,1584.5l3.61,3.68a1.018,1.018,0,0,1,.31.31l0.02,0.02c0.01,0.02.01,0.04,0.02,0.06a0.8,0.8,0,0,1,.09.26c0.01,0.06.01,0.11,0.02,0.17-0.01.06-.01,0.11-0.02,0.17a0.9,0.9,0,0,1-.09.26c-0.01.02-.01,0.04-0.02,0.06l-0.02.02a1.018,1.018,0,0,1-.31.31l-3.61,3.68a1.08,1.08,0,0,1-1.43.37,0.969,0.969,0,0,1-.38-1.36l3.45-3.51-3.45-3.51a0.969,0.969,0,0,1,.38-1.36A1.08,1.08,0,0,1,1092.95,1584.5Z" transform="translate(-1091 -1584)"/>
</svg>
