<svg xmlns="http://www.w3.org/2000/svg" width="36" height="44" viewBox="0 0 36 44">
  <defs>
    <style>
      .cls-1 {
        fill: #00ae6f;
        fill-rule: evenodd;
      }
    </style>
  </defs>
  <path class="cls-1" d="M321,1205c0-7-8-7-8-17a10,10,0,0,0-6.08-9.2,4.1,4.1,0,0,0,.08-0.8,4,4,0,0,0-8,0,4.1,4.1,0,0,0,.08.8A10,10,0,0,0,293,1188c0,10-8,10-8,17,0,3.05,5.027,5.64,12.028,6.6-0.01.13-.028,0.26-0.028,0.4a6,6,0,0,0,12,0c0-.14-0.018-0.27-0.028-0.4C315.973,1210.64,321,1208.05,321,1205Zm-18-29a2,2,0,1,1-2,2A2,2,0,0,1,303,1176Zm-13.087,23.57c2.267-2.37,5.087-5.32,5.087-11.57a8,8,0,0,1,4.981-7.4,3.955,3.955,0,0,0,6.038,0A8,8,0,0,1,311,1188c0,6.25,2.82,9.2,5.087,11.57,0.433,0.45.833,0.87,1.19,1.28-1.915,1.83-7.568,3.15-14.277,3.15s-12.362-1.32-14.283-3.14C289.076,1200.44,289.478,1200.02,289.913,1199.57ZM303,1216a4,4,0,0,1-4-4c0-.06.013-0.12,0.016-0.18q1.924,0.18,3.984.18t3.984-.18c0,0.06.016,0.12,0.016,0.18A4,4,0,0,1,303,1216Zm0-6c-10.352,0-16-3.3-16-5a5.3,5.3,0,0,1,.687-2.69c2.739,2.18,8.556,3.69,15.313,3.69s12.574-1.51,15.311-3.7A5.336,5.336,0,0,1,319,1205C319,1206.7,313.352,1210,303,1210Z" transform="translate(-285 -1174)"/>
</svg>
