<svg xmlns="http://www.w3.org/2000/svg" width="14" height="14" viewBox="0 0 14 14">
  <defs>
    <style>
      .cls-1 {
        fill: #1ea0e4;
        fill-rule: evenodd;
      }
    </style>
  </defs>
  <path id="calendar" class="cls-1" d="M268,349H256a1,1,0,0,1-1-1V338a1,1,0,0,1,1-1h2v-1a1,1,0,0,1,2,0v1h4v-1a1,1,0,0,1,2,0v1h2a1,1,0,0,1,1,1v10A1,1,0,0,1,268,349Zm-1-10H257v8h10v-8Zm-7,3h-2v-2h2v2Zm0,3h-2v-2h2v2Zm3-3h-2v-2h2v2Zm0,3h-2v-2h2v2Zm3-3h-2v-2h2v2Z" transform="translate(-255 -335)"/>
</svg>
