<svg xmlns="http://www.w3.org/2000/svg" width="92" height="32" viewBox="0 0 92 32">
  <defs>
    <style>
      .cls-1 {
        fill: #fff;
        fill-rule: evenodd;
      }
    </style>
  </defs>
  <path id="charterly" class="cls-1" d="M576.935,135.469a0.549,0.549,0,0,0-.734.221c-0.5.926-2.485,2.716-5.049,4.434-0.209-.769-0.4-1.519-0.545-2.209a7.508,7.508,0,0,0,1.247-2.467,2.173,2.173,0,0,0-.4-2.237,1.033,1.033,0,0,0-1.065-.169,2.53,2.53,0,0,0-1.155,2.306,9.335,9.335,0,0,0,.214,2.32,5.827,5.827,0,0,1-4.159,2.4,1.272,1.272,0,0,1-1.059-.4,1.618,1.618,0,0,1-.3-0.757,9.209,9.209,0,0,0,1.874-3.982,1.277,1.277,0,0,0-.8-1.619c-0.276-.056-1.21-0.09-1.7,1.855a12.319,12.319,0,0,0-.5,3.377,3.536,3.536,0,0,1-2.536,1.117,1.9,1.9,0,0,1-1.44-.6,4.727,4.727,0,0,1-1.029-2.263,47.218,47.218,0,0,0,4.175-8.56c0.909-2.344,1.06-3.746.491-4.547a1.87,1.87,0,0,0-1.633-.7c-2.019,0-4.154,5.623-4.347,8.383a22,22,0,0,0,.17,5.211c-1.377,2.007-2.67,3.078-3.785,3.078a1.634,1.634,0,0,1-1.309-.49c-0.663-.758-0.589-2.32-0.4-3.714a3.816,3.816,0,0,0,1.438-1.716,1.881,1.881,0,0,0-.111-2.068,1,1,0,0,0-1.042-.273,1.7,1.7,0,0,0-1.015,1.645c-0.031.281-.089,0.632-0.156,1.038-0.038.229-.078,0.47-0.116,0.717a3.644,3.644,0,0,1-1.443.333,1.732,1.732,0,0,1-.2-0.011q0.387-.689.765-1.509a1.981,1.981,0,0,0-.01-2.082,0.991,0.991,0,0,0-.989-0.332,2.172,2.172,0,0,0-1.364,1.775,3.008,3.008,0,0,0,.15,2.455c-2.356,3.625-4.718,3.615-4.739,3.615a0.627,0.627,0,0,0-.106,0,2.533,2.533,0,0,1-1.877-.574c-0.027-.025-0.054-0.051-0.08-0.079a9.647,9.647,0,0,0,3.883-4.467c0.645-1.656.13-2.518-.234-2.885a2.217,2.217,0,0,0-2.327-.392,5.01,5.01,0,0,0-3.067,4.4,6.265,6.265,0,0,0,.263,2.964,9.992,9.992,0,0,1-4.232,1.23,1.7,1.7,0,0,1-1.291-.532,3.672,3.672,0,0,1-.783-1.554,37.432,37.432,0,0,0,2.8-6.195c0.077-.21.147-0.413,0.214-0.615q0.344,0.018.691,0.018a14.742,14.742,0,0,0,2.677-.25,0.531,0.531,0,0,0,.433-0.619,0.54,0.54,0,0,0-.635-0.42,13.565,13.565,0,0,1-2.851.221c0.566-2.138.479-3.672-.273-4.392a1.448,1.448,0,0,0-1.555-.279c-0.952.348-2.028,1.617-2.558,3.687a8.549,8.549,0,0,1-2.059-1.252,0.552,0.552,0,0,0-.767.021,0.52,0.52,0,0,0,.021.748,9.605,9.605,0,0,0,2.594,1.552c-0.035.24-.065,0.487-0.085,0.745a24.463,24.463,0,0,0,.19,6.843c-1.176,1.862-2.316,2.821-3.383,2.821a1.153,1.153,0,0,1-.878-0.332c-0.545-.554-0.778-1.827-0.692-3.782,0-.129.014-0.253,0.025-0.373a4.187,4.187,0,0,0,1.357-1.952,1.187,1.187,0,0,0-.114-1.322,0.737,0.737,0,0,0-.785-0.121c-0.6.239-1.241,1.253-1.48,2.81a2.367,2.367,0,0,1-1.17.339c-0.1,0-.2,0-0.3,0a13.673,13.673,0,0,0,.613-1.656c0.352-1.2.3-2.058-.159-2.49a0.958,0.958,0,0,0-.967-0.213,2.905,2.905,0,0,0-1.55,2.319,2.86,2.86,0,0,0,.308,2.464,1.594,1.594,0,0,0,.229.222c-1.089,1.991-2.717,3.831-4.442,3.831a2.08,2.08,0,0,1-1.5-1.367,7.949,7.949,0,0,0,.388-2.5,3.861,3.861,0,0,0-.483-2.132,0.535,0.535,0,0,0,.256-0.184,0.519,0.519,0,0,0-.11-0.74,3.11,3.11,0,0,0-3.807.131,8.179,8.179,0,0,0-2.483,3.021c-1.1,1.962-2.755,3.132-3.749,3.132-0.783,0-.949-0.487-1.079-2.052-0.106-1.276-.252-3.025-2.162-3.025-1.475,0-2.63,1.591-3.461,3.376,0.03-.415.057-0.835,0.079-1.251,0.15-.223.3-0.454,0.46-0.7,2.347-3.623,5.893-11.239,4.6-13.513A1.46,1.46,0,0,0,503.55,121a2.369,2.369,0,0,0-1.687.772c-2.294,2.281-3.135,9.347-3.083,11.774,0.013,0.63,0,1.337-.036,2.066-2.453,3.554-3.951,4.186-6.185,4.186a3.352,3.352,0,0,1-3.472-3.518c0-1.731,1.338-4.96,3.9-4.96a1.172,1.172,0,0,1,.873.332c-0.421,1.378-.938,3.514-0.371,4.264a0.856,0.856,0,0,0,.7.344c0.951,0,1.384-1.371,1.384-2.645a4.319,4.319,0,0,0-.529-2.181,2.286,2.286,0,0,0-2.053-1.172c-3.317,0-4.982,3.858-4.982,6.018a4.423,4.423,0,0,0,4.559,4.576c2.469,0,4.112-.811,6.056-3.252-0.186,2.334-.461,4.406-0.465,4.439a0.532,0.532,0,0,0,.447.59,0.582,0.582,0,0,0,.092.008,0.541,0.541,0,0,0,.531-0.42c0.62-2.836,2.247-7.333,3.978-7.333,0.783,0,.949.487,1.079,2.052,0.106,1.276.252,3.025,2.162,3.025a4.657,4.657,0,0,0,2.9-1.4,3.881,3.881,0,0,0,.13,1.548,2.247,2.247,0,0,0,2.322,1.563,4.533,4.533,0,0,0,4.085-2.3,2.5,2.5,0,0,0,2.045,1.213c2.312,0,4.248-2.223,5.467-4.508a6.667,6.667,0,0,0,.8.033,3.28,3.28,0,0,0,1.07-.191c-0.062,2.149.259,3.508,1,4.266a2.24,2.24,0,0,0,1.662.658c1.309,0,2.562-.829,3.8-2.552a3.9,3.9,0,0,0,.731,1.133,2.773,2.773,0,0,0,2.087.87,10.884,10.884,0,0,0,4.769-1.358,3.217,3.217,0,0,0,.271.289,3.607,3.607,0,0,0,2.74.864c0.432,0,3.072-.171,5.6-4.027a2.45,2.45,0,0,0,.776.116,4.777,4.777,0,0,0,1.288-.2c-0.143,1.445-.083,2.936.733,3.87a2.7,2.7,0,0,0,2.136.862c1.421,0,2.817-1.1,4.121-2.792a4.894,4.894,0,0,0,1.042,1.851,2.987,2.987,0,0,0,2.235.941,4.456,4.456,0,0,0,2.781-.96,2.259,2.259,0,0,0,.329.563,2.323,2.323,0,0,0,1.914.808,6.487,6.487,0,0,0,4.438-2.181c0.139,0.576.3,1.178,0.469,1.792-0.5.312-1.011,0.618-1.536,0.91-3.446,1.927-5.033,3.7-5.478,6.129a4.392,4.392,0,0,0,.966,3.628A4.926,4.926,0,0,0,568.086,153a5.26,5.26,0,0,0,3.975-1.374,4.724,4.724,0,0,0,1.076-3.793,33.409,33.409,0,0,0-1.262-5.171c-0.139-.478-0.282-0.968-0.421-1.458,2.728-1.787,5.045-3.792,5.709-5.021A0.522,0.522,0,0,0,576.935,135.469Zm-12.572-.058a2.69,2.69,0,0,1,.384-0.94,0.944,0.944,0,0,1-.014.276,8.231,8.231,0,0,1-.666,1.954C564.163,136.209,564.277,135.753,564.363,135.411Zm-12.857-2.253a1.423,1.423,0,0,1,.218-0.694,1.293,1.293,0,0,1-.131.865,3,3,0,0,1-.15.3Q551.482,133.376,551.506,133.158Zm-48.867-10.645a1.308,1.308,0,0,1,.911-0.455,0.368,0.368,0,0,1,.379.2c0.806,1.422-1.514,7.4-4.058,11.615,0-.118,0-0.233,0-0.346C499.808,130.781,500.733,124.408,502.639,122.513Zm-8.16,11.1a4.161,4.161,0,0,1-.164,1.17A8.418,8.418,0,0,1,494.479,133.616Zm20.779,4.6c-0.057.139-.119,0.276-0.188,0.411a3.44,3.44,0,0,1-3.277,1.994,1.181,1.181,0,0,1-1.287-.826c-0.53-1.613.959-4.905,2.8-6.181a2.537,2.537,0,0,1,1.431-.521,1.749,1.749,0,0,1,.788.19c-0.394.1-.868,0.5-0.868,1.882A8.768,8.768,0,0,0,515.258,138.216Zm8.2-5.1a12.589,12.589,0,0,1-.576,1.546,2.737,2.737,0,0,1,.011-1.437,2.42,2.42,0,0,1,.723-1.466A2.838,2.838,0,0,1,523.46,133.116Zm10.9-7.493a0.59,0.59,0,0,1,.2-0.041,0.276,0.276,0,0,1,.209.085c0.3,0.285.548,1.341-.068,3.556-0.355-.044-0.707-0.1-1.053-0.173a11.1,11.1,0,0,1-1.214-.335C532.876,126.839,533.779,125.834,534.356,125.623Zm-2.184,9.839a30.266,30.266,0,0,1,.031-5.249c0.012-.151.028-0.3,0.045-0.44,0.363,0.115.75,0.221,1.164,0.31,0.318,0.068.641,0.12,0.966,0.164-0.042.121-.082,0.24-0.128,0.367A41.982,41.982,0,0,1,532.172,135.462Zm7.427-.291a3.963,3.963,0,0,1,2.339-3.518,1.8,1.8,0,0,1,.56-0.1,0.868,0.868,0,0,1,.634.226,1.721,1.721,0,0,1,0,1.774,8.478,8.478,0,0,1-3.4,3.912A5.593,5.593,0,0,1,539.6,135.171Zm8.687-1.988q-0.226.5-.456,0.935a4.316,4.316,0,0,1,.141-0.889,1.762,1.762,0,0,1,.486-0.962A1.419,1.419,0,0,1,548.286,133.183Zm9.281-1.738c0.217-3.1,2.424-7.4,3.263-7.4a0.808,0.808,0,0,1,.74.239c0.186,0.262.353,1.075-.615,3.573a51.566,51.566,0,0,1-3.4,7.289A24.35,24.35,0,0,1,557.567,131.445Zm12.752,3.982a2.042,2.042,0,0,1,.453-1.387,1.509,1.509,0,0,1,.028,1.151,5.339,5.339,0,0,1-.456,1.138A5.135,5.135,0,0,1,570.319,135.427Zm1.735,12.489a3.747,3.747,0,0,1-.791,2.992,4.236,4.236,0,0,1-3.177,1.034,3.937,3.937,0,0,1-3.1-1.212,3.389,3.389,0,0,1-.729-2.763c0.322-1.759,1.288-3.35,4.95-5.4,0.435-.244.868-0.5,1.3-0.761,0.109,0.38.22,0.761,0.33,1.14A33.269,33.269,0,0,1,572.054,147.916Zm6.884-8.482A1.034,1.034,0,1,0,580,140.468,1.049,1.049,0,0,0,578.938,139.434Z" transform="translate(-488 -121)"/>
</svg>
