<svg xmlns="http://www.w3.org/2000/svg" width="48" height="50" viewBox="0 0 48 50">
  <defs>
    <style>
      .cls-1 {
        fill: #ffa826;
        fill-rule: evenodd;
      }
    </style>
  </defs>
  <path class="cls-1" d="M274.352,5962.38c-0.04-.84.155-1.92-0.288-2.37h-0.432a3.42,3.42,0,0,1-.29.41c-0.031.11,0,.28-0.143,0.28-0.026,1.03-.3,2.17-0.431,3.23a5.228,5.228,0,0,0,.143,3.22c0.169,0.02.409-.03,0.431,0.14C275.282,5967.23,274.332,5963.86,274.352,5962.38Zm-9.8,2.11c-0.352-.08-0.307-0.55-0.865-0.43a5.7,5.7,0,0,1-.721-0.7c-0.026-.02-0.114.02-0.145,0-0.213.17-.223,0.53-0.431,0.7v1.4c0.793,1.33-.134,4.33,2.017,4.34a2.115,2.115,0,0,0,1.009-.84A11.423,11.423,0,0,0,264.551,5964.49Zm24.216,1.4a0.23,0.23,0,0,0-.29-0.15c-0.891.68-1.556,1.57-2.45,2.24-0.566.92-1.88,1.63-1.584,2.94a0.721,0.721,0,0,1,.432.43,1.41,1.41,0,0,0,1.585-.7,5.343,5.343,0,0,0,.865-1.54,3.662,3.662,0,0,0,.722-1.27,10.55,10.55,0,0,1,.43-0.97A1.51,1.51,0,0,0,288.767,5965.89Zm-35.46,3.22c-0.558-.16-0.738-0.69-1.3-0.84a1.443,1.443,0,0,0-.144.97,1.694,1.694,0,0,0-.866,1.12c0.126,1.61.732,2.75,2.163,3.08a1.427,1.427,0,0,0,1.01-.56c0.033-.48.934-0.11,0.863-0.69C254.872,5970.76,253.715,5970.3,253.307,5969.11Zm38.343,14.13a17.371,17.371,0,0,0-2.02-3.5,38.293,38.293,0,0,0-3.026-2.52c-0.3-.73-1.022-1.06-1.3-1.82a19.038,19.038,0,0,0-1.586-1.68c-2.008-.14-3.828-0.48-5.766-0.7-2.636.05-5.844,0.01-8.072-.14-0.086,0-.17.04-0.144,0.14a17.869,17.869,0,0,1-4.324,0q-2.156,1.2-4.468,2.24a16.556,16.556,0,0,1-1.874,1.96c-1.576.9-2.792,2.15-4.324,3.08-0.534.56-.492,1.67-1.3,1.96-0.731.41-.568,1.69-0.864,2.52a11.4,11.4,0,0,0,1.152,1.96,9.468,9.468,0,0,0,1.3,1.82c0.583,1.49,1.763,2.4,2.164,4.06,1.086,0.77,1.573,2.12,2.6,2.94a13.136,13.136,0,0,0,1.152,1.68c0.344,0.6.83,1.06,1.152,1.68a46.072,46.072,0,0,1,5.046,6.16c1.435,1.22,2.792,2.52,4.18,3.78,0.96,0.29,1.659.82,2.6,1.12,0.265-.42.684,0.17,1.154,0,2.069-.6,3.1-2.21,4.467-3.5,1.1-1.55,2.263-3.03,3.314-4.62,0.76-1.3,1.888-2.66,2.6-3.78,0.083-.13.221-0.17,0.289-0.28,0.116-.18.158-0.51,0.287-0.7,0.044-.06.238-0.07,0.288-0.14a4.354,4.354,0,0,0,.145-0.42c0.326-.45.611-0.72,0.865-1.12,0.122-.18.159-0.5,0.289-0.7,0.04-.06.238-0.07,0.287-0.14,0.09-.11.069-0.31,0.146-0.42,0.46-.64.817-1.24,1.3-1.82,1.026-2.45,2.486-4.49,2.594-7.84A4.984,4.984,0,0,1,291.65,5983.24Zm-37.046,1.54c-0.073-.07.1-0.18,0.145-0.14C254.824,5984.72,254.645,5984.82,254.6,5984.78Zm30.415-5.32h0.432c0.443,0.6.966,1.12,1.442,1.68a6.918,6.918,0,0,1,1.3,1.68c-1.379.76-2.983,1.31-4.324,2.1-0.981-.49-0.83-2.08-1.586-2.8C282.605,5980.67,284.273,5980.51,285.019,5979.46Zm-18.74-4.34a63.47,63.47,0,0,0,10.667.56c1.414,0.17,2.893.28,4.181,0.56a4.414,4.414,0,0,1,2.017.42c0.432,0.33.618,0.9,1.01,1.26-0.909,1.22-2.443,1.83-3.749,2.66-4.151-1.73-10.725.48-15.279-.84a2.355,2.355,0,0,1-.72-0.7,1.17,1.17,0,0,1-.864-0.56,2.978,2.978,0,0,1-1.443-1.26A16.373,16.373,0,0,0,266.279,5975.12Zm-2.017,9.52a1.1,1.1,0,0,0,.289-0.7c0.238-.46.336-1.07,0.575-1.54,4.284-1.06,9.944-.79,15.279-0.84-0.1,1.79,1.01,2.38,1.153,3.92-2.8.31-6.122,0.12-8.936,0.42a42.165,42.165,0,0,0-8.071-.42A0.913,0.913,0,0,0,264.262,5984.64Zm-8.361-1.82a2.519,2.519,0,0,1,1.009-1.12,7.65,7.65,0,0,1,1.3-.84c0.7-.67,1.595-1.15,2.306-1.82a1.154,1.154,0,0,1,.145-0.42c0.035,0.02.113-.02,0.144,0,1.061,0.76,1.67,1.83,3.027,2.24a9.074,9.074,0,0,1-1.01,1.68c-0.23.62-.781,0.93-0.864,1.68A40.869,40.869,0,0,0,255.9,5982.82Zm13.407,20.58c-0.522-.52-0.932-1.15-1.442-1.68a39.305,39.305,0,0,0-4.757-7.98c-1.6-2.64-3.433-5.06-5.046-7.7,0.078-.2-0.561-0.34-0.144-0.42a26.088,26.088,0,0,1,4.758,1.54c1.35,3.03,2.675,6.09,4.181,8.96,0.555,1.61,1.421,2.92,2.017,4.48a10.869,10.869,0,0,1,1.008,2.24,7.422,7.422,0,0,1,1.009,2.24C270.064,6004.81,269.911,6003.89,269.308,6003.4Zm6.2,3.36a3.068,3.068,0,0,1-1.441-1.68c-0.591-.4-0.642-1.33-1.153-1.82-0.187-1.59-.923-2.65-1.153-4.2-0.313-.58-0.414-1.37-0.722-1.96a19.165,19.165,0,0,0-.575-1.96,52.274,52.274,0,0,0-3.028-7.56c0.37-.38,1.638.1,2.019-0.28a19.15,19.15,0,0,1,4.034.7h5.623c1.138-.06,2.252-0.72,3.171-0.56a6.253,6.253,0,0,1-.865,3.22,17.3,17.3,0,0,0-1.01,3.36C278.232,5997.75,276.886,6002.27,275.505,6006.76Zm14.415-20.72a5.951,5.951,0,0,0-.576,1.26,5.079,5.079,0,0,0-.577,1.26c-1.02,1.95-2.22,3.73-3.171,5.74-1.123,1.29-1.741,3.07-3.028,4.2a11.2,11.2,0,0,1-1.441,2.24c-0.61.58-.935,1.43-1.586,1.96-0.427-.24.084-0.74,0-1.12a4.866,4.866,0,0,0,.289-0.98,6.652,6.652,0,0,1,.72-1.82c1.371-3.85,3.862-6.61,4.325-11.34,1.247-1.16,3.226-1.62,4.612-2.66h0.143C290.282,5984.65,290.108,5985.79,289.92,5986.04Zm8.216-10.92c-0.024.17-.229,0.16-0.433,0.14-0.572.52-1.3,0.89-1.873,1.4-0.614.53-1.7,0.6-1.442,1.96,1.01,0.78,1.923-.28,2.739-0.56,0.644-.91,1.783-1.34,1.873-2.8A2.435,2.435,0,0,0,298.136,5975.12Z" transform="translate(-251 -5960)"/>
</svg>
