<svg xmlns="http://www.w3.org/2000/svg" width="50.031" height="50" viewBox="0 0 50.031 50">
  <defs>
    <style>
      .cls-1 {
        fill: #ffa826;
        fill-rule: evenodd;
      }
    </style>
  </defs>
  <path class="cls-1" d="M299.826,6049.93a0.643,0.643,0,0,1-.284-0.58,8.012,8.012,0,0,1-.851-1.16,5.708,5.708,0,0,1-.853-1.3,15.941,15.941,0,0,1-1.986-2.03c-0.728-.66-1.567-1.2-2.271-1.88-0.67-.67-1.433-1.24-2.129-1.88a13.2,13.2,0,0,0-2.271-1.88c-1.017-.17-1.742-0.64-2.838-0.73a22.035,22.035,0,0,0-3.264-.29,57.892,57.892,0,0,0-7.1-.14c-0.086.01-.166,0.02-0.141,0.14h-0.284a17.854,17.854,0,0,0-4.541.58c-0.091.3-.664,0.1-0.71,0.44-0.45-.03-0.474.38-0.993,0.29-1.812,1.04-3.53,2.18-5.251,3.32a23.374,23.374,0,0,0-4.685,3.91,28.551,28.551,0,0,0-1.845,2.9c-0.129.68-.848,0.77-0.993,1.44-0.493.32-.608,1.02-1.136,1.31a6.29,6.29,0,0,1-.852,1.44,8.082,8.082,0,0,1-.85,1.59,6.347,6.347,0,0,1-.71,1.74,6.92,6.92,0,0,0-.143,1.01c-0.375.06-.127,0.74-0.425,0.87-0.092,1.31-.267,2.53-0.426,3.77,0.233,1.59.054,3.6,0.426,5.06a42.078,42.078,0,0,0,.851,4.63c0.653,0.98,1.043,2.22,1.7,3.18a4.055,4.055,0,0,0,.851,1.6,2.084,2.084,0,0,0,.426.72,1.163,1.163,0,0,1,.426.87,26.858,26.858,0,0,0,15.044,8.53,32.329,32.329,0,0,0,19.871-2.46,17.954,17.954,0,0,1,2.269-1.59,23.842,23.842,0,0,1,2.271-2.46,19.336,19.336,0,0,1,1.136-1.88,9.839,9.839,0,0,1,1.278-1.88,0.7,0.7,0,0,1,.284-0.72,1.209,1.209,0,0,1,.283-0.73,7.085,7.085,0,0,1,.569-1.44c0.3-1.05.63-2.06,0.993-3.04a47.958,47.958,0,0,0,1.277-6.95C302.22,6058.48,301.475,6053.74,299.826,6049.93ZM277.4,6063.96c-3.209-.06-6.664.14-9.652-0.14a49.138,49.138,0,0,1,.427-9.84c2.748,0.38,5.723.53,8.657,0.72C276.92,6057.89,277.145,6060.94,277.4,6063.96Zm-6.1-21.99a28.646,28.646,0,0,0,2.838-.87c0.525-.09,1.415.19,1.7-0.15h0.426c-0.388,3.62.17,7.16,0.284,10.71-2.54-.26-5.386-0.2-7.807-0.58A48.5,48.5,0,0,1,271.3,6041.97Zm-7.805,5.64c0.289-.25.277,0.11,0.568-0.14,0.18-.5.5-0.84,0.708-1.31a4.364,4.364,0,0,0,1.42-1.44c1.05-.53,1.672-1.48,2.838-1.89a41.594,41.594,0,0,0-2.412,7.82c-1.735-.11-2.754-0.96-4.4-1.16C262.476,6048.7,263.247,6048.42,263.493,6047.61Zm-6.672,9.69a4.263,4.263,0,0,0,.852-2.02c0.65-.4.807-1.3,1.277-1.88s0.884-1.22,1.419-1.74a4.7,4.7,0,0,0,.284-0.43,27.958,27.958,0,0,0,5.252,2.31,68.82,68.82,0,0,0-.851,10.13,35.828,35.828,0,0,1-9.084-1.15C255.846,6060.36,256.566,6059.07,256.821,6057.3Zm3.974,19.4a2.11,2.11,0,0,1-.708-1.02c-0.684-.46-0.876-1.42-1.421-2.02-0.7-1.6-1.415-3.19-1.986-4.92-0.085-.38.056-0.52,0.426-0.44-0.414-.97-1.108-1.67-1.136-3.04,2.776,0.74,6.172.85,9.225,1.31a55.941,55.941,0,0,0,1.278,9.11c-1.544.65-3.223,1.15-4.684,1.88A1.784,1.784,0,0,1,260.8,6076.7Zm5.82,5.06a4.886,4.886,0,0,0-1.277-.72,5,5,0,0,0-1.136-.87,3.789,3.789,0,0,1-.994-1.01,9.043,9.043,0,0,0,1.846-.44,7.749,7.749,0,0,0,1.7-.58,0.219,0.219,0,0,1,.285.15c0.28,1.4.8,2.56,0.994,4.05A5.03,5.03,0,0,0,266.615,6081.76Zm1.134-15.19c3.159,0.15,6.458.17,9.794,0.14,0.094,2.17.34,4.19,0.426,6.37-1.5.3-3.179,0.42-4.683,0.72-0.557.35-1.574,0.23-2.13,0.58-0.93-.03-1.312.5-2.271,0.44C268.557,6072.02,267.879,6069.57,267.749,6066.57Zm7.807,16.93c-0.53.15-.4-0.36-0.852-0.29h-1.418a10.871,10.871,0,0,0-2.13-.29,10.2,10.2,0,0,1-.568-1.3,6.172,6.172,0,0,0-.426-1.31c0-.57-0.283-0.86-0.283-1.44a11.093,11.093,0,0,0-.426-1.31c0.4-.55,1.325-0.58,2.13-0.72,0.653-.3,1.691-0.2,2.411-0.43,1.241,0.1,2.04-.24,3.266-0.15a1.072,1.072,0,0,0,.424-0.14h0.285c0.573-.01.119,1.03,0.426,1.3a5.529,5.529,0,0,0,.142,1.59v1.88c0.108,0.86.265,1.66,0.426,2.46A17.706,17.706,0,0,1,275.556,6083.5Zm2.839-41.82c1.239,0.08,2.824-.18,3.832.14,0.9,0.24.988,1.31,1.7,1.74,0.341,0.81.97,1.33,1.278,2.17a20.073,20.073,0,0,1,1.846,5.06,24.01,24.01,0,0,1-7.949.87C278.811,6048.39,278.474,6045.17,278.4,6041.68Zm0.851,13.02a23.971,23.971,0,0,0,8.09-.87,0.214,0.214,0,0,0,.285-0.14c0.121-.03.133,0.05,0.141,0.14a51.245,51.245,0,0,1,.568,9.26c-2.837.25-5.565,0.6-8.516,0.73C279.751,6060.65,279.443,6057.73,279.246,6054.7Zm7.807,22.86a12.426,12.426,0,0,0-.427,1.89c-0.546.93-.623,2.35-1.276,3.18-1.209.41-2.936,0.29-4.116,0.72a49.979,49.979,0,0,1-.427-7.38c2.277,0.06,4.407-.04,6.529-0.14C287.552,6076.23,287.11,6076.98,287.053,6077.56Zm0.992-4.92c-2.548.01-5.012,0.1-7.381,0.29a45.211,45.211,0,0,1-.565-6.36,75.768,75.768,0,0,0,7.946-1.16h0.285A44.908,44.908,0,0,1,288.045,6072.64Zm-0.141-26.91a7.114,7.114,0,0,0-.426-0.73c-0.132-.21-0.26-0.43-0.425-0.72-0.062-.1-0.062-0.31-0.143-0.43,0.032,0.04-.937-0.79-0.426-0.73,1.482,0.71,2.675,1.71,4.258,2.32,0.681,0.99,1.912,1.43,2.555,2.46a12.551,12.551,0,0,1-1.7,1.16c-0.833.11-1.23,0.67-2.13,0.72A21.092,21.092,0,0,0,287.9,6045.73Zm3.121,33.72a1.726,1.726,0,0,0-.709.28,2.069,2.069,0,0,0-.71.73c-0.329-.44.254-1.18,0.284-1.74,0.148-.62.258-1.28,0.426-1.88a1.125,1.125,0,0,1,.143-0.43,9.859,9.859,0,0,1,2.271,1.01C292.383,6078.32,291.568,6078.74,291.025,6079.45Zm6.53-13.9a2.093,2.093,0,0,1-.425,1.02,22.01,22.01,0,0,1-2.413,8.1c-1.348-.41-2.434-1.09-3.692-1.59,0.338-2.98-.065-5.72.143-7.67a13.118,13.118,0,0,0,5.819-1.59c0.254,0.02.3-.18,0.568-0.15v1.88Zm-3.691-2.74h-2.839a61.422,61.422,0,0,0-.709-9.99,22.578,22.578,0,0,0,4.683-2.46,0.882,0.882,0,0,0,.285.14c0.432,1.73,1.19,3.13,1.561,4.92a29.512,29.512,0,0,1,.71,5.65C296.392,6061.71,295.059,6062.19,293.864,6062.81Z" transform="translate(-252 -6038)"/>
</svg>
