<svg xmlns="http://www.w3.org/2000/svg" width="48" height="50" viewBox="0 0 48 50">
  <defs>
    <style>
      .cls-1 {
        fill: #ffa826;
        fill-rule: evenodd;
      }
    </style>
  </defs>
  <path class="cls-1" d="M292.7,6143.49a30.06,30.06,0,0,0-2.135-2.44c-1.125-.3-2.065-0.79-3.276-1-1.306-.17-2.748-0.2-3.988-0.43h-2.562a5.582,5.582,0,0,0,.854-1.29c0.51-.25.511-1.01,1-1.29a5.062,5.062,0,0,1,.141-1.43c0.479-.48.693-1.22,1.14-1.72,0.279-.72.992-1.01,1.139-1.86a23.523,23.523,0,0,1,.285-5.3,3.725,3.725,0,0,1-.569-2.01c-0.869-.46-1.283-1.38-2.279-1.72h-1.709c-1.66.62-2.255,2.31-3.986,2.87-1.855,3.67-5.035,6.01-7.974,8.59a54.525,54.525,0,0,1-4.271,4.01,10.987,10.987,0,0,1-2.279,1.87,14.23,14.23,0,0,1-2.562,1.72,2.872,2.872,0,0,0-1-1.87,20.935,20.935,0,0,0-5.269-1.14c-1.276,0-2.324.24-3.7,0.14a1.931,1.931,0,0,1-1,.29,1.44,1.44,0,0,1-.854.43,4.082,4.082,0,0,1-1,1c-1.2,2.52-1.13,6.31-1.709,9.45-0.159,5.67-.162,11.49-0.141,17.34a6.219,6.219,0,0,1,.427,1.29c0.32,0.3.407,0.83,0.711,1.14a8.055,8.055,0,0,0,2.99.72c1.632,0.89,4.332.7,6.835,0.72,0.631-.18,1.061-0.56,1.709-0.72,0.914,0.11,1.03-.59,1.567-0.86a2.492,2.492,0,0,0,1.139,1.43c0.536-.74,1.426.29,2.135,0.29a15.7,15.7,0,0,0,2.42.57c2.8,0.24,5.5.59,8.4,0.72a28.091,28.091,0,0,1,4.271-.14,55.792,55.792,0,0,0,5.695-1.29,2.753,2.753,0,0,1,1-.58,7.629,7.629,0,0,0,2.42-4.72c0.14-1.3-.1-2.72,0-4.3,0.752-.73,1.681-1.27,2.42-2.01a3.079,3.079,0,0,1,.713-1.14c0.405-2.22.732-4.52,1-6.88a8.778,8.778,0,0,0,2.137-4.01A17.067,17.067,0,0,0,292.7,6143.49Zm-44,2.43a2.973,2.973,0,0,1,.143-1.43,5.894,5.894,0,0,1,.57-2.43c0.137,0,.11.17,0.142,0.28a45.9,45.9,0,0,0-.855,4.87A1.319,1.319,0,0,1,248.706,6145.92Zm8.543-.43c-0.255.27-.313,0.74-0.57,1.01-0.392,2.13-.714,4.34-1,6.59,0.009,1.35-.091,1.92,0,3.15-0.372,1.99.17,4.06,0.144,6.16a9.557,9.557,0,0,0,1,2.15c0.12,1.17.416,2.16,0.572,3.29a20.449,20.449,0,0,1-5.126,0c0.023-.45.333-1.05,0-1.43-1.028-.22-1.048.57-1.852,0.57,0.218-.88.778-1.41,1-2.29,0.372-.56.993-1.54,0.711-2.29-0.582-.25-1.317.45-1.708,0.86-0.638.16-.821,1.41-1.424,1.14v-2.14a7.386,7.386,0,0,1,.712-1.29c0.018-.61.551-0.69,0.569-1.29a2.308,2.308,0,0,0,1-1.01,1.844,1.844,0,0,0-.286-0.71c-0.046-.34-0.622-0.14-0.712-0.43a2.013,2.013,0,0,0-.853.14c-0.207-.08-0.348.56-0.428,0.14,0.674-5.05-.305-11.76,1.71-15.47a0.843,0.843,0,0,1,.283-0.14,0.7,0.7,0,0,1,.286-0.14,11.3,11.3,0,0,0,1.708.14,2.613,2.613,0,0,1,1,.43c1.533-.07,2.247.7,3.7,0.71A11.86,11.86,0,0,0,257.249,6145.49Zm32.322,2.87a11.9,11.9,0,0,1-1.282,1.72,6.991,6.991,0,0,1-.568,1.43,29.888,29.888,0,0,1-1,6.45,21.858,21.858,0,0,1-2.562,1.86,4.89,4.89,0,0,0-.427,1.86,2.536,2.536,0,0,0,.427,1.15c-0.272,1.73-.293,3.72-1.14,4.87-0.857.81-2.308,1.02-3.7,1.29a4.874,4.874,0,0,0-2.421-.43c-0.542.1,0.148-.75-0.428-0.86-1.019-.12-0.9.91-1.707,1-0.777.07-1.17-.25-2-0.14,0-.91.811-1,0.713-2.01a2.97,2.97,0,0,1-.285-0.43c-1.429.05-1.96,0.99-2.7,1.72a5.67,5.67,0,0,0-1.993-.14c0.058-.62.5-1.08,0.141-1.72-1.733-.17-1.84,1.3-2.989,1.72,0.1-.77.877-1.95,0-2.44-0.782-.11-0.608.73-1.139,0.86-0.365.31-.4,0.94-1,1.01a3.616,3.616,0,0,0-1-.72c0.46-.92,1.083-1.68,1.566-2.58,0.36-.76,1.332-1.85.711-2.72a2.482,2.482,0,0,0-2.277,1.29,2.8,2.8,0,0,0-.854.86c-0.321.25-.327,0.81-0.853,0.86-0.361-1.29.947-1.83,1.138-3.01,0.44-.27.4-1.03,0.854-1.29,0.09-.59.6-0.98,0.285-1.58-1.3-.11-1.5.88-2.277,1.29a4.594,4.594,0,0,1-.714,1.01c-0.321.25-.327,0.81-0.853,0.86v-2.73a13.027,13.027,0,0,1,1.708-3.01c0.435-1.08,1.442-1.6,1.566-3-0.5-.25-1.178.39-1.707,0.57a4.739,4.739,0,0,1-1.567,1,7.1,7.1,0,0,0,.141-2.15c0.464-.48.836-1.07,1.281-1.57,0.176-.3.395-0.56,0.57-0.86a0.57,0.57,0,0,0,.57-0.72,1.169,1.169,0,0,0-1.14-.29,1.854,1.854,0,0,1-.853.58c0.176-1.35.477-2.58,0.712-3.87a41.8,41.8,0,0,0,7.688-5.59c0.141-.57.592-0.83,0.712-1.43a28.19,28.19,0,0,0,3.987-3.15,21.624,21.624,0,0,0,3.7-3.44,0.907,0.907,0,0,1,.712-0.14,2.162,2.162,0,0,1,.143-0.86c0.994-.77,1.517-2.01,2.561-2.73a2.685,2.685,0,0,1,.144-1.14,0.937,0.937,0,0,1,.854-0.29c0.164-.68-0.331-1.17,0-1.57a1.081,1.081,0,0,1,.427.14,6.423,6.423,0,0,1,1,3.15,10.211,10.211,0,0,1,.428,1.29c-0.36,2.36-1.6,3.83-2.706,5.44a8.864,8.864,0,0,1-1.708,2.44c-0.393.94-1.341,1.33-1.852,2.15a11.786,11.786,0,0,0-1.708,1,1.629,1.629,0,0,0-1.281,1.29c-0.126.94,0.676,0.94,1.139,1.29a5.47,5.47,0,0,0,2.562-.43,58.318,58.318,0,0,0,6.408.14,25.469,25.469,0,0,0,3.132.29,1.936,1.936,0,0,0,1,.29,1.163,1.163,0,0,0,.855.28,6.6,6.6,0,0,0,1,1.01A19.1,19.1,0,0,1,289.571,6148.36Zm-34.457-1.43a3.14,3.14,0,0,1-.142-1.29c-0.328-.25-0.189-0.96-0.571-1.15a3.779,3.779,0,0,0-.853-1,4.009,4.009,0,0,0-3.276.57,12.058,12.058,0,0,0-.569,3.01,2.366,2.366,0,0,1,.142,1c0.321,0.3.409,0.83,0.712,1.15a4.956,4.956,0,0,0,1.14.71,3.35,3.35,0,0,0,3.275-1.86A2.641,2.641,0,0,1,255.114,6146.93Zm-2.563.28c-0.395-.17-0.265-0.88-0.284-1.43A1.41,1.41,0,0,1,252.551,6147.21Z" transform="translate(-245 -6123)"/>
</svg>
