<svg xmlns="http://www.w3.org/2000/svg" width="380" height="138" viewBox="0 0 380 138">
  <defs>
    <style>
      .cls-1 {
        fill: #fff;
        fill-rule: evenodd;
      }
    </style>
  </defs>
  <path class="cls-1" d="M973.541,5779.79a2.913,2.913,0,0,0-.3,1.83,3.132,3.132,0,0,0-1.49.73,3.338,3.338,0,0,0-.924,1.43c-0.3.93-.114,0.73-1.027,1.09a3.384,3.384,0,0,0-2.078,2.7,3.438,3.438,0,0,0-2.862,1.93c-0.428.89-.232,0.73-1.174,1.01a3.483,3.483,0,0,0-1.534.95,3.591,3.591,0,0,0-.832,1.6,3.33,3.33,0,0,0-1.741.45,3.521,3.521,0,0,0-1.275,1.29c-0.492.86-.289,0.71-1.248,0.93a3.509,3.509,0,0,0-1.6.86c-0.2.19-.957,1.55-1.024,1.55a3.513,3.513,0,0,0-.311-2.65,3.455,3.455,0,0,0-.9-1.03,3.708,3.708,0,0,0,.323-1.68,3.353,3.353,0,0,0-.934-2.16c-0.513-.54-0.13-0.61-0.008-1.3,0.113-.62-0.16-0.86.368-1.25a3.772,3.772,0,0,0,1.287-1.73,3.578,3.578,0,0,0,.208-1.5c-0.053-.73.1-0.51,0.6-0.98a3.878,3.878,0,0,0,1.143-2.48,3.943,3.943,0,0,0-.208-1.52,3.229,3.229,0,0,0,.823-1,4.1,4.1,0,0,0,.456-2.3,4.022,4.022,0,0,0-.378-1.37c-0.29-.6-0.084-0.55.088-1.16a4.581,4.581,0,0,0-2.054-4.91c-2.822-1.75-8.065-1.42-8.209,2.91a3.633,3.633,0,0,0,.049.71,3.9,3.9,0,0,0-.937,1.03,4.025,4.025,0,0,0-.55,2.93c0.132,0.63.47,0.74,0.092,1.29a3.226,3.226,0,0,0-.525,1.16,4.192,4.192,0,0,0,.247,2.65,2.911,2.911,0,0,0,.464.69,3.786,3.786,0,0,0-.511,1.39,3.6,3.6,0,0,0,.615,2.63c0.427,0.61-.388,1.59-0.364,2.47a3.275,3.275,0,0,0-2.087,1.4c-0.414.65-.231,1.53-0.957,1.68a3.19,3.19,0,0,0-2.029,1.37,4.042,4.042,0,0,0-.467,1.19,2.989,2.989,0,0,0-1.532.25,3.127,3.127,0,0,0-1.691,1.82,3.023,3.023,0,0,0-2.4.27,3.282,3.282,0,0,0-1.039,1.07,2.868,2.868,0,0,0-1.394-.43,2.587,2.587,0,0,0-1.339.27c-0.634.34-.535,0.76-1.156,0.25a2.136,2.136,0,0,0-2.5-.3,1.821,1.821,0,0,0-1.53-1.88c0.346-.65.248-1.3,0.57-1.93a3.625,3.625,0,0,0,.4-1.69,3.738,3.738,0,0,0,2.325-2.55c0.181-.67-0.143-1.31.432-1.68a3.521,3.521,0,0,0,1.134-1.2,3.793,3.793,0,0,0,.521-1.86,3.545,3.545,0,0,0-.131-0.97,3.174,3.174,0,0,0,.9-0.82,3.771,3.771,0,0,0,.533-3.58,3.926,3.926,0,0,0,1.3-3.55,4.012,4.012,0,0,0-.545-1.64,2.171,2.171,0,0,1-.125-1.37,4.451,4.451,0,0,0-5.373-4.02,3.013,3.013,0,0,0-1.138.53,4.28,4.28,0,0,0-2.226.62,4.4,4.4,0,0,0-2.121,3.03c-0.1.69,0.179,1.25-.285,1.74a4.036,4.036,0,0,0-1.028,2.03,3.308,3.308,0,0,0,.125,1.79c0.3,0.85-.218.85-0.588,1.63a3.542,3.542,0,0,0-.32,1.84,3.422,3.422,0,0,0,.21.91c0.255,0.69-.043.58-0.4,1.17a3.67,3.67,0,0,0-.023,3.72,3.77,3.77,0,0,0-.557,4.13,3.079,3.079,0,0,0-2.4,2.33,2.809,2.809,0,0,0-3.008,1.2c-0.395.61-.9-0.05-1.612-0.03a3.063,3.063,0,0,0-1.728.6c-0.69.55-.792-0.08-1.556-0.35a2.52,2.52,0,0,0-2.018.29,2.315,2.315,0,0,0-1.689-1.63c-0.68-.17-0.847.21-0.935-0.58a2.735,2.735,0,0,0-.461-1.26,3.179,3.179,0,0,0-1.078-.89c-0.736-.38-0.328-0.48-0.362-1.23a3.2,3.2,0,0,0-1.565-2.53,3.278,3.278,0,0,0-.057-2.73,5.09,5.09,0,0,1,2.632-4.43,3.606,3.606,0,0,0,.258-1.4c-0.01-.76.6-0.73,1.115-1.28a3.587,3.587,0,0,0,.974-2.62c-0.039-.77,1.2-1.28,1.61-2.09s0.065-2.12.706-2.55a3.586,3.586,0,0,0,1.554-2.81c0.029-.68-0.282-0.76.311-1.18a3.381,3.381,0,0,0,.961-1.02,5.447,5.447,0,0,1,2.137-4.9,3.536,3.536,0,0,0,.1-1.4c-0.1-.76.508-0.79,0.962-1.38a3.563,3.563,0,0,0,.7-2.68c-0.113-.76,1.072-1.37,1.4-2.22s-0.12-2.1.478-2.58a3.568,3.568,0,0,0,1.311-2.93c-0.03-.7-0.339-0.75.219-1.23a3.311,3.311,0,0,0,.864-1.14,3.664,3.664,0,0,0,.124-2.87,3.491,3.491,0,0,0,1.307-2.05,3.894,3.894,0,0,0,.049-1.52c-0.164-.96-0.3-0.8.2-1.63a3.9,3.9,0,0,0,.461-2.68,4.275,4.275,0,0,0-.479-1.34c-0.358-.62-0.109-0.65,0-1.34a4.362,4.362,0,0,0-3.365-4.71,4.262,4.262,0,0,0-4.811-1.88,5.843,5.843,0,0,0-1.2.49,3.019,3.019,0,0,0-1.431-.13,4.584,4.584,0,0,0-2.923,1.48,3.432,3.432,0,0,0-.872,1.81,3.746,3.746,0,0,0-2.158,1.46c-0.527.72-.48,2.25-1.095,2.58a3.691,3.691,0,0,0-1.675,1.9c-0.312.79,0.037,1.73-.616,2.17a3.652,3.652,0,0,0-1.538,2.42,3.516,3.516,0,0,0,.058,1.43,3.611,3.611,0,0,0-1.752,3.72c0.129,0.77-.778,1.13-1.143,1.89a3.617,3.617,0,0,0-.152,2.83,3.655,3.655,0,0,0-1.326,3.91c0.2,0.71-.086.58-0.485,1.16a3.731,3.731,0,0,0-.555,2.84c0.147,0.7.463,0.68,0.008,1.28a3.66,3.66,0,0,0-.633,1.34,6,6,0,0,1-.374,5.52c0.07,0.82.784,1.49,0.382,2.15a3.6,3.6,0,0,0-.4,2.78,3.53,3.53,0,0,0,.627,1.27,3.719,3.719,0,0,0-.605,1.29,3.623,3.623,0,0,0,.46,2.79c0.423,0.66-.384,1.76-0.312,2.69s1.056,1.88.752,2.61a3.571,3.571,0,0,0,.074,2.86,3.3,3.3,0,0,0-1.484,2.1,3.356,3.356,0,0,0-.069.9,3.413,3.413,0,0,0-1.213.54,3.314,3.314,0,0,0-1.335,2.19c-0.1.73-1.352,0.78-1.941,1.4-0.72.67-.554,1.78-1.447,1.92a3.03,3.03,0,0,0-2.176,1.45c-0.351.6-.046,0.75-0.823,0.67a2.685,2.685,0,0,0-1.346.16,2.378,2.378,0,0,0-1.019.77c-0.487.59-.431,0.22-1.044-0.07a2.5,2.5,0,0,0-2.459.42,2.209,2.209,0,0,0-2.568-1.23,2.394,2.394,0,0,0-1.618-2.52,3.015,3.015,0,0,0,.241-1.84c-0.213-.91-1.148-1.36-0.748-2.15a3.166,3.166,0,0,0,.3-1.93c-0.124-.76-0.848-1.31-0.428-1.91a3.391,3.391,0,0,0,.022-3.76,3.453,3.453,0,0,0,.9-1.56,3.741,3.741,0,0,0,1.6-.91,3.828,3.828,0,0,0,1.055-1.58,2.909,2.909,0,0,0,.187-0.88,3.683,3.683,0,0,0,1.183-.66,4.056,4.056,0,0,0,1.34-3.82,4.214,4.214,0,0,0,1.409-4.21,4.493,4.493,0,0,0-.684-1.51,4.032,4.032,0,0,0-.023-1.87,4.511,4.511,0,0,0-3.305-3.16,4.132,4.132,0,0,0-2.095.06c-0.724.22-1.188,0.77-1.886,0.93a4.563,4.563,0,0,0-3.105,2.78,4.02,4.02,0,0,0-.262,1.83,3.954,3.954,0,0,0,.16.79,3.8,3.8,0,0,0-.752,1.15,3.717,3.717,0,0,0-.373,1.58c0,0.8.634,1.48,0.15,2.06a3.546,3.546,0,0,0-.759,1.68,3.482,3.482,0,0,0,0,1.13c0.136,0.82.013,0.51-.508,1.05-0.726.76-.431,0.57-1.472,0.42a2.66,2.66,0,0,0-2.019.53c0.383-.82.034-2.06,0.677-2.5a3.736,3.736,0,0,0,1.506-2.23,3.987,3.987,0,0,0,.087-1.32c-0.07-.66.089-0.51,0.479-0.99a4.193,4.193,0,0,0,.87-2.52,4.263,4.263,0,0,0-.918-2.77,3.756,3.756,0,0,0-.6-2.69,4.385,4.385,0,0,0-5.449-1.57,3.38,3.38,0,0,0-1.084.81,2.163,2.163,0,0,1-1.115.54,4.5,4.5,0,0,0-2.041,1.7,3.8,3.8,0,0,0-.614,2.86,3.916,3.916,0,0,0-1.488,2.24c-0.173.87,0.409,2.3-.012,2.87a3.879,3.879,0,0,0-.7,2.66c0.089,0.91.978,1.88,0.81,2.66a4.249,4.249,0,0,0,.6,2.99,3.341,3.341,0,0,0-1.679,1.52c-0.37.69-.133,1.57-0.813,1.83a3.571,3.571,0,0,0-1.666,1.34c-0.419.64-.243,1.57-0.936,1.75a3.356,3.356,0,0,0-1.784,1.12c-0.468.61-.356,1.53-1.094,1.61a3.206,3.206,0,0,0-1.863.89,3.026,3.026,0,0,0-.7,1.03c-0.28.67-.521,0.33-1.191,0.41a2.969,2.969,0,0,0-1.888,1.07,1.088,1.088,0,0,1-1.927.51,2.841,2.841,0,0,0-1.987,1.19,3.055,3.055,0,0,0-1.914-.62c-0.85.03-1.439,0.87-2.024,0.3a2.435,2.435,0,0,0-1.957-.79c-0.657,0-.769.47-1.057-0.26a2.132,2.132,0,0,0-.6-0.92,3.84,3.84,0,0,0,2.092-1.21,3.491,3.491,0,0,0,.616-1.07c0.221-.62.474-0.38,1.068-0.58a3.609,3.609,0,0,0,2.166-1.97c0.292-.66.035-0.84,0.759-1.05a3.146,3.146,0,0,0,1.3-.71,3.956,3.956,0,0,0,1.307-2.64,3.861,3.861,0,0,0,2.21-1.82c0.388-.69.212-1.88,0.792-2.22a3.69,3.69,0,0,0,1.667-1.99,3.762,3.762,0,0,0,.183-1.51c-0.059-.73.1-0.54,0.6-1a3.731,3.731,0,0,0,1.143-2.55,3.906,3.906,0,0,0-.251-1.57,3.973,3.973,0,0,0,.755-1.12,4.24,4.24,0,0,0,.087-3.03,3.49,3.49,0,0,0-.757-1.31,3.124,3.124,0,0,0,.142-1.34,4.512,4.512,0,0,0-1.316-2.74,3.706,3.706,0,0,0-2.354-1.15,3.812,3.812,0,0,0-1.948-1.64,4.282,4.282,0,0,0-2.8-.18,3.046,3.046,0,0,0-1.138.56,3.661,3.661,0,0,0-1.415-.34,4.094,4.094,0,0,0-2.823.95,3.2,3.2,0,0,0-.87,1.06,3.594,3.594,0,0,0-1.344.15,4.057,4.057,0,0,0-2.214,1.72,3.693,3.693,0,0,0-.492,1.23,3.614,3.614,0,0,0-1.211.5,3.936,3.936,0,0,0-1.646,2.15,1.605,1.605,0,0,1-1.215,2.03,3.9,3.9,0,0,0-1.133,2.67c-0.009.66,0.3,0.82-.2,1.28a3.6,3.6,0,0,0-.769,1.02,3.886,3.886,0,0,0-.279,2.89c0.258,0.85-.8,1.72-0.87,2.74-0.062.97,0.744,2.1,0.309,2.8a3.941,3.941,0,0,0,.367,4.33,4.036,4.036,0,0,0,.595,4.4,3.337,3.337,0,0,0-1.906,1.39c-0.411.66-1.924,0.21-2.769,0.71a3.585,3.585,0,0,0-.975.87c-0.451.58-.643,0.17-1.33,0.15a6.338,6.338,0,0,1-5.689,1.39,3.293,3.293,0,0,0-1.009.77,3.729,3.729,0,0,0-1.44-.56,2.561,2.561,0,0,0-1.418.2c-0.606.27-.554,0.71-1.063,0.13a2.272,2.272,0,0,0-2.493-.66,2.5,2.5,0,0,0-1.694-2.22c-0.791-.28-0.286-0.81-0.493-1.59a2.985,2.985,0,0,0-.862-1.4c-0.538-.49-0.705-0.22-0.516-1a3.008,3.008,0,0,0-.1-1.76c-0.024-.34.876-0.73,1.142-1.02a3.778,3.778,0,0,0,.894-1.7,2.082,2.082,0,0,1,1.433-2.66,3.7,3.7,0,0,0,.593-1.81,1.322,1.322,0,0,1,.7-1.48,3.667,3.667,0,0,0,1.088-3.03c-0.088-.76.527-0.79,0.992-1.38a3.48,3.48,0,0,0,.71-1.75,1.968,1.968,0,0,1,1.191-2.73,3.525,3.525,0,0,0,.455-1.83c-0.036-1.01-.127-0.79.56-1.52a3.632,3.632,0,0,0,.9-3.07c-0.137-.78,1.321-1.87,1.479-2.97a2.976,2.976,0,0,0,1.139-.25c0.844-.4.656-0.31,1.538,0.02a3.817,3.817,0,0,0,3.695-.6,3.513,3.513,0,0,0,3.287.22c0.709-.29.919-0.87,1.64-0.59a4.721,4.721,0,0,0,1.871.26c4.157-.4,3.76-7.67-1.223-6.9a5.384,5.384,0,0,0-1.23.42c-0.656.42-.4,0.64-1.181,0.32a3.135,3.135,0,0,0-2.868.25c-0.562.34-.486,0.63-1.1,0.28a3.282,3.282,0,0,0-1.251-.42c-0.98-.11-2.2.93-2.844,0.55a3.693,3.693,0,0,0,.892-2.66,3.328,3.328,0,0,0-.386-1.41,3.8,3.8,0,0,0,.811-1.23,3.84,3.84,0,0,0-.1-3.01c-0.378-.78.533-1.91,0.431-2.96a3.879,3.879,0,0,0-1.124-2.5,4.079,4.079,0,0,0-.63-3.5,4.4,4.4,0,0,0-2.309-1.72c-0.946-.27-1.545-1.3-2.637-1.6a4.4,4.4,0,0,0-3.013.19,3.78,3.78,0,0,0-1.107.71,2.079,2.079,0,0,1-1.478.68,4.216,4.216,0,0,0-2.483,1.66,3.888,3.888,0,0,0-.576,1.25c-0.17.67-.7,0.62-1.249,1.02a3.888,3.888,0,0,0-1.522,2.47c-0.105.65,0.168,0.86-.392,1.23a3.811,3.811,0,0,0-1.544,4.13,3.629,3.629,0,0,0-1.463,2.18,2.985,2.985,0,0,0-1.586-.8,3.533,3.533,0,0,0-1.076.04,3.658,3.658,0,0,0-.613-1.11,2.977,2.977,0,0,0-2.072-1.04c-0.914-.07-0.782-0.96-1.411-1.66a3.19,3.19,0,0,0-4.881.24,3.421,3.421,0,0,0,.088,4.84,3.269,3.269,0,0,0,1.565.88,3.147,3.147,0,0,0,.807.1,3.461,3.461,0,0,0,2.32,2.35,3,3,0,0,0,.937.17c0.735,0.02.525,0.24,0.963,0.79a3.654,3.654,0,0,0,1.557,1.14c0.716,0.27,1.708-.13,2.105.45,0.528,0.77.468,0.52,0.057,1.36a3.655,3.655,0,0,0-.319,2.27c0.144,0.74.672,1.04,0.247,1.67a3.614,3.614,0,0,0-.586,2.26,3.023,3.023,0,0,1-.2,3.94,3.549,3.549,0,0,0,.433,1.83c0.375,0.68-.373,1.3-0.485,2.12a3.639,3.639,0,0,0,.458,2.32c0.394,0.66-.329,1.32-0.41,2.15a3.61,3.61,0,0,0,.316,1.89,3.562,3.562,0,0,0,.515.8,3.462,3.462,0,0,0-.54,1.33,3.677,3.677,0,0,0,.61,2.79c0.435,0.6.121,0.57-.057,1.26a3.71,3.71,0,0,0,.041,1.98,3.552,3.552,0,0,0,.42.9c0.383,0.6.149,0.7,0.126,1.39-0.027.8-.568,0.63-1.152,1.13a3.473,3.473,0,0,0-1.1,1.86c-0.213.93-.043,0.73-0.892,1.18a3.24,3.24,0,0,0-1.458,1.5c-0.278.63-.024,1.17-0.73,1.3a3.144,3.144,0,0,0-1.8,1.06c-0.541.65-.262,1.32-1.138,1.31a2.643,2.643,0,0,0-2.022.8,3.281,3.281,0,0,0-.523.77,3.826,3.826,0,0,0-1.214-.46,2.359,2.359,0,0,0-1.83.65,1.983,1.983,0,0,0-2.227-1.19,2.515,2.515,0,0,0-1.54-2.75,3.123,3.123,0,0,0-.842-3.69,3.35,3.35,0,0,0-.056-3.68c-0.417-.61.117-0.85,0.313-1.54a3.389,3.389,0,0,0-.146-2.19c-0.366-.9-0.39-0.66.044-1.53a3.29,3.29,0,0,0,.341-1.39,3.807,3.807,0,0,0,1.283-1.25c0.405-.67.327-1.54,1-1.87a4.038,4.038,0,0,0,2.107-2.91c0.077-.61-0.226-1.17.258-1.55a3.582,3.582,0,0,0,1.153-1.63,5.966,5.966,0,0,0-2.075-6.2c-2.088-1.52-5.292-.3-6.359,1.9a3.52,3.52,0,0,0-.354,1.61,3.7,3.7,0,0,0-1.377,1.18,4.06,4.06,0,0,0-.742,1.88,3.734,3.734,0,0,0,.026,1.05c0.124,0.73-.047.54-0.473,1.09a3.764,3.764,0,0,0-.726,1.57c-0.153.72,0.186,1.13-.5,1.45a2.8,2.8,0,0,0-1.238,1.29,2.9,2.9,0,0,0-1.693-.44,3.618,3.618,0,0,0-.036-1.7,3.694,3.694,0,0,0,.9-0.82,3.758,3.758,0,0,0,.7-3.1c-0.185-.81.946-1.72,1.115-2.7,0.187-.96-0.606-2.31-0.253-3a4.5,4.5,0,0,0-1.428-5.39,4.149,4.149,0,0,0-1.2-.64c-0.609-.19-1.047-0.6-1.662-0.82a4.529,4.529,0,0,0-3.461.27,4.319,4.319,0,0,0-1.969,1.93,3.543,3.543,0,0,0-.314,1.08,3.874,3.874,0,0,0-1.542,1.14,3.99,3.99,0,0,0-.915,3.1c0.117,0.77-1.086,1.71-1.275,2.66-0.19.9,0.5,2.23,0.077,2.85a3.986,3.986,0,0,0-.564,3.13,4.2,4.2,0,0,0,.573,1.35c0.406,0.62.013,1.18,0.117,1.93a4.306,4.306,0,0,0,1.662,2.91,3.3,3.3,0,0,0-1.376,2.19c-0.1.65,0.194,0.77-.443,1.06a3.282,3.282,0,0,0-1.358,1.11,3.321,3.321,0,0,0-.54,1.2c-0.212.95-.06,0.75-0.918,1.19a3.33,3.33,0,0,0-1.746,2.39c-0.119.69-.295,0.42-0.9,0.65a3.239,3.239,0,0,0-1.356,1.01,3.281,3.281,0,0,0-.565,1.13c-0.2.71-.952,0.43-1.614,0.75a2.737,2.737,0,0,0-1,.79c-0.463.58-.248,1.07-1.048,0.96a2.325,2.325,0,0,0-2.463,1.1,2.421,2.421,0,0,0-3.17-.4,2.356,2.356,0,0,0-2.321-1.6,2.647,2.647,0,0,0-1.095-2.62,3.664,3.664,0,0,0,.251-2.1c-0.18-.95-0.276-0.79.224-1.59a3.773,3.773,0,0,0,.241-3.53c-0.322-.7.242-0.96,0.465-1.69a3.768,3.768,0,0,0,.06-1.96,3.421,3.421,0,0,0-.608-1.28,3.222,3.222,0,0,0,.658-1.47,4.022,4.022,0,0,0-1.1-3.51,3.865,3.865,0,0,0-.229-2.79h0.007c1.449-3.1-.517-3.92-1.089-5.25a4.443,4.443,0,0,0-3.982-2.56c-0.8-.01-1.349.43-2.051,0.13a4.185,4.185,0,0,0-2.956-.13c-0.855.27-1.552,1.34-2.323,1.28a3.875,3.875,0,0,0-2.61.74,3.539,3.539,0,0,0-1.318,1.72,3.78,3.78,0,0,0-3.644,3.09,3.7,3.7,0,0,0-2.473,1.62c-0.471.72-.356,1.73-1.072,2.04a3.737,3.737,0,0,0-2,2.17,3.5,3.5,0,0,0-.189,1.46,3.353,3.353,0,0,0-1.156.75,4.072,4.072,0,0,0-1.076,1.87,3.315,3.315,0,0,1-1.071,1.7c-0.729.77-.782,2.23-1.419,2.53a3.075,3.075,0,0,0-1.762,2.49c-0.074.8-.127,0.49-0.8,0.77a2.9,2.9,0,0,0-1.213.98,2.708,2.708,0,0,0-.462,1.08c-0.144.73-.843,0.35-1.5,0.66a2.6,2.6,0,0,0-1.038.86,3.94,3.94,0,0,0-.424.87,2.5,2.5,0,0,0-.931-0.21,2.606,2.606,0,0,0-1.23.25c-0.678.37-.661,1.08-1.39,0.63a1.873,1.873,0,0,0-2.344.14c-0.217-1.04-.217-1.21-1.357-1.53a2.508,2.508,0,0,0,.12-2.15,3.35,3.35,0,0,0-.521-0.85c-0.528-.62-0.23-0.45.011-1.15a3.252,3.252,0,0,0-.044-2.17,3.453,3.453,0,0,0-.721-1.16,3.384,3.384,0,0,0,.5-1.32,3.7,3.7,0,0,0-.358-2.21,3.622,3.622,0,0,0-.763-1.03,3.338,3.338,0,0,0,.246-1.3,4.144,4.144,0,0,0-.772-2.31c-0.508-.73-1.644-1.1-1.909-1.83a4.215,4.215,0,0,0-4-2.59,3.3,3.3,0,0,0-1.034.16c-0.683.24-.629-0.03-1.3-0.25a4.336,4.336,0,0,0-3.067.24,3.459,3.459,0,0,0-1.647,1.53,3.91,3.91,0,0,0-2.642.98,3.8,3.8,0,0,0-1.174,1.9c-0.158.68-1.309,0.91-1.85,1.49,0.059-.62-0.154-0.59.433-0.92a3.787,3.787,0,0,0,1.075-.93,5.65,5.65,0,0,1,2.658-4.73,3.571,3.571,0,0,0,.229-1.4c-0.028-.76.588-0.75,1.092-1.3a3.637,3.637,0,0,0,.937-2.64c-0.049-.78,1.19-1.29,1.586-2.13,0.393-.82.053-2.12,0.684-2.56a3.6,3.6,0,0,0,1.529-2.84c0.019-.69-0.287-0.76.3-1.19a3.5,3.5,0,0,0,.949-1.05,5.584,5.584,0,0,1,2.073-5,3.559,3.559,0,0,0,.073-1.42c-0.117-.76.487-0.81,0.925-1.43a3.632,3.632,0,0,0,.616-2.75c-0.138-.76,1.015-1.46,1.309-2.33,0.293-.89-0.242-2.13.334-2.68a3.684,3.684,0,0,0,1.087-3.11c-0.094-.7-0.4-0.71.1-1.25a3.629,3.629,0,0,0,.75-1.25,3.769,3.769,0,0,0-.159-2.91,3.828,3.828,0,0,0,1.07-2.79,3.748,3.748,0,0,0-.363-1.51c-0.343-.72.112-0.9,0.286-1.66a4.253,4.253,0,0,0-1.377-4.17,4.742,4.742,0,0,0-.146-1.27,4.352,4.352,0,0,0-4.977-3.02c-0.7.19-1.6-.43-2.411-0.48a4.252,4.252,0,0,0-2.563.73,3.98,3.98,0,0,0-1.054,1c-0.4.59-.521,0.38-1.185,0.6a4.277,4.277,0,0,0-2.52,2.23,3.579,3.579,0,0,0-.3,1.29,3.5,3.5,0,0,0-1.134.63,3.992,3.992,0,0,0-1.394,2.49c-0.089.62,0.211,0.84-.338,1.2a3.564,3.564,0,0,0-.9.86,3.734,3.734,0,0,0-.62,3.17,3.66,3.66,0,0,0-1.5,1.89c-0.317.89,0.208,2.15-.377,2.7a3.68,3.68,0,0,0-1.134,2.62,3.577,3.577,0,0,0,.267,1.4,16.157,16.157,0,0,1-2.289,6.87,3.6,3.6,0,0,0,.191,1.41c0.237,0.69-.053.58-0.422,1.17a3.648,3.648,0,0,0-.324,3.23c0.281,0.73-.731,1.61-0.857,2.53-0.116.9,0.615,2.04,0.154,2.66a3.651,3.651,0,0,0-.66,2.74,3.5,3.5,0,0,0,.5,1.33,3.547,3.547,0,0,0-.859,1.68,5.946,5.946,0,0,1-.266,5.51,3.74,3.74,0,0,0,.442,1.39c0.364,0.64.073,0.6-.2,1.24a3.481,3.481,0,0,0,.2,3.12c0.386,0.65-.492,1.64-0.5,2.53a3.423,3.423,0,0,0,.238,1.28c0.24,0.61.042,0.46-.244,1.04a3.364,3.364,0,0,0-.348,1.31c-0.041.72-.253,0.49-0.823,0.84a3.424,3.424,0,0,0-1.63,2.6c-0.066.75-1.343,0.95-1.89,1.64-0.515.68-.5,1.96-1.189,2.17a3.447,3.447,0,0,0-1.984,1.63,3.493,3.493,0,0,0-.37,1.27,3.138,3.138,0,0,0-1.63.5,3.247,3.247,0,0,0-1.4,2.05,3.08,3.08,0,0,0-2.621.89,3.686,3.686,0,0,0-.666,1.05,2.971,2.971,0,0,0-1.506-.13,2.7,2.7,0,0,0-1.186.47c-0.647.45-.574,0.93-1.361,0.64a3.192,3.192,0,0,0-2.68.24c-0.644.37-.424,0.63-1.147,0.24a3.219,3.219,0,0,0-2.731-.16c-0.655.29-.475,0.61-1.085,0.07a2.991,2.991,0,0,0-3.167-.42,2.888,2.888,0,0,0-2.136-1.67c-0.734-.13-0.857.29-1.1-0.5a2.779,2.779,0,0,0-1.047-1.5,3.167,3.167,0,0,0-1.349-.52,3.523,3.523,0,0,0-.146-1.46,2.8,2.8,0,0,0-.8-1.16,4.3,4.3,0,0,0-.847-0.55,3.088,3.088,0,0,0-.679-3.29c-0.512-.51-0.058-0.57.122-1.21a2.991,2.991,0,0,0-.086-1.92c-0.276-.72-0.686-0.61-0.17-1.28a3.1,3.1,0,0,0,.663-1.9,3.468,3.468,0,0,0-.394-1.53,3.189,3.189,0,0,0,1.1-1.29,2.994,2.994,0,0,0,.315-1.43c-0.023-.69-0.406-0.87.192-1.28a3.261,3.261,0,0,0,1.4-2.8c-0.03-.81.108-0.51,0.715-0.91a3.148,3.148,0,0,0,1.142-1.29,3.67,3.67,0,0,0,.3-1.51,3.591,3.591,0,0,0,1.8-.85,3.146,3.146,0,0,0,.755-1.24c0.265-.78.375-0.39,1.111-0.56a2.181,2.181,0,0,0,1.249-.56c0.577-.48.555-1.2,1.319-0.97a2.761,2.761,0,0,0,2.917-.86,2.3,2.3,0,0,0,2.764.48c0.116,0.82.768,1.51,0.084,2.11a3.732,3.732,0,0,0-1.226,2.63,3.653,3.653,0,0,0,.242,1.45,3.434,3.434,0,0,0-.808.91,3.823,3.823,0,0,0-.362,3.2c0.261,0.77-.605,1.51-0.748,2.41a4.3,4.3,0,0,0,.557,2.87c0.448,0.74.042,1.68,0.357,2.57a4.377,4.377,0,0,0,2.057,2.38,4.077,4.077,0,0,0,3.662.15c0.832-.38,1.323-1.11,2.1-1.5a4.663,4.663,0,0,0,2.188-2.28,6.834,6.834,0,0,1,1.333-5.23c0.124-1.04-.713-2.2-0.312-2.98a3.988,3.988,0,0,0,.057-3.41,3.6,3.6,0,0,0-.751-1.08,3.447,3.447,0,0,0,.27-1.58,4.207,4.207,0,0,0-1.273-2.78c-0.43-.41-0.712-0.35-0.768-0.95a3.851,3.851,0,0,0-.332-1.24,4.565,4.565,0,0,0-2.189-2.16,3.881,3.881,0,0,0-1.535-.33,3.748,3.748,0,0,0-.922-0.97,4.433,4.433,0,0,0-2.746-.85c-0.819.03-1.7,0.77-2.358,0.49a3.952,3.952,0,0,0-3.262.09,3.337,3.337,0,0,0-1.13.8c-0.459.5-.513,0.26-1.171,0.28a4.04,4.04,0,0,0-2.582,1.08,3.15,3.15,0,0,0-.806,1.09c-0.278.59-.431,0.38-1.03,0.56a3.929,3.929,0,0,0-2.361,2.03,3.572,3.572,0,0,0-.339,1.25,3.343,3.343,0,0,0-1.165.54,3.908,3.908,0,0,0-1.545,2.4c-0.117.64,0.155,0.86-.424,1.2a3.59,3.59,0,0,0-.947.84,3.84,3.84,0,0,0-.749,3.25,3.756,3.756,0,0,0-1.685,3.54,3.986,3.986,0,0,0,.23.97,3.31,3.31,0,0,0-.789.98,3.976,3.976,0,0,0-.456,2.32,3.641,3.641,0,0,0,.245,1.01c0.285,0.7.084,0.56-.211,1.21a4.007,4.007,0,0,0-.292,2.25,3.888,3.888,0,0,0,.951,1.97,3.822,3.822,0,0,0-.183,2.64,3.886,3.886,0,0,0,.868,1.6,4.329,4.329,0,0,0,.663.57,3.237,3.237,0,0,0,.032,1.58,4.119,4.119,0,0,0,1.3,2.14,3.267,3.267,0,0,0,.742.5c0.6,0.3.384,0.42,0.569,1.04a71.863,71.863,0,0,0,7.078,5.27,1.484,1.484,0,0,1,1.482.55,4.07,4.07,0,0,0,2.228.88c0.807,0.05,1.8-.56,2.412-0.18a4.021,4.021,0,0,0,2.107.6,4.585,4.585,0,0,1,4.773-.32,3.774,3.774,0,0,0,1.968-.88c0.532-.47,1.569.05,2.359-0.11a3.84,3.84,0,0,0,2.049-1.09,4.24,4.24,0,0,0,.529-0.68,3.22,3.22,0,0,0,1.541-.08,3.832,3.832,0,0,0,2.012-1.28,3.728,3.728,0,0,0,.469-0.72c0.3-.58.545-0.36,1.149-0.54a3.782,3.782,0,0,0,2.057-1.52,3.571,3.571,0,0,0,.447-0.89c0.246-.71.42-0.45,1.068-0.74a3.853,3.853,0,0,0,1.818-1.69,3.576,3.576,0,0,0,.319-0.93c0.151-.74.431-0.51,1.058-0.86a3.82,3.82,0,0,0,.456,1.05,3.527,3.527,0,0,0-.743,1.16,3.439,3.439,0,0,0-.075,2.27,3.754,3.754,0,0,0,.39.84,3.418,3.418,0,0,0-.74,1.14,3.623,3.623,0,0,0-.085,2.28,3.687,3.687,0,0,0,.346.83,3.49,3.49,0,0,0-.809,1.11,3.381,3.381,0,0,0-.2,2.24,3.44,3.44,0,0,0,.342.85,3.287,3.287,0,0,0-.787,1.05,2.457,2.457,0,0,0-.279.9c-0.089,2.04,1.917,1.74,2.578,1.48a3.122,3.122,0,0,0,2.932.33c1.037-.56.874-2.33,1.388-2.83a3.288,3.288,0,0,0,.884-3.18c-0.211-.82-0.021-0.54.477-1.14a3.291,3.291,0,0,0,.759-2.27,3.333,3.333,0,0,0-.243-1.09,3.463,3.463,0,0,0,.954-0.93,3.3,3.3,0,0,0,.508-2.44c-0.166-.89.639-1,1.079-1.8a3.3,3.3,0,0,0,.245-2.57,3.344,3.344,0,0,0,1.49-1.56c0.341-.77-0.054-1.97.567-2.34a3.161,3.161,0,0,0,1.4-1.69,3.119,3.119,0,0,0,.162-1.04c-0.006-.8.107-0.51,0.733-0.88a2.9,2.9,0,0,0,1.323-1.7,3.419,3.419,0,0,0,.116-1,3.331,3.331,0,0,0,1.371-.42,2.49,2.49,0,0,0,1.13-1.75,1.985,1.985,0,0,0,2.479-.61,2.25,2.25,0,0,0,1.778,1.14c-0.256.76,0.909,2.05,1.175,2.23a3,3,0,0,0-.458,1.42,3.226,3.226,0,0,0,.671,2.08c0.436,0.57-.349,1.65-0.278,2.52a3.573,3.573,0,0,0,.977,2.15,3.648,3.648,0,0,0-.208,2.96,3.933,3.933,0,0,0,1.382,1.88,3.725,3.725,0,0,0,.7,2.63,4.745,4.745,0,0,0,1.9,1.55,5,5,0,0,0,1.141.28,2.13,2.13,0,0,1,1.335.71,4.034,4.034,0,0,0,4.4.06c0.584-.37,1.357.14,2.123,0.08a3.832,3.832,0,0,0,2.553-1.13,4.338,4.338,0,0,0,.542-0.69,3.207,3.207,0,0,0,1.566-.15,3.819,3.819,0,0,0,2.138-1.74c0.317,0.52-.275,1.42-0.271,2.11a4.532,4.532,0,0,0,.779,2.49,3.63,3.63,0,0,0,.706.75c0.565,0.45.32,0.62,0.528,1.3a4.413,4.413,0,0,0,1.609,2.26,4.056,4.056,0,0,0,2.191.8c0.848,0.04,1.513,1.17,2.453,1.43a4.154,4.154,0,0,0,2.008.15,4.111,4.111,0,0,0,1.264-.49,3.472,3.472,0,0,0,1.415.57,4.37,4.37,0,0,0,2.347-.22,3.754,3.754,0,0,0,.742-0.49c0.525-.43.671-0.11,1.317-0.01a3.655,3.655,0,0,0,2.494-.54,4.044,4.044,0,0,0,1.031-.87c0.41-.48.528-0.26,1.131-0.34a4.324,4.324,0,0,0,2.165-.94c0.686-.6.883-1.81,1.659-2.03a4,4,0,0,0,2.74-3.8c0.337,0.13.836,1.67,1.207,2.09a4.319,4.319,0,0,0,3.192,1.29c0.854-.05,1.595.93,2.546,1.17a4.114,4.114,0,0,0,2.938-.37c0.665-.35,1.954.26,2.846,0.07a10.754,10.754,0,0,1,5.544-2.91,3.656,3.656,0,0,0,.8-1.03c0.444-.84.366-0.66,1.268-1a3.758,3.758,0,0,0,2.133-2.07c0.269-.66.01-0.83,0.712-1.07a3.694,3.694,0,0,0,1.615-1.11,3.808,3.808,0,0,0,.707-1.31,3.436,3.436,0,0,0,.148-0.96,3.56,3.56,0,0,0,.885-0.37,3.692,3.692,0,0,0,1.745-2.82c0.058-.79,1.357-1.2,1.857-1.99a3.8,3.8,0,0,0,.5-1.45c0.1-.83.641-0.45,1.37-0.7,0.56-.2.53-0.47,1.071-0.14a2.976,2.976,0,0,0,1.382.46,4.148,4.148,0,0,0,2.888-.82,3.714,3.714,0,0,0,.169,2.33c0.273,0.65.595,0.58,0.257,1.25a3.527,3.527,0,0,0-.384,1.42,3.8,3.8,0,0,0,.7,2.39c0.489,0.67-.2,1.92.017,2.9a3.806,3.806,0,0,0,1.077,1.94c0.541,0.53.181,1.77,0.521,2.59a4.3,4.3,0,0,0,1.754,2.06c0.588,0.35.662,0.16,0.927,0.82a3.916,3.916,0,0,0,.827,1.24,4.477,4.477,0,0,0,2.026,1.17c0.909,0.25,1.922-.22,2.634.23a4.215,4.215,0,0,0,2.984.54c0.927-.17,1.755-1.18,2.556-1.06a4.014,4.014,0,0,0,4.22-2.37,3.79,3.79,0,0,0,2.756-1.26c0.536-.6.653-1.8,1.331-2a3.849,3.849,0,0,0,1.726-1.16c0.5-.55.677-2.23,1.143-2.41a3.8,3.8,0,0,0,1.088,1.05c0.605,0.39.371,0.46,0.54,1.13a4.134,4.134,0,0,0,1.615,2.31,5.392,5.392,0,0,1,3.786,2.55,4.068,4.068,0,0,0,2.964.3c0.771-.24,1.677.6,2.6,0.65a3.864,3.864,0,0,0,2.137-.45c0.588-.34.435-0.56,1.118-0.3a3.633,3.633,0,0,0,1.494.24,3.816,3.816,0,0,0,2.351-1.01c0.493-.49,1.876.02,2.7-0.21a3.694,3.694,0,0,0,1.939-1.45,3.57,3.57,0,0,0,2.786-.3c0.746-.4,1.142-1.41,1.9-1.35a3.611,3.611,0,0,0,2.6-.85,4.3,4.3,0,0,0,2.526,2.31c0.675,0.25,1.213-.01,1.651.55a3.736,3.736,0,0,0,1.523,1.17,4.124,4.124,0,0,0,1.928.35c0.7-.04,1.08-0.47,1.668-0.08a4.329,4.329,0,0,0,4.369-.12c0.517-.28,1.233.15,1.855,0.15a22.78,22.78,0,0,1,6.821-2.85c0.51-.53.409-1.01,1.162-1.08a3.641,3.641,0,0,0,2.291-1.08,3.837,3.837,0,0,0,.987-1.73,3.25,3.25,0,0,0,1.829-.71,3.774,3.774,0,0,0,1.263-1.56,3.173,3.173,0,0,0,.228-0.96,3.7,3.7,0,0,0,.915-0.32,3.628,3.628,0,0,0,2.016-3.21,3.573,3.573,0,0,0,2.586-3.06,4.148,4.148,0,0,0,3.224.09,1.762,1.762,0,0,1,1.669,0,3.838,3.838,0,0,0,2.1-.1,3.731,3.731,0,0,0,.372,1.45c0.334,0.67.029,0.6-.239,1.27a3.858,3.858,0,0,0,.091,3.02c0.312,0.67.611,0.58,0.34,1.3a3.689,3.689,0,0,0-.217,1.58,3.951,3.951,0,0,0,1.545,2.87,27.613,27.613,0,0,0,5.2,6.96,4.731,4.731,0,0,0,1.565.41c0.711,0.01,1.2-.33,1.777.09a4.076,4.076,0,0,0,2.75.73c0.924-.1,1.914-1.02,2.682-0.83a3.981,3.981,0,0,0,2.847-.4,3.9,3.9,0,0,0,1.094-.87,1.437,1.437,0,0,1,1.343-.79,3.892,3.892,0,0,0,2.3-1.32,3.619,3.619,0,0,0,.637-1.1c0.232-.65.939-0.51,1.538-0.86a3.8,3.8,0,0,0,1.788-2.36c0.2-.82,1.68-1.11,2.267-1.95a3.761,3.761,0,0,0,1.669,1.81,3.631,3.631,0,0,0,.707,2.59,3.9,3.9,0,0,0,2.287,1.57,4,4,0,0,0,2.157,2.61c0.864,0.42,2.115.13,2.728,0.71a4.084,4.084,0,0,0,2.754,1.1c0.959,0.02,1.913-.77,2.675-0.45a3.854,3.854,0,0,0,3.5-.23,3.8,3.8,0,0,0,1.022-.83,3.521,3.521,0,0,0,1.581.06,3.881,3.881,0,0,0,2.506-1.5c0.359-.48.241-0.69,0.848-0.75,0.632-.06.4,0.19,0.6,0.73a4.369,4.369,0,0,0,2.1,2.31,3.528,3.528,0,0,0,1.181.37,1.415,1.415,0,0,1,.939.72,4.272,4.272,0,0,0,2.58,1.18c0.909,0.09,1.986-.63,2.681-0.28a4.06,4.06,0,0,0,3.169.16,4.334,4.334,0,0,0,1.154-.7c0.508-.43.683-0.11,1.328-0.09a3.953,3.953,0,0,0,2.768-.98,3.8,3.8,0,0,0,.8-1,3.4,3.4,0,0,0,1.518-.13,3.829,3.829,0,0,0,2.371-2.07c0.283-.62,1.8-0.78,2.467-1.33a3.626,3.626,0,0,0,1.2-2.19c0.61-.09.814-0.49,1.307-0.11a3.565,3.565,0,0,0,1.076,4.26,3.524,3.524,0,0,0-.275,1.17,3.6,3.6,0,0,0-.883.88c-0.371.54-.14,0.72-0.84,0.73a3.346,3.346,0,0,0-1.321.28,3.415,3.415,0,0,0-1.849,1.94,3.473,3.473,0,0,0-3.012,1.11,1.612,1.612,0,0,1-2.169,1.34,3.426,3.426,0,0,0-2.13,1.88c-0.333.72-1.7,0.62-2.447,1.17-0.77.55-1.059,1.89-1.815,2.05a3.892,3.892,0,0,0-2.319,1.49,3.1,3.1,0,0,0-.549,1.08c-0.175.64-.427,0.44-1.006,0.72a4,4,0,0,0-2.016,2.2c-0.208.61,0.059,0.88-.543,1.16a3.822,3.822,0,0,0-1.351,1.03,3.454,3.454,0,0,0-.888,2.41c0.016,0.72-1.122,1.19-1.534,1.88a3.9,3.9,0,0,0-.331,2.97,3.6,3.6,0,0,0-1.444,2.65,3.651,3.651,0,0,0,.127,1.51c0.233,0.74.045,0.58-.3,1.22a4.009,4.009,0,0,0-.363,2.72,4.144,4.144,0,0,0,.524,1.23c0.35,0.56.038,0.71-.086,1.34a3.976,3.976,0,0,0,.855,3.3c0.481,0.55.63,0.35,0.561,1.11a3.722,3.722,0,0,0,.242,1.62,3.991,3.991,0,0,0,1.851,2.15c0.672,0.36.666,1.6,1.193,2.28a3.781,3.781,0,0,0,2.772,1.52,3.869,3.869,0,0,0,4.373,2.48,3.614,3.614,0,0,0,2.14,1.52c0.973,0.27,2.312-.37,2.967.12a3.716,3.716,0,0,0,2.994.65,3.467,3.467,0,0,0,1.376-.58,3.9,3.9,0,0,0,1.353.58,3.732,3.732,0,0,0,2.934-.61c0.7-.5,2.277.24,3.346-0.13,0.908-.3,1.382-1.29,2.254-1.18a3.919,3.919,0,0,0,2.931-.92,4.125,4.125,0,0,0,.876-1.06c0.321-.55.488-0.37,1.073-0.54a4.136,4.136,0,0,0,2.5-2.16,3.138,3.138,0,0,0,.335-1.33,3.867,3.867,0,0,0,1.175-.71,4.237,4.237,0,0,0,1.278-2.52,4.348,4.348,0,0,0-.072-1.33,4.157,4.157,0,0,0,.868-0.98,3.965,3.965,0,0,0,.384-3.4c-0.29-.76.278-1.01,0.519-1.8a3.886,3.886,0,0,0-.122-2.57,3.379,3.379,0,0,0-.513-0.85,3.1,3.1,0,0,0,.424-0.91,3.989,3.989,0,0,0-.091-2.4,3.35,3.35,0,0,0-.908-1.34,3.562,3.562,0,0,0,.293-2.38,3.665,3.665,0,0,0-1.221-2.02,3.6,3.6,0,0,0-.717-3.96c-0.545-.54,0-1.33-0.109-2.15a3.538,3.538,0,0,0-.722-1.73,3.473,3.473,0,0,0-.67-0.64,3.538,3.538,0,0,0-.813-3.9c-0.519-.49-0.2-0.52-0.118-1.19a3.563,3.563,0,0,0-.476-2.26,3.449,3.449,0,0,0-.578-0.72c-0.523-.5-0.205-0.52-0.118-1.2a3.522,3.522,0,0,0-.233-1.74c0.646-.54.82-1.58,1.582-1.65a38.284,38.284,0,0,1,6.441-4.82c0.284-.7,1.243-0.54,1.939-0.97a3.607,3.607,0,0,0,1.488-1.83c0.254-.73.818-0.48,1.5-0.81a3.627,3.627,0,0,0,1.665-1.7,1.358,1.358,0,0,1,1.208-1.13,3.612,3.612,0,0,0,1.818-1.58c0.379-.66.194-1.24,0.923-1.48a3.732,3.732,0,0,0,1.946-1.52c0.428-.67.354-1.8,1-2.1a3.9,3.9,0,0,0,1.654-1.64C982.273,5778.4,975.454,5776.2,973.541,5779.79Zm-337.4-14.5c0.24-.11.481-0.23,0.72-0.35a2.594,2.594,0,0,0,.308,2.31c-0.8.42-1.578,0.86-2.358,1.31A2.759,2.759,0,0,1,636.142,5765.29Zm-3.19,10.82c-0.007.15-.013,0.26,0-0.01,0.021-.45.013-0.22,0-0.02,0.128-2.3,3.254-3.75,5-4.78,0.519,0.92-.054.97-0.375,1.92-0.187.55,0.079,0.79-.407,1.13-0.445.32-.884,0.65-1.3,1a12.017,12.017,0,0,0-2.4,2.58A3.053,3.053,0,0,1,632.952,5776.11Zm5.634,6.43c-1.809,1.31-4.621-.23-4.8-2.38s2.351-3.97,3.87-5.11c0.28,0.78,0,.63-0.531,1.22a1.526,1.526,0,0,0-.136,2.08c-1.461,1.8-.457,3.42,1.594,4.19h0Zm-0.414-1.32c-1.118-.27-1.235-1.5-0.567-2.36,0.088,0.07-.107-0.06,0,0,1.22,0.95,3.783-.67,4.821-1.36C643.149,5780.1,640.386,5781.75,638.172,5781.22Zm4.248-4.85a13.166,13.166,0,0,1-2.977,1.67,7.286,7.286,0,0,1-1.082.19c-0.279-.07-1.126-0.36-1.013-0.97,0.183-.98,1.223-1.07,1.965-1.5a17.592,17.592,0,0,0,3.86-3.06A2.866,2.866,0,0,1,642.42,5776.37Zm1.18-6.82c0.206,2.51-3.164,4.5-5,5.67-0.88-1.68.473-2.83,1.554-3.89a21.092,21.092,0,0,0,2.761-3.42A2.835,2.835,0,0,1,643.6,5769.55Zm-2.145-6.4c3.434,2.16-.679,6.47-2.513,8.18-1.328-1.67.124-3.06,0.952-4.47A12.151,12.151,0,0,0,641.455,5763.15Zm-3.461-4.13c2.256,0.14,2.932,2.48,2.45,4.32a12.92,12.92,0,0,1-1.954,4.13c-1.718-1.32-.433-3.14-0.174-4.79C638.383,5762.25,638.484,5759.02,637.994,5759.02Zm-0.468,11.05c0.052,0.6.049,0.44-.477,0.76-0.473.28-.938,0.57-1.4,0.88q-0.96.63-1.871,1.32a2.79,2.79,0,0,1,1.041-3.43c0.782-.48,1.576-0.94,2.384-1.37C638.583,5767.49,637.455,5769.22,637.526,5770.07Zm-2.835-12.91c3.027,0.46,3.176,4.7,2.441,6.99-1.6-.35-1.42-1.86-1.806-3.12a7.956,7.956,0,0,0-2.631-3.58A3.007,3.007,0,0,1,634.691,5757.16Zm-5.318.18c1.549-.46,2.975.94,3.933,1.97,0.36,0.39,1.861,2.24,1.526,2.83-1.56.72-2.6-.93-3.637-1.81a12.218,12.218,0,0,0-3.43-2.09A3.052,3.052,0,0,1,629.373,5757.34Zm-5.819,2.75c1.973-3.03,6.265-.04,8.051,1.73-1.286,1.25-2.586.42-3.913-.18a13.341,13.341,0,0,0-4.335-1.15C623.423,5760.35,623.49,5760.22,623.554,5760.09Zm-0.036,1.36a14.36,14.36,0,0,1,2.512.5,10.822,10.822,0,0,0,2.045.78c-0.821,1.6-2.4,1.23-3.845,1.02a15.866,15.866,0,0,0-4.46-.02C619.977,5761.79,621.922,5761.28,623.518,5761.45Zm-5.238,3.64c1.578-1.04,4.83-.77,6.612-0.4-0.57,2.05-2.364,1.88-4.07,2.05a26.538,26.538,0,0,0-3.853.8A2.838,2.838,0,0,1,618.28,5765.09Zm-1.592,3.48a22.918,22.918,0,0,1,5.5-1.09c-0.088,2.17-2.017,2.36-3.657,2.84a36.926,36.926,0,0,0-3.685,1.37A2.784,2.784,0,0,1,616.688,5768.57Zm-1.973,4.18a30.99,30.99,0,0,1,5.271-1.94c0.28,1.96-1.284,2.57-2.731,3.2a32.159,32.159,0,0,0-3.927,2.08A2.788,2.788,0,0,1,614.715,5772.75Zm-1.378,4.41a37.506,37.506,0,0,1,4.958-2.67c0.679,2.12-1.3,2.9-2.682,3.83a29.977,29.977,0,0,0-3.156,2.4A2.857,2.857,0,0,1,613.337,5777.16Zm-1.444,6.72c-0.176-2.53,3.427-4.36,5.253-5.5,0.929,1.93-.847,3.03-2.05,4.14a18.069,18.069,0,0,0-2.579,3.03A2.67,2.67,0,0,1,611.893,5783.88Zm4.729-1.58c1.1,1.6,0,2.78-.892,4.07a16.971,16.971,0,0,0-2.08,3.89C610.478,5788.02,614.771,5783.81,616.622,5782.3Zm-0.741,12.3c-3.625-1.66-.445-6.36,1.041-8.44,1.321,1.08.759,2.51,0.191,3.78a15.436,15.436,0,0,0-1.052,3.53C615.991,5793.84,615.932,5794.22,615.881,5794.6Zm3.353,3.62a2.765,2.765,0,0,1-1.633-.82c-1.814-1.89-.4-5.5.469-7.57,1.669,0.78,1.265,2.44,1.054,3.89A14.853,14.853,0,0,0,619.234,5798.22Zm333.555-3a2.611,2.611,0,0,1,.827,1.34c-0.033-.13-0.059-0.25,0,0,0.068,0.29.033,0.15,0,.01a2.694,2.694,0,0,1-.146,1.66A3.321,3.321,0,0,0,952,5799a3.625,3.625,0,0,0-.808,1.1c-0.316.66-.821,0.36-1.509,0.57C950.231,5798.79,951.778,5796.91,952.789,5795.22Zm-0.407-7.82c-0.37-.85-0.929-0.91-0.606-1.79,0.2-.53,1.258-0.66,1.787-0.88A2.756,2.756,0,0,1,952.382,5787.4Zm2.538-4.78c-0.607,1.03-1.895,1.38-2.95,1.76a3.154,3.154,0,0,0-.783-2.03,26.49,26.49,0,0,0,4.034-1.97A2.788,2.788,0,0,1,954.92,5782.62Zm0.316-3.31a28.305,28.305,0,0,1-3.764,1.98,2.872,2.872,0,0,0-.028-2.3c0.512-.29,1.043-0.55,1.542-0.87a14.189,14.189,0,0,0,3.081-2.54A2.891,2.891,0,0,1,955.236,5779.31Zm0.17-4.39a13.871,13.871,0,0,1-3.957,3.12c-0.127-.28.707-1.39,0.711-1.9,0-.95-0.208-0.78.461-1.42,1.07-1.04,2.256-2.75,1.772-4.36a5.011,5.011,0,0,0-.152-0.5A3.234,3.234,0,0,1,955.406,5774.92Zm-3.767-5.89a2.537,2.537,0,0,1,1.435,3.79,1.728,1.728,0,0,1-.113.16c-0.6-2.67-4.615-1.25-5.3-.74A3.321,3.321,0,0,1,951.639,5769.03Zm-5.3,5.67c0.641-1.45,3.984-3.28,5.442-2.12,0.326,0.29.734,0.92,0.172,1.3-0.388.18-.827,0.31-1.325,0.49a14.793,14.793,0,0,0-4.3,2.66A2.87,2.87,0,0,1,946.339,5774.7Zm-0.51,4.31a0.335,0.335,0,1,1,.015-0.05,0.235,0.235,0,1,1,.031-0.05c0.844-1.74,3.528-3.2,5.249-3.87,0.795,1.6-.786,2.74-1.846,3.58a23.333,23.333,0,0,0-3.161,3.14A3.016,3.016,0,0,1,945.829,5779.01Zm0.073,5.78c-0.049-.41-0.021-0.21,0-0.03-0.254-2.33,2.873-4.68,4.514-5.94,1.119,1.97-.56,3.29-1.722,4.7-0.734.89-1.41,1.83-2.088,2.76a2.845,2.845,0,0,1-.7-1.46C945.926,5784.93,945.934,5784.99,945.9,5784.79Zm-0.075,4.97c0.374,0.66,1.74,2.04.379,2.14-0.879.06-1.764,0.08-2.647,0.1A2.5,2.5,0,0,1,945.827,5789.76Zm-20.72,3.52a4.184,4.184,0,0,0-.471-0.62l0.616-.12A2.263,2.263,0,0,1,925.107,5793.28Zm0.5-1.74-0.443.09a3.129,3.129,0,0,0-.045-2.26c0.868-.22,1.734-0.45,2.577-0.75A2.763,2.763,0,0,1,925.605,5791.54Zm2.3-3.95c-1.007.34-2,.68-3.035,0.94a3.358,3.358,0,0,0,.89-1.8c0.135-.94.2-0.77,1.15-1.13,0.915-.34,1.824-0.71,2.708-1.12A2.733,2.733,0,0,1,927.905,5787.59Zm1.816-4.15c-1.038.47-2.072,0.95-3.142,1.35-0.325.12-.65,0.23-0.974,0.35-0.284-.83-0.057-0.66.4-1.41a3.129,3.129,0,0,0,.442-1.21c0.7-.3,1.389-0.62,2.073-0.96,0.879-.44,1.73-0.91,2.578-1.39A2.746,2.746,0,0,1,929.721,5783.44Zm-3.255-1.87c-0.124-1.16-.5-0.99.14-1.91a3.612,3.612,0,0,1,1.4-1.26,9.972,9.972,0,0,0,3.9-3.24C934.117,5778.58,928.724,5780.54,926.466,5781.57ZM929,5770.01a0.832,0.832,0,0,0,.27.09,0.578,0.578,0,0,0-.119-0.06c0.135,0.05.152,0.06,0.119,0.06a3.14,3.14,0,0,1,1.883,4.38,8.452,8.452,0,0,1-3.836,3.33,2.5,2.5,0,0,1-.177-1.44,4.281,4.281,0,0,1,.727-0.73,2.36,2.36,0,0,0,.322-0.77,3.419,3.419,0,0,0,.977-2.64,3.527,3.527,0,0,0-1.649-2.22A2.868,2.868,0,0,1,929,5770.01Zm-2.519.78a2.247,2.247,0,0,1,1.466,3.42c-0.874-2.31-5.081-.23-5.427-0.05A3.194,3.194,0,0,1,926.48,5770.79Zm-4.9,5.37a0.366,0.366,0,1,1,.02-0.04,0.272,0.272,0,1,1,.026-0.03c0.868-1.24,4.605-3.12,5.68-1.84a1.137,1.137,0,0,1,.122.69c-0.47.99-1.978,1.14-3.262,1.93-0.957.6-1.858,1.29-2.773,1.95A2.81,2.81,0,0,1,921.579,5776.16Zm-0.068,3.64a25.576,25.576,0,0,1,4.624-3.03c1.173,2.8-3.625,5-5.482,6.32A2.668,2.668,0,0,1,921.511,5779.8Zm-0.737,4.29c1.529-1.09,3.059-2.19,4.6-3.27,0.845,1.79-.454,2.98-1.755,3.91-1.233.89-2.433,1.81-3.614,2.75A2.719,2.719,0,0,1,920.774,5784.09Zm-1.426,5.77c0.526-2.08,3.613-3.57,5.293-4.79,0.865,1.69-.361,2.89-1.558,3.87a28.008,28.008,0,0,0-3.369,3.14A2.843,2.843,0,0,1,919.348,5789.86Zm-1.452,3.72c-0.084.06-.154,0.11,0.028-0.04,0.1-.07.1-0.06,0.061-0.03a2.954,2.954,0,0,1,1.02-.45,3.677,3.677,0,0,0-.407,1.94c-0.478-.07-0.952-0.16-1.427-0.25A2.154,2.154,0,0,1,917.9,5793.58Zm-17.549-11.36c-0.188.04-.377,0.09-0.563,0.14a3.349,3.349,0,0,0-.893-2.03c1.141-.3,2.276-0.62,3.411-0.94A2.693,2.693,0,0,1,900.347,5782.22Zm-0.265.98a12.359,12.359,0,0,0-.327,1.4C899.533,5784.18,899.319,5783.2,900.082,5783.2Zm-6.345-.17c-0.008-.06,0-0.04,0-0.01-0.288-2.32,2.654-4.69,4.1-6.34,1.2,1.39.328,2.89-.615,4.06-0.974,1.23-1.872,2.49-2.757,3.78a2.958,2.958,0,0,1-.729-1.47C893.751,5783.1,893.757,5783.16,893.737,5783.03Zm-0.51-4.48c-0.033-.4-0.015-0.19,0-0.02-0.171-2.29,2.969-4.54,4.459-6.08,1.2,1.59.08,3.03-.992,4.22-0.988,1.1-1.924,2.24-2.842,3.4a2.723,2.723,0,0,1-.623-1.51C893.241,5778.69,893.248,5778.79,893.227,5778.55Zm5.056-6.74a3.5,3.5,0,0,0,.747-2.06c0,0.17,0,.3,0-0.05s0-.22,0-0.04c-0.022-.87-0.828-1.85-0.428-2.46a3.439,3.439,0,0,0-.085-3.87,3.88,3.88,0,0,0,.707-1.15,3.36,3.36,0,0,0-.283-2.91,5.222,5.222,0,0,1,1.674-5.05,3.446,3.446,0,0,0,.194-3.03,3.4,3.4,0,0,0,1.468-2.3,3.432,3.432,0,0,0-.161-1.67,3.5,3.5,0,0,0,1-.9,5.741,5.741,0,0,1,2.241-5.1,3.381,3.381,0,0,0,.029-1.66,3.457,3.457,0,0,0,1.095-.75,3.35,3.35,0,0,0,.9-2.8,3.247,3.247,0,0,0,1.966-1.62,3.133,3.133,0,0,0,.308-1.46c0.441-.04,1.91-0.55,2.019-1.15a2.171,2.171,0,0,1,2.864,1.96,2.678,2.678,0,0,0-.708,2.11,3.682,3.682,0,0,0,.512,1.44,3.415,3.415,0,0,0-.812.98,3.3,3.3,0,0,0-.086,2.93,3.4,3.4,0,0,0-1.439,2.3,3.679,3.679,0,0,0,.169,1.67,3.262,3.262,0,0,0-.991.91,6.456,6.456,0,0,1-2.126,5.37,3.461,3.461,0,0,0,.072,1.71,3.506,3.506,0,0,0-1.73,3.41c0.1,0.86-.055.56-0.629,1.12a3.3,3.3,0,0,0-.778,1.13,3.488,3.488,0,0,0-.265,1.7c0.082,0.86-.066.56-0.647,1.1a3.489,3.489,0,0,0-1.09,2.81c0.065,0.85-.073.56-0.664,1.08a3.481,3.481,0,0,0-1.143,2.78c0.049,0.86-.088.56-0.686,1.08a3.444,3.444,0,0,0-1.2,2.4c-0.039.65,0.253,0.75-.319,1.12a3.667,3.667,0,0,0-.925.88A3.441,3.441,0,0,0,898.283,5771.81Zm4.245,6.59-3.392.96a3.525,3.525,0,0,0-.055-2.24c1.778-.51,3.542-1.05,5.3-1.61A2.694,2.694,0,0,1,902.528,5778.4Zm2.049-3.88q-2.676.87-5.373,1.66c-0.316-2.47,2.218-2.92,3.956-3.5,1.068-.35,2.132-0.72,3.2-1.08A2.671,2.671,0,0,1,904.577,5774.52Zm1.945-3.92c-1.767.62-3.544,1.21-5.326,1.8-0.463-3.16,4.817-3.94,7.041-4.76A2.676,2.676,0,0,1,906.522,5770.6Zm1.858-3.96q-2.643.975-5.29,1.92c-0.536-3.15,4.732-4.05,6.938-4.91A2.667,2.667,0,0,1,908.38,5766.64Zm1.781-4c0,0.01.648-.26,0,0-1.77.6-3.5,1.37-5.256,2.03-0.625-3.14,4.672-4.15,6.849-5.04A2.669,2.669,0,0,1,910.161,5762.64Zm1.7-4.01c-1.737.71-3.472,1.42-5.217,2.11-0.7-3.12,4.607-4.23,6.763-5.15A2.672,2.672,0,0,1,911.863,5758.63Zm1.642-4.04q-2.589,1.11-5.184,2.19c-0.735-3.11,4.538-4.31,6.686-5.25A2.668,2.668,0,0,1,913.505,5754.59Zm1.579-4.06c-1.712.76-3.426,1.52-5.146,2.26-0.773-3.11,4.469-4.36,6.6-5.37A2.68,2.68,0,0,1,915.084,5750.53Zm1.519-4.13q-2.536,1.23-5.106,2.38c-0.515-1.97,1.054-2.86,2.525-3.55,1.335-.63,2.634-1.33,3.925-2.04A2.717,2.717,0,0,1,916.6,5746.4Zm1.335-4.25c-1.608.97-3.289,1.81-4.975,2.62-0.543-1.93.892-2.83,2.322-3.62a40.017,40.017,0,0,0,3.756-2.38A2.756,2.756,0,0,1,917.938,5742.15Zm1.969-6.42c-0.15,2.47-3.825,3.99-5.712,5.04-0.791-2.05,1.032-3.03,2.389-4.03a15.667,15.667,0,0,0,2.854-2.8A2.833,2.833,0,0,1,919.907,5735.73Zm-2.628-4.77a5.552,5.552,0,0,0,.028-2.41c4.845,1.95.075,6.7-2.269,8.25C913.846,5734.42,916.741,5733.1,917.279,5730.96Zm-4.532-4.66c-0.056.01-.082,0.01,0.045-0.01,0.112-.02.11-0.01,0.073-0.01,3.817-.34,4.348,4.34,2.418,6.68-0.4.44-.729-0.1-0.931-0.48-0.236-.44.212-1.06,0.1-1.92a6.976,6.976,0,0,0-2.544-3.96A3.133,3.133,0,0,1,912.747,5726.3Zm-5.109,1.24c-0.12.09-.208,0.14,0.082-0.07a0.2,0.2,0,1,1,.062-0.03c2.481-1.59,5.878.96,6.037,3.72,0.039,0.68-1.313.47-1.654,0.03a4.482,4.482,0,0,0-1.4-1.46,6.982,6.982,0,0,0-4.17-.66A2.884,2.884,0,0,1,907.638,5727.54Zm-1.579,2.52a12.1,12.1,0,0,1,3.4.02c0.717,0.13,2.571.8,1.3,1.66-0.938.7-2.65,0.35-3.757,0.46a31.987,31.987,0,0,0-3.363.61A2.827,2.827,0,0,1,906.059,5730.06Zm-2.721,3.76a27.015,27.015,0,0,1,5.5-.88c-0.053,2.15-2.148,2.3-3.728,2.71-1.268.3-2.512,0.69-3.748,1.09A2.731,2.731,0,0,1,903.338,5733.82Zm-3.072,4.48c1.447-1.34,4.405-1.66,6.282-2.1,0.209,1.97-1.476,2.58-2.969,3.06-1.4.45-2.774,0.98-4.141,1.53A2.717,2.717,0,0,1,900.266,5738.3Zm-1.444,3.78c1.581-1.11,3.919-1.63,5.748-2.24,0.422,2.42-2.029,2.98-3.7,3.7-1.04.45-2.064,0.92-3.091,1.39A2.733,2.733,0,0,1,898.822,5742.08Zm-1.115,3.87c1.693-.81,3.4-1.58,5.137-2.28,0.451,1.96-1.1,2.79-2.56,3.47-1.335.63-2.64,1.31-3.938,2.01A2.709,2.709,0,0,1,897.707,5745.95Zm-1.372,4.22c1.648-.9,3.308-1.76,5-2.56,0.567,1.93-.942,2.84-2.365,3.61-1.3.7-2.566,1.45-3.818,2.23A2.713,2.713,0,0,1,896.335,5750.17Zm-2.127,5.51c-0.013.03-.016,0.04,0,0h0c0.484-1.18,1.905-1.8,2.927-2.41,0.959-.58,1.934-1.12,2.916-1.65,0.671,1.89-.781,2.89-2.151,3.74-1.259.77-2.465,1.62-3.662,2.49A2.767,2.767,0,0,1,894.208,5755.68Zm-0.527,4.01c0.94-1.74,3.686-2.98,5.323-4,0.786,1.83-.582,2.91-1.879,3.85a42.9,42.9,0,0,0-3.416,2.83A2.738,2.738,0,0,1,893.681,5759.69Zm0.249,3.67c1.4-1.26,2.811-2.46,4.322-3.58,1.187,2.23-1.235,3.73-2.633,5.01-0.718.65-1.424,1.31-2.133,1.98A2.694,2.694,0,0,1,893.93,5763.36Zm-0.189,4.39c1.359-1.29,2.741-2.57,4.139-3.82,1.334,2.09-.751,3.58-2.064,4.87-0.807.78-1.605,1.58-2.4,2.39A2.7,2.7,0,0,1,893.741,5767.75Zm-0.037,4.41q1.968-2.025,4-3.97c1.129,1.66-.037,3.04-1.172,4.19-1.033,1.05-2.029,2.14-3.011,3.24A2.709,2.709,0,0,1,893.7,5772.16Zm-0.077,12.65c0.493,0.65.161,0.83,0.077,1.6-0.068.63-.643,0.45-1.225,0.54A2.586,2.586,0,0,1,893.627,5784.81Zm-1.473,3.06c0.3-.04,1.573-0.33,1.625-0.12a3.824,3.824,0,0,0,.589,1.26,6.693,6.693,0,0,0,.59.67,50.717,50.717,0,0,1-5.063.53A2.544,2.544,0,0,1,892.154,5787.87Zm-18.218-9.78a2.792,2.792,0,0,1-.882.56c-0.028-.86-0.639-1.37-0.114-2.03a10.9,10.9,0,0,0,1.889-.15A2.827,2.827,0,0,1,873.936,5778.09Zm1.351-2.65a14.03,14.03,0,0,1-1.824.25,3.469,3.469,0,0,0,.091-2.2,14.088,14.088,0,0,0,3.9-1.22A2.894,2.894,0,0,1,875.287,5775.44Zm-1.973-2.77a3.512,3.512,0,0,0,.925-1.64c0.127-.49-0.077-0.71.422-0.91a9.4,9.4,0,0,0,1.232-.6,7.185,7.185,0,0,0,2.624-2.45C880.705,5770.52,875.737,5772.24,873.314,5772.67Zm2.052-10.77a3.146,3.146,0,0,1,2.607,4.07,6.688,6.688,0,0,1-3.717,3.45c-0.164-.54-0.64-0.66-0.087-1.03a2.558,2.558,0,0,0,.8-0.74,1.257,1.257,0,0,0,.129-1.15,2.689,2.689,0,0,0-1.4-4.38A2.673,2.673,0,0,1,875.366,5761.9Zm-2.532,1.16c1.633,0.21,2.479,1.56,1.848,2.85a2.557,2.557,0,0,0-2.234-.49,7.334,7.334,0,0,0-3.142,1.37A3.177,3.177,0,0,1,872.834,5763.06Zm-3.519,4.91c1.02-.86,3.367-2.4,4.654-1.66a0.745,0.745,0,0,1,.025,1.17,14.028,14.028,0,0,1-2.708,1.8c-0.916.69-1.82,1.39-2.742,2.07A2.793,2.793,0,0,1,869.315,5767.97Zm-0.633,4.36c1.482-1.08,2.91-2.39,4.491-3.32,1.682,2.75-3.527,5.32-5.3,6.62A2.672,2.672,0,0,1,868.682,5772.33Zm3.872,0.96c1.215,2.44-1.651,3.9-3.2,5.07-0.709.53-1.393,1.1-2.087,1.65C865.726,5777.09,870.62,5774.7,872.554,5773.29Zm-3.031,6.05c0.782-.61,1.576-1.19,2.368-1.79,0.939,1.86-.5,3.08-1.8,4.12-1.112.88-2.168,1.84-3.2,2.81a2.568,2.568,0,0,1-.384-1.62C866.6,5781.22,868.375,5780.24,869.523,5779.34Zm-5.9-6.18c-0.978,1.33-3.427,1.78-4.935,2.18a2.6,2.6,0,0,0,.493-2.45,32.014,32.014,0,0,0,4.948-1.86A2.823,2.823,0,0,1,863.623,5773.16Zm-1.916,3.94a1.37,1.37,0,0,0-1.86-.15,1.937,1.937,0,0,0-.144-0.87,20.842,20.842,0,0,1,2.513-.98A2.566,2.566,0,0,1,861.707,5777.1Zm3.339-11.33a2.994,2.994,0,0,1,.468,1.53c0.123,3.2-4.2,3.93-6.564,4.75a1.423,1.423,0,0,1,.547-0.91,2.817,2.817,0,0,0,.434-1.53,21.916,21.916,0,0,1,2.133-1.04A7.287,7.287,0,0,0,865.046,5765.77Zm-4.186-4.81c0.294-.04.149-0.02,0,0,1.976-.26,4.24,1.57,3.571,3.69a6.459,6.459,0,0,1-3.894,3.75c-0.306-.67.707-1.87,0.712-1.94a3.932,3.932,0,0,0,.845-2.8,2.987,2.987,0,0,0-2.654-2.1,2.838,2.838,0,0,1,1.415-.6C860.708,5760.98,860.555,5761,860.86,5760.96Zm-1.041,1.77a1.877,1.877,0,0,1,1.538,1.6,3.775,3.775,0,0,1-.381,1.21,1.351,1.351,0,0,0-.512-0.37c-0.009,0-.015-0.01-0.024-0.01a0.07,0.07,0,0,0-.008-0.01h0a5.805,5.805,0,0,0-2.152-.18,12.563,12.563,0,0,0-2.847.9C855.117,5763.4,857.779,5762.14,859.819,5762.73Zm-4.541,4.28a7.649,7.649,0,0,1,4.862-1.23c0.044,0.02.487,0.23,0.182,0.93-0.422.85-1.648,1.12-2.471,1.49a22.606,22.606,0,0,0-3.787,2.32A2.958,2.958,0,0,1,855.278,5767.01Zm-1.5,8.45a2.978,2.978,0,0,1-.542-1.78c0,0.14-.009.23,0-0.04,0.019-.44.014-0.23,0.007-0.04,0.133-2.43,3.683-4.14,5.678-4.94,0.719,1.98-1.1,2.9-2.384,3.88A12.041,12.041,0,0,0,853.779,5775.46Zm2.567,5.23c-2.693-.6-2.6-3.55-1.362-5.34a14.066,14.066,0,0,1,3.094-2.9c1.2,2.26-1.5,3.64-1.885,5.76A6.534,6.534,0,0,0,856.346,5780.69Zm-2.016-.2c0.762,0.81,2.145.87,2.733,1.6l-0.688.15c-0.585.12-.248,0.05-0.063,0.01-1.244.25-2.473,0.46-3.733,0.62A2.551,2.551,0,0,1,854.33,5780.49Zm-24.659,9.88a0.248,0.248,0,1,1-.016.02c-0.323.24-.166,0.12-0.023,0.01a3.144,3.144,0,0,1-2.533.42c-0.009,0-.12-0.9-0.148-1a2.667,2.667,0,0,0-1.156-1.48,41.467,41.467,0,0,0,4.828.7A2.487,2.487,0,0,1,829.671,5790.37Zm3.568-2.93a0.338,0.338,0,1,1-.047.06,0.534,0.534,0,1,1-.067.04c-1.829,1.47-5.367.27-7.447-.11,0.4-1.89,2.465-1.75,3.914-1.6a40.7,40.7,0,0,0,4.416.19A2.849,2.849,0,0,1,833.239,5787.44Zm-7.914-4.89a0.62,0.62,0,1,0-.017-0.09,3.989,3.989,0,0,0-.414-1.41c-0.4-.76.124-0.79,0.407-1.56a3.267,3.267,0,0,0,.174-1.36c-0.051-.75-0.687-1.28-0.172-1.8a3.081,3.081,0,0,0,.8-2.94c-0.191-.77,0-0.51.525-0.99a2.962,2.962,0,0,0,.873-1.43,3.044,3.044,0,0,0,.027-1.52,3,3,0,0,0,1.381-.78,2.812,2.812,0,0,0,.7-1.13,3.13,3.13,0,0,0,.155-1,3.271,3.271,0,0,0,.981-0.16,2.626,2.626,0,0,0,1.141-.73c0.515-.58.333-1.28,1.144-1.15a2.451,2.451,0,0,0,2.555-1.12,1.792,1.792,0,0,0,2.395.43,1.914,1.914,0,0,0,1.12,1.78,2.389,2.389,0,0,0-.348,2.7c0.348,0.75-.181.65-0.6,1.27a3.165,3.165,0,0,0-.514,1.69,0.9,0.9,0,0,1-.583,1.52,3.519,3.519,0,0,0-.974,1.46c-0.295.83,0.186,1.37-.6,1.8a3.371,3.371,0,0,0-1.428,1.39,3.192,3.192,0,0,0-.323,1.24c-0.044.73-.634,0.53-1.226,0.91-0.913.58-1.162,2.43-1.9,2.59a3.363,3.363,0,0,0-2.44,2.23c-0.218.69-.729,0.43-1.38,0.68a2.984,2.984,0,0,0-1.163.82,3.064,3.064,0,0,0-.957-1.37,3.033,3.033,0,0,0,.66-1.88A0.578,0.578,0,1,0,825.325,5782.55Zm11.082,1.65c-1.5,1.77-5.439.91-7.5,0.7,0.432-1.87,2.216-1.97,3.772-1.95a36.17,36.17,0,0,0,4.412-.29A2.818,2.818,0,0,1,836.407,5784.2Zm1.1-2.49a26.962,26.962,0,0,1-5.6.39c0.325-1.95,1.795-2.11,3.4-2.32a32.41,32.41,0,0,0,4.482-.83A2.81,2.81,0,0,1,837.51,5781.71Zm2.541-3.79a35.448,35.448,0,0,1-5.5,1.07c-0.038-2.16,2.09-2.43,3.682-2.86a28.739,28.739,0,0,0,3.718-1.25A2.728,2.728,0,0,1,840.051,5777.92Zm2.532-4.36c-1.61,1.12-3.916,1.59-5.795,2.05-0.242-1.92,1.388-2.55,2.815-3.11a18.1,18.1,0,0,0,3.984-2.05A2.778,2.778,0,0,1,842.583,5773.56Zm-4.011-1.57c-0.454-2.07,1.276-2.72,2.647-3.69a10.558,10.558,0,0,0,2.779-2.95C846.461,5768.88,841.034,5771.06,838.572,5771.99Zm2.363-7.67a5.617,5.617,0,0,0,.389-4.1,3.06,3.06,0,0,1,1.79,1.28c-0.105-.15-0.205-0.31.045,0.06a0.436,0.436,0,1,1,.026.05c1.63,2.67-1.411,5.43-3.5,6.71C838.677,5766.59,840.252,5765.71,840.935,5764.32Zm-4.142-6.2a0.267,0.267,0,1,1,.029-0.01,0.213,0.213,0,1,1,.056,0c3.521-.39,4.614,4.05,2.976,6.53-0.371.56-.991,0.19-1.187-0.44s0.113-1.31-.014-1.96a6.8,6.8,0,0,0-2.767-3.78A3.269,3.269,0,0,1,836.793,5758.12Zm-1.374,1.18c0.568,0.42,3.33,2.93,2.448,3.75-1.263,1.17-2.619-1.22-3.774-1.94a12.225,12.225,0,0,0-3.225-1.35C832.012,5758.1,833.968,5758.23,835.419,5759.3Zm-0.386,3.53c-1.137,1.61-2.817.45-4.263,0.15a14.555,14.555,0,0,0-3.944-.38C827.749,5758.64,833.172,5761.25,835.033,5762.83Zm-8.769.73a14.311,14.311,0,0,1,5.519.57c-0.51,1.8-2.275,1.53-3.709,1.56a19.2,19.2,0,0,0-4.326.64A2.828,2.828,0,0,1,826.264,5763.56Zm-3.381,4.08c1.642-1,4.181-1.14,6.065-1.11-0.118,1.91-1.795,2.12-3.259,2.5a18.717,18.717,0,0,0-4.083,1.56A2.821,2.821,0,0,1,822.883,5767.64Zm-2.472,5.21h0c0.186-.38.048-0.1,0,0,0.963-1.99,4.357-2.71,6.318-3.2,0.332,1.91-1.331,2.52-2.694,3.19a27.347,27.347,0,0,0-3.718,2.27A2.818,2.818,0,0,1,820.411,5772.85Zm0.005,3.32s-0.548.44,0,0c0.512,0,1.981-1.39,2.456-1.7a22.269,22.269,0,0,1,2.308-1.23c0.7,1.79-.772,2.74-2,3.62a35.615,35.615,0,0,0-3.388,2.84A2.755,2.755,0,0,1,820.416,5776.17Zm-1.028,5.44c0.053-.12.052-0.11,0.037-0.06,0.841-1.79,3.305-3.32,4.871-4.43,0.98,1.67-.326,2.93-1.479,3.95a30.276,30.276,0,0,0-3.033,3.26,3.009,3.009,0,0,1-.408-2.66A0.179,0.179,0,1,1,819.388,5781.61Zm0.353,5.88c-0.422-2.42,2.546-4.91,4.22-6.32,1.056,1.74.014,2.79-1.015,4.13a18.12,18.12,0,0,0-2.31,3.74A2.482,2.482,0,0,1,819.741,5787.49Zm-0.152,3.02a2.4,2.4,0,0,1,.636-0.21,3.292,3.292,0,0,0,.276,2,7.336,7.336,0,0,1-2-.73A2.462,2.462,0,0,1,819.589,5790.51Zm-24.067-5.56c-0.427-.59-0.608-0.34-0.338-1.09a6.859,6.859,0,0,1,.243-1.18c0.616-.2,1.232-0.4,1.848-0.59A2.709,2.709,0,0,1,795.522,5784.95Zm1.948-3.86-0.722.24c-0.645.21-1.387,0.8-1.684,0.07-0.209-.5-0.822-0.9-0.58-1.38a2.433,2.433,0,0,1,1.538-.76l3.177-1.14A2.708,2.708,0,0,1,797.47,5781.09Zm-3.493-4.95a3.469,3.469,0,0,0,.61-2.59,3.564,3.564,0,0,0-.484-1.26c-0.393-.63.15-0.88,0.343-1.58a3.464,3.464,0,0,0-.341-2.65c-0.382-.66.634-1.96,0.531-2.95a3.51,3.51,0,0,0-.4-1.31c-0.342-.63-0.03-0.55.263-1.15a3.514,3.514,0,0,0-.033-3.12c-0.343-.66.59-1.58,0.662-2.47,0.058-.54.5-0.28,0.992-0.4,0.766-.19.866,0.39,1.541,0.78a3.416,3.416,0,0,0,2.862.22c0.787-.28.817,0.01,0.78,0.76a3.37,3.37,0,0,0,.148,1.19,3.312,3.312,0,0,0-.716.58,3.459,3.459,0,0,0-.9,2.88c0.13,0.85-.031.56-0.579,1.14a3.52,3.52,0,0,0-.917,1.71,1.773,1.773,0,0,1-.955,2.6,3.482,3.482,0,0,0-.626,1.36c-0.177.77,0.262,1.49-.363,1.93a3.425,3.425,0,0,0-1.387,2.3,3.779,3.779,0,0,0,.063,1.36A3.473,3.473,0,0,1,793.977,5776.14Zm-1.2,4.76c-0.964,1.21-1.856,2.47-2.708,3.76a2.826,2.826,0,0,1-.776-2.03c0.081-2.1,2.775-4.29,4.12-5.83C794.6,5778.23,793.734,5779.7,792.775,5780.9Zm-3-25.94a3.259,3.259,0,0,0,2.6.22c0.354,0.56-.773,1.1-1.257,1.5-0.576.48-1.131,0.98-1.694,1.48a2.676,2.676,0,0,1,.237-3.02C789.6,5755.19,789.576,5755.18,789.775,5754.96Zm1.11-5.65c1.927-.45,2.71,1.29,3.33,2.72a39.675,39.675,0,0,0,1.9,3.72,2.707,2.707,0,0,1-2.106-.15C792.289,5754.63,791.484,5751.08,790.885,5749.31Zm5.516-2.18a3.275,3.275,0,0,0,1.585-2.02,3.468,3.468,0,0,0-.008-1.57,3.361,3.361,0,0,0,1.354-.91,2.953,2.953,0,0,0,.636-1.21c0.19-.73-0.231-0.9.585-1.08a2.449,2.449,0,0,0,1.937-2.01,2.736,2.736,0,0,0,1.548.11,1.445,1.445,0,0,0,.213,1.05c0.372,0.61.726,0.23,0.374,0.98a2.7,2.7,0,0,0-.17,1.81,3.363,3.363,0,0,0,.7,1.35,3.217,3.217,0,0,0-.87,1.88,3.48,3.48,0,0,0,.224,1.58c0.33,0.81-.166.78-0.56,1.52a3.412,3.412,0,0,0-.021,2.99c-0.051.03-.946,0.05-1.054,0.07a3.108,3.108,0,0,0-.969.38,3.29,3.29,0,0,0-.653-0.6,3.446,3.446,0,0,0-2.757-.46c-0.789.23-.507,0.04-1.079-0.45a3.055,3.055,0,0,0-1.209-.61A3.214,3.214,0,0,0,796.4,5747.13Zm6.353,6.12c-0.114-.17-0.228-0.33-0.341-0.5a2.718,2.718,0,0,1,.688-0.23A3.65,3.65,0,0,0,802.754,5753.25Zm0.061,2.36a3.411,3.411,0,0,0-1.162,1.27,23.92,23.92,0,0,1-3.241-4.95,2.58,2.58,0,0,1,3.047.95c0.253,0.31.464,0.67,0.693,1A7.462,7.462,0,0,1,802.815,5755.61Zm-4.756-2.58a35.5,35.5,0,0,0,2.349,3.72c-2.75,1.25-3.968-2.19-4.951-4.04-0.321-.63-0.588-1.27-0.869-1.92C796.412,5750.17,797.337,5751.7,798.059,5753.03Zm-2.386-4.03a0.238,0.238,0,1,1-.011.03c-0.251.9-.67,0.69-1.426,0.98a2.987,2.987,0,0,0-1.2-1.16c0.853-.49,1.717-0.93,2.607-1.35a2.607,2.607,0,0,1,.038,1.47C795.705,5748.85,795.744,5748.7,795.673,5749Zm3.691,28.12c-1.5.54-2.989,1.08-4.493,1.6,0.1-1.14-.685-1.75.525-2.44a19.189,19.189,0,0,1,2.464-.94l3.135-1.23A2.689,2.689,0,0,1,799.364,5777.12Zm1.757-4.02c-1.741.69-3.48,1.38-5.228,2.05-0.517-2.46,1.984-3.08,3.687-3.78,1.039-.43,2.068-0.87,3.1-1.31A2.634,2.634,0,0,1,801.121,5773.1Zm1.657-4.05c-1.721.74-3.439,1.48-5.18,2.18-0.687-3.14,4.526-4.28,6.69-5.25A2.668,2.668,0,0,1,802.778,5769.05Zm1.58-4.07c-1.7.78-3.422,1.53-5.147,2.27-0.769-3.08,4.468-4.38,6.589-5.37A2.7,2.7,0,0,1,804.358,5764.98Zm1.955-4.37c-1.55,1.17-3.788,1.83-5.558,2.64-0.7-2.57,2.172-3.38,3.894-4.22,0.87-.43,1.734-0.88,2.6-1.32A2.78,2.78,0,0,1,806.313,5760.61Zm-4.073-1.4c-0.707-2.68,2.5-3.65,4.292-4.63,0.661-.37,1.311-0.76,1.957-1.15C809.749,5756.71,804.39,5758.18,802.24,5759.21Zm5.962-1.13c-0.067-.77-0.209-0.69.32-1.25a4.6,4.6,0,0,1,.832.86A2.256,2.256,0,0,1,808.2,5758.08Zm12.228-3.32c0.678,0.46,1.106-.35.344-0.87-0.541-.37-1.314-0.86-1.842-1.25a2.338,2.338,0,0,1,1.276-.65h0.009c3.676-.56,4.026,5.11.845,5.21a7.1,7.1,0,0,1-.871-0.13,7.364,7.364,0,0,1-2.389-1.5c-1.01-.78-2-1.57-2.994-2.37C816.841,5751.27,818.809,5753.58,820.43,5754.76Zm-8.336-1.93h0c1.561-.05,3.045,1.8,4.186,2.7,0.659,0.52,1.338,1.01,2.01,1.51-2.666,2.44-5.847-1.94-7.635-3.68A2.5,2.5,0,0,1,812.094,5752.83Zm-2.357.85c1.338,1.33,2.706,2.6,4.1,3.87a2.872,2.872,0,0,1-3.8-.47,4.811,4.811,0,0,1-1-.97,3.555,3.555,0,0,0,.357-2.71C809.511,5753.49,809.624,5753.58,809.737,5753.68Zm-0.263-2.48c0.013-.03.019-0.04,0,0-0.105.26-.032,0.08,0,0-0.541,1.31-2.359,2.06-3.51,2.7-0.792.44-1.6,0.86-2.4,1.29-0.558-1.58.55-2.72,1.776-3.45,1.418-.85,2.775-1.76,4.119-2.71A2.824,2.824,0,0,1,809.474,5751.2Zm-0.139-3.21a43.993,43.993,0,0,1-4.663,3.15c-0.743-1.85.6-2.88,1.909-3.83a36.939,36.939,0,0,0,3.424-2.85A2.8,2.8,0,0,1,809.335,5747.99Zm0.414-8.35a2.772,2.772,0,0,1,.7,1.69c0.233,2.46-3.266,4.49-4.993,5.74-0.961-1.68.361-2.88,1.468-3.93A16.239,16.239,0,0,0,809.749,5739.64Zm-2.469-5.05a3.136,3.136,0,0,1,1.666,1.33,0.517,0.517,0,1,1,.123.17c0.038,0.08.043,0.1,0.035,0.09,1.14,2.59-1.525,5.29-3.336,6.88-1.205-1.71.115-2.89,0.924-4.36A5.509,5.509,0,0,0,807.28,5734.59Zm-1.272-.45a4.9,4.9,0,0,1-.692,5.27c-1.519-1.1.607-1.47-1.157-3.79a5.787,5.787,0,0,0-3.1-2.01A3.113,3.113,0,0,1,806.008,5734.14Zm-8.227.96c1.136-1.1,2.83-.74,4.123-0.18,0.682,0.27,2.762,1.64,2.1,2.56-0.71.99-1.852-.22-2.812-0.53a10.868,10.868,0,0,0-4.361-.25A2.71,2.71,0,0,1,797.781,5735.1Zm-2.913,3.36c1.548-1.55,5.058-1.1,6.94-.47-0.363,1.75-2.148,1.57-3.506,1.7a18.907,18.907,0,0,0-4.262.92A2.793,2.793,0,0,1,794.868,5738.46Zm-1.086,3.19a20.461,20.461,0,0,1,5.455-1.18c0.023,1.9-1.622,2.26-3.058,2.7a33.731,33.731,0,0,0-4.113,1.66A2.79,2.79,0,0,1,793.782,5741.65Zm-3.122,5.88c0.607-2.3,4.531-3.14,6.51-3.76,0.426,2.13-1.57,2.77-3.052,3.5C793.257,5747.71,790.074,5749.69,790.66,5747.53Zm-9.6-2.32c-0.021-.69-0.993-0.75-0.9.4,0.046,0.56.216,1.88,0.285,2.44a2.831,2.831,0,0,1-1.605-.72c-2.567-2.64,1.482-6.24,3.7-3.88a4.49,4.49,0,0,1,.68,2.36,44.252,44.252,0,0,0,.874,4.76C781.178,5750.71,781.027,5747.29,781.057,5745.21Zm5.293,7.19c-2.015-1.11-2.1-4.97-2.34-7.02,1.871-.05,2.305,1.5,2.664,2.98a43.767,43.767,0,0,0,1.271,4.3A2.276,2.276,0,0,1,786.35,5752.4Zm2.008-1.22a37.4,37.4,0,0,1-1.021-3.67c2.065-.31,2.667,1.78,3.167,3.3,0.427,1.23.927,2.4,1.46,3.58C789.727,5754.98,788.957,5752.86,788.358,5751.18Zm1.275,7.96c0.807-.7,1.614-1.41,2.42-2.11,0.371-.32.755-0.63,1.137-0.94,0.9,0.71,1.5.71,0.7,2.05-1.006,1.68-3.273,3.07-4.727,4.39A2.676,2.676,0,0,1,789.633,5759.14Zm-0.234,4.38c1.385-1.27,2.775-2.54,4.179-3.78,1.325,2.11-.785,3.59-2.13,4.85-0.822.77-1.636,1.55-2.449,2.33A2.668,2.668,0,0,1,789.4,5763.52Zm-0.137,4.38q2.021-1.965,4.091-3.88c1.432,2.21-.979,3.88-2.348,5.24-0.687.68-1.365,1.38-2.043,2.07A2.691,2.691,0,0,1,789.262,5767.9Zm0,4.4c1.3-1.36,2.63-2.68,3.973-4,1.127,1.67,0,3.04-1.145,4.21-1.029,1.05-2.023,2.14-3,3.25A2.7,2.7,0,0,1,789.258,5772.3Zm-0.462,6.39c0.011,0.11.036,0.41,0-.01l0,0.01a0.068,0.068,0,0,0,0-.02c-0.16-2.29,2.956-4.55,4.443-6.1,1.551,2.09-.717,3.9-1.966,5.37-0.634.74-1.239,1.5-1.848,2.26A2.728,2.728,0,0,1,788.8,5778.69Zm0.322,8.91a0.285,0.285,0,0,1,.211-0.12,3.741,3.741,0,0,0,.893,1.96c-0.855.17-1.713,0.29-2.577,0.41A2.462,2.462,0,0,1,789.118,5787.6Zm-17.889-9.49c0.055-.06.414-0.38,0,0l-0.2.15c-0.209-.7-0.558-0.67-0.055-1.28a1.183,1.183,0,0,1,1.082-.51A2.887,2.887,0,0,1,771.229,5778.11Zm1.3-2.64c-0.288.05-.575,0.09-0.865,0.13a3.09,3.09,0,0,0-.056-1.56c-0.246-.83.09-0.71,0.833-0.91a15.591,15.591,0,0,0,2.2-.81A2.885,2.885,0,0,1,772.532,5775.47Zm3.411-8.39c1.371,2.85-1.029,4.22-3.25,5.06a2.841,2.841,0,0,0,.145-1.96c0.084-.02,1.692-0.24,1.71-1.46A4.46,4.46,0,0,0,775.943,5767.08Zm-2.256-2.7c1.816,0.83,1.292,2.34.526,3.3a2.611,2.611,0,0,0-2.668-1.09,16.82,16.82,0,0,0-2.457.41A3.4,3.4,0,0,1,773.687,5764.38Zm-4.952,3.73c1.284-.45,5.339-1.42,4.719.79-0.143.51-.766,0.41-1.935,0.72a18.943,18.943,0,0,0-4.537,1.82A2.862,2.862,0,0,1,768.735,5768.11Zm3.319,2.23c0.351,1.69-.949,2.41-2.2,3.07a27.478,27.478,0,0,0-3.963,2.59,2.75,2.75,0,0,1-.226-0.82C765.362,5772.26,769.788,5770.81,772.054,5770.34Zm-1.376,3.59c0.8,1.92-.95,2.99-2.221,3.99,0.153-.12.354-0.28-0.06,0.04-0.084.07-.068,0.06-0.02,0.02-1.016.82-1.966,1.69-2.908,2.59C763.449,5777.6,768.635,5774.97,770.678,5773.93Zm-9.993.15c-0.952.45-1.914,0.87-2.891,1.25-1,.4-1.025.18-1.965-0.25,0.4-.48.39-1.25,0.876-1.59a12.8,12.8,0,0,1,1.891-.86c1.2-.54,2.344-1.17,3.483-1.82A2.756,2.756,0,0,1,760.685,5774.08Zm-0.985,3.13a2.634,2.634,0,0,0-2.1-.86c1.008-.38,2-0.8,2.986-1.24C760.857,5776.32,760.443,5776.57,759.7,5777.21Zm-3.565-5.92a3.337,3.337,0,0,0,.023.86C755.932,5771.68,755.707,5771.76,756.135,5771.29Zm1.111-3.81a3.47,3.47,0,0,0,.315,1.4,3.688,3.688,0,0,0-.644.61,3.287,3.287,0,0,0-.083-1.05C756.645,5767.68,756.705,5767.93,757.246,5767.48Zm5.249,1.94c-1.371,1.36-3.668,2.16-5.414,2.94-0.542-1.92.947-2.75,2.313-3.55a19.31,19.31,0,0,0,3.612-2.65A2.892,2.892,0,0,1,762.5,5769.42Zm-0.721-8.5a0.281,0.281,0,1,0,0-.04,0.382,0.382,0,1,0-.011-0.05c-0.028-.15-0.06-0.31-0.1-0.46a3.2,3.2,0,0,1,.718,5.09,19.5,19.5,0,0,1-4.077,3c-0.821-1.72.568-2.67,1.648-3.68A4.773,4.773,0,0,0,761.774,5760.92Zm-1.7-1.11c1.394,1.53.393,3.41-.886,4.58,0.992-3.43-3.7-3.25-4.37-3.13A3.221,3.221,0,0,1,760.078,5759.81Zm-5.779,2.55c0.644-.16,3.968-0.8,4.047,1.74-0.791.11-1.573,0.02-2.365,0.19a13,13,0,0,0-3.706,1.4A2.933,2.933,0,0,1,754.3,5762.36Zm-2.1,4.43a12.451,12.451,0,0,1,5.19-1.88c0.252,1.78-1.291,2.31-2.562,2.96a23.9,23.9,0,0,0-3.694,2.45A2.823,2.823,0,0,1,752.2,5766.79Zm3.705,1.48c0.832,1.96-.988,2.96-2.242,3.99a12.07,12.07,0,0,0-2.712,2.96C748.5,5772.07,753.7,5769.4,755.9,5768.27Zm-4.206,10.75c-1.708-2.73,1.565-5.39,3.5-6.89,1.006,1.48-.123,2.54-0.919,3.69a5.007,5.007,0,0,0-.661,4.62A3.126,3.126,0,0,1,751.7,5779.02Zm1.087,2.1a4.144,4.144,0,0,0,1.328.39,4,4,0,0,0,1.173,1.09c-1.273.37-2.584,0.62-3.881,0.9A2.476,2.476,0,0,1,752.783,5781.12Zm-23.607,6.85c-0.926.12-.633-0.94-0.537-1.53,0.11-.67-0.117-0.75.416-1.23l0.819-.72A2.756,2.756,0,0,1,729.176,5787.97Zm0.5-4.5c-0.413.37-.824,0.73-1.237,1.1-0.271-.65-1-1.04-0.754-1.67a3.018,3.018,0,0,1,.847-1.38c0.521-.49,1.025-1.01,1.538-1.51A2.722,2.722,0,0,1,729.672,5783.47Zm-5.194,13.78c-0.2.04-.12,0.02-0.022,0a19.289,19.289,0,0,1-3.718.29c0.062-1.46,1.28-2.02,2.522-2.23a10.061,10.061,0,0,0,1.209-.31,4.075,4.075,0,0,0,1.232,1.94q-0.6.165-1.193,0.3C724.6,5797.22,724.678,5797.2,724.478,5797.25Zm-1.385-4.13c0.039-.07.039-0.06,0.025-0.03a3.5,3.5,0,0,1,.478-0.67,3.583,3.583,0,0,0,.8.75,3.191,3.191,0,0,0-.076.97c-0.455.14-.913,0.27-1.372,0.4a2.2,2.2,0,0,1,.136-1.38A0.312,0.312,0,1,1,723.093,5793.12Zm1.059-23.33c1.731-.25,2.427,1.14,2.3,2.58a2.385,2.385,0,0,0-2.218.04,7.621,7.621,0,0,0-2.565,1.97,3.371,3.371,0,0,1,2.478-4.59C724.218,5769.78,723.89,5769.82,724.152,5769.79Zm0.01,3.64a3.361,3.361,0,0,1,1.039-.5,0.936,0.936,0,0,1,1.262.73c-0.043.7-1.94,2.28-2.063,2.41a32.982,32.982,0,0,0-2.49,3.04C720.087,5776.95,722.4,5774.62,724.162,5773.43Zm1.745,2.33a2.361,2.361,0,0,1,.554,1.51c0.019,1.49-1.5,2.88-2.3,4-0.526.74-1.04,1.48-1.558,2.22C720.227,5781.09,724.187,5777.4,725.907,5775.76Zm0.4,4.03a2.553,2.553,0,0,1,.734,1.69c0.071,1.34-1.039,2.45-1.736,3.49-0.636.95-1.251,1.91-1.845,2.89q0-.015,0,0C720.969,5785.51,724.85,5781.81,726.309,5779.79Zm0.708,4.22a2.694,2.694,0,0,1,.757,1.35,0.017,0.017,0,0,0,0,.01h0c0.019,0.11.007,0.04,0,0,0.252,1.43-.847,2.63-1.506,3.78a34.915,34.915,0,0,0-1.571,3.13C721.819,5790.05,725.608,5786.08,727.017,5784.01Zm3.492-7.03c0.154,1.72-1.551,2.9-2.651,3.96-0.138-.71-1.14-1.68-0.884-2.22a4.2,4.2,0,0,1,.877-0.91,12.438,12.438,0,0,0,1.954-2.55A2.9,2.9,0,0,1,730.509,5776.98Zm-1.559-7.6a6.467,6.467,0,0,0,.214-1.23c0.559,0.34.571,1.95,0.287,2.54C728.957,5770.08,728.756,5770.14,728.95,5769.38Zm0.322,4.85a11.7,11.7,0,0,1-1.948,2.94,2.914,2.914,0,0,0-.547-1.64c-0.4-.56,0-0.54.332-1.07a1.482,1.482,0,0,0,.171-1.51,5.485,5.485,0,0,0-.091-2.84h0C728.779,5770.66,730.036,5772.57,729.272,5774.23Zm-2.811-9.22c1.744,0.84,1.981,2.69,1.507,4.39a4.134,4.134,0,0,0-1.556-.53c-0.8-.11-0.448-0.93-0.69-1.69a5.883,5.883,0,0,0-1.535-2.36A3,3,0,0,1,726.461,5765.01Zm-5.86-.51c2.242-.6,4.43,2.15,4.56,4.18a3.3,3.3,0,0,0-1.646.17,7.979,7.979,0,0,1-.855-1.03,10.92,10.92,0,0,0-3.688-2.38A2.7,2.7,0,0,1,720.6,5764.5Zm2.086,4.54c-1.326,1.43-2.877.06-4.251-.43a17.519,17.519,0,0,0-3.827-1.01C716.121,5763.95,721.073,5767.19,722.687,5769.04Zm-10.824.05c1.99-1.63,5.329-.02,7.422.8-0.77,1.68-2.479,1.24-3.9.99a27.233,27.233,0,0,0-4.419-.33A2.656,2.656,0,0,1,711.863,5769.09Zm-3.338,3.3c-0.074.09-.282,0.33,0,0h0c1.533-1.75,5.457-.93,7.476-0.54-0.533,1.89-2.245,1.8-3.822,1.8a37.067,37.067,0,0,0-4.34.29A2.917,2.917,0,0,1,708.525,5772.39Zm-1.071,2.52a33.7,33.7,0,0,1,5.587-.4c-0.205,1.92-1.978,2.16-3.506,2.34a30.663,30.663,0,0,0-4.353.79A2.731,2.731,0,0,1,707.454,5774.91Zm-3.893,4.58c1.347-1.62,4.881-1.65,6.843-1.88-0.035,1.95-1.7,2.39-3.238,2.73a39.074,39.074,0,0,0-4.243,1.25A2.782,2.782,0,0,1,703.561,5779.49Zm-0.833,3.12a43.867,43.867,0,0,1,5.379-1.6c0.163,1.94-1.462,2.53-2.948,3.06a42.68,42.68,0,0,0-4.07,1.71A2.8,2.8,0,0,1,702.728,5782.61Zm3.452,2.02c0.279,1.25-.8,2.43-2.382,3.26a24.636,24.636,0,0,0-4.011,2.35,2.764,2.764,0,0,1,.675-2.98C701.9,5785.9,704.338,5785.28,706.18,5784.63Zm-6.027.83a1.089,1.089,0,0,1-.435,1.28c-0.347.38-.461,1.04-1.071,0.94A2.325,2.325,0,0,1,700.153,5785.46Zm-36.536-9.21c-0.485.13-.97,0.25-1.456,0.37-0.112-.64-0.79-1.36-0.483-1.87,0.341-.56,1.211-0.58,1.841-0.75,0.691-.19,1.382-0.38,2.073-0.58A2.734,2.734,0,0,1,663.617,5776.25Zm-0.667,2.56c0.059-.09.215-0.34,0,0.01,0,0,0,0,0-.01a0.059,0.059,0,0,0-.009.02,2.73,2.73,0,0,1-1.236,1.03c-0.359-.63.164-0.92,0.361-1.6,0.264-.92.336-0.79,1.286-1.02A2.739,2.739,0,0,1,662.95,5778.81Zm0.284,1.61a3.263,3.263,0,0,0-1.08.68c-0.115-.74.569-0.72,1.079-1.25C663.233,5780.04,663.234,5780.23,663.234,5780.42Zm-1.355-18.19a3.526,3.526,0,0,0,.952-2.05c0.086-.88-0.66-1.97-0.2-2.55a3.484,3.484,0,0,0,.269-3.9,3.446,3.446,0,0,0,.808-1.1,3.532,3.532,0,0,0,.225-2.25c-0.156-.66-0.478-0.65,0-1.19a3.406,3.406,0,0,0,.686-1.17,3.507,3.507,0,0,0-.18-2.69,3.469,3.469,0,0,0,1.292-2.47,3.364,3.364,0,0,0-.11-1.12c-0.226-.83-0.03-0.56.466-1.17a3.481,3.481,0,0,0,.669-2.89c-0.187-.83,0-0.55.521-1.13a3.559,3.559,0,0,0,.676-1.15,3.329,3.329,0,0,0,.145-1.66c-0.132-.83.038-0.54,0.588-1.07a3.348,3.348,0,0,0,1.021-2.66c-0.071-.92,1.033-1.03,1.506-1.9a2.839,2.839,0,0,0,.434-1.45c0.035-.8.272-0.52,0.94-0.83a2.538,2.538,0,0,0,1.431-2.07c1.119,0.22,1.637.29,2.327-.69a1.462,1.462,0,0,0,.872,1.06,1.82,1.82,0,0,0,0,2.1c0.29,0.57.7,0.6,0.3,1.17a3.108,3.108,0,0,0-.6,1.53,3.458,3.458,0,0,0,.226,1.57c0.32,0.78.1,0.52-.346,1.15a6.963,6.963,0,0,1-1.62,5.78,3.616,3.616,0,0,0,.238,1.67,3.418,3.418,0,0,0-1.177,1.36,3.45,3.45,0,0,0-.144,2.69,3.233,3.233,0,0,0-.71.58,7.779,7.779,0,0,1-2.409,5.7,3.551,3.551,0,0,0,.054,1.71,3.436,3.436,0,0,0-1.307,1.26,6.084,6.084,0,0,1-2.217,5.21,3.522,3.522,0,0,0,.05,1.38,3.628,3.628,0,0,0-1.09.84,3.471,3.471,0,0,0-.718,1.32c-0.224.76,0.181,1.51-.471,1.93a3.522,3.522,0,0,0-1.6,2.68c-0.046.62,0.243,0.77-.316,1.11a3.565,3.565,0,0,0-1.146,1.14,3.423,3.423,0,0,0-.405-1.18c-0.339-.61.239-0.89,0.464-1.53A3.5,3.5,0,0,0,661.879,5762.23Zm3.948,10.2c-1.214.34-2.424,0.71-3.648,1.02a3.586,3.586,0,0,0-.284-2.14,49.659,49.659,0,0,1,5.818-1.76A2.7,2.7,0,0,1,665.827,5772.43Zm2.1-3.87c-1.8.55-3.594,1.1-5.4,1.63-0.287-2.49,2.248-2.92,4-3.49,1.074-.35,2.145-0.71,3.215-1.06A2.7,2.7,0,0,1,667.922,5768.56Zm3.242-4.83c-0.885,1.19-2.916,1.48-4.221,1.91-0.792.26-1.586,0.5-2.38,0.76-0.441-3.17,4.877-3.92,7.109-4.72A2.711,2.711,0,0,1,671.164,5763.73Zm0.666-3.06c-1.771.64-3.54,1.28-5.321,1.88-0.5-3.16,4.784-4.02,7-4.88A2.7,2.7,0,0,1,671.83,5760.67Zm1.824-4c-1.757.68-3.512,1.35-5.279,2-0.587-3.14,4.7-4.14,6.892-5.04A2.7,2.7,0,0,1,673.654,5756.67Zm1.725-4.05c-1.732.73-3.475,1.43-5.224,2.12-0.523-2.44,1.971-3.12,3.664-3.85,1.039-.44,2.072-0.9,3.106-1.35A2.707,2.707,0,0,1,675.379,5752.62Zm2.78-5.13c-0.775,1.27-2.754,1.76-4.021,2.31-0.764.33-1.535,0.65-2.3,0.97-0.7-3.1,4.475-4.35,6.626-5.38A2.7,2.7,0,0,1,678.159,5747.49Zm1.178-3.76c-0.82.96-2.433,1.42-3.532,1.95-0.791.38-1.593,0.73-2.392,1.1-0.63-2.41,1.795-3.21,3.445-4.04,1.011-.51,2.01-1.04,3.01-1.57A2.723,2.723,0,0,1,679.337,5743.73Zm1.184-4.09c-1.343,1.45-3.87,2.22-5.648,3.1-0.589-1.94.954-2.89,2.383-3.66,1.3-.69,2.58-1.43,3.842-2.2A2.709,2.709,0,0,1,680.521,5739.64Zm0.551-3.79q-2.415,1.47-4.891,2.82c-0.681-1.92.833-2.9,2.2-3.74,1.265-.77,2.486-1.6,3.692-2.47A2.775,2.775,0,0,1,681.072,5735.85Zm0.9-4.43a55.324,55.324,0,0,1-4.684,3.16c-0.788-1.85.64-2.91,1.927-3.84a25.528,25.528,0,0,0,3.415-2.89A2.813,2.813,0,0,1,681.968,5731.42Zm0.156-8.62c3.071,2.88-1.988,6.19-4.038,7.68-0.875-1.53.172-2.71,1.229-3.71a12.647,12.647,0,0,0,2.313-2.88A5.259,5.259,0,0,0,682.124,5722.8Zm-3.142-4.41c2.03,0.32,2.834,2.62,2.148,4.33a10.554,10.554,0,0,1-2.737,3.78c-1.5-1.58.553-1.95,0.631-4.56a5.027,5.027,0,0,0-1.259-3.6A3.826,3.826,0,0,1,678.982,5718.39Zm-5.211-.38a3.5,3.5,0,0,1,3.946,1.92c0.337,0.58,1.054,2.9.029,3.38-0.831.39-.263-0.8-2-2.37a7.243,7.243,0,0,0-3.684-1.71A2.969,2.969,0,0,1,673.771,5718.01Zm2.182,4.32c0.384,0.51-1.153.77-1.415,0.77-0.786-.06-1.588-0.51-2.381-0.62a13.913,13.913,0,0,0-3.971.15C668.505,5718.54,674.324,5720.21,675.953,5722.33Zm-8.185,1.32a16.024,16.024,0,0,1,3.519-.38c1.032,0.03,2.9.06,1.413,1.41-0.828.95-2.652,0.78-3.784,1.02s-2.215.57-3.311,0.92A2.848,2.848,0,0,1,667.768,5723.65Zm-3.419,4.73c1.384-1.55,4.517-1.81,6.458-2.14,0.145,1.93-1.542,2.44-2.992,2.91a43.307,43.307,0,0,0-4.125,1.63A2.736,2.736,0,0,1,664.349,5728.38Zm-1.916,4.5c-0.016.03-.022,0.03,0,0,0.2-.35.052-0.09,0,0,0.648-1.11,2.134-1.53,3.239-2a31.916,31.916,0,0,1,3.136-1.14c0.349,1.97-1.218,2.67-2.68,3.33-1.348.6-2.663,1.27-3.971,1.95A2.722,2.722,0,0,1,662.433,5732.88Zm-0.309,3.17c1.666-.88,3.341-1.71,5.052-2.49,0.667,2.35-1.74,3.19-3.334,4.07-0.993.54-1.97,1.11-2.948,1.68A2.736,2.736,0,0,1,662.124,5736.05Zm-1.208,4.29c1.62-.97,3.249-1.89,4.908-2.78,0.812,2.32-1.56,3.32-3.118,4.26-0.966.6-1.918,1.21-2.871,1.82A2.722,2.722,0,0,1,660.916,5740.34Zm-2,5.51c0.575-1.38,2.453-2.15,3.628-2.9,0.7-.44,1.423-0.86,2.138-1.29,0.914,2.3-1.411,3.4-2.94,4.41-0.943.63-1.871,1.27-2.8,1.91A2.712,2.712,0,0,1,658.918,5745.85Zm0.123,3.14q2.317-1.62,4.675-3.16c1.275,2.89-3.625,5.11-5.525,6.52A2.733,2.733,0,0,1,659.041,5748.99Zm-0.715,4.36c1.509-1.12,3.03-2.23,4.57-3.31,1.369,2.86-3.46,5.23-5.32,6.69A2.721,2.721,0,0,1,658.326,5753.35Zm-0.586,4.38q2.209-1.755,4.469-3.45c1.142,2.21-1.069,3.53-2.5,4.69q-1.318,1.065-2.617,2.16A2.727,2.727,0,0,1,657.74,5757.73Zm-0.45,4.41c1.434-1.23,2.887-2.42,4.359-3.6,0.993,1.77-.327,3.04-1.566,4.09-1.129.95-2.232,1.94-3.323,2.93A2.707,2.707,0,0,1,657.29,5762.14Zm-0.3,4.42c1.39-1.28,2.8-2.52,4.234-3.75,1.024,1.75-.207,3.03-1.417,4.13-1.1,1-2.151,2.04-3.187,3.1A2.749,2.749,0,0,1,656.989,5766.56Zm-0.079,4.48c1.307-1.37,2.653-2.68,4.037-3.96,1.738,2.58-2.686,5.68-4.332,7.34A2.686,2.686,0,0,1,656.91,5771.04Zm1.944,2.35c0.682-.69,1.355-1.39,2.031-2.09,1.88,2.67-2.605,5.77-4.285,7.44a2.914,2.914,0,0,1-.476-1.52C656.127,5775.63,657.839,5774.42,658.854,5773.39Zm2.015,2.32c1.881,2.72-2.6,5.72-4.36,7.34a2.788,2.788,0,0,1-.4-1.52C656.117,5779.43,659.472,5777.12,660.869,5775.71Zm-0.018,4.41c1.53,2.25-.993,3.98-2.46,5.33-0.7.65-1.4,1.28-2.1,1.92C654.573,5784.65,659.151,5781.8,660.851,5780.12Zm-0.786,4.99a3.46,3.46,0,0,0-.91,2.81c0.093,0.72-.172.55-0.651,1.03-0.39.4-.524,0.92-0.852,1.32a10.807,10.807,0,0,1-1.605,1.41,3.162,3.162,0,0,1-.382-1.55C655.762,5788.16,658.705,5786.36,660.065,5785.11Zm-4.8-2.96c0.076,0.55,1.09,2-.056,2.17-0.64.09-1.28,0.19-1.92,0.28A2.567,2.567,0,0,1,655.264,5782.15Zm-2.314,3.38q1.072-.135,2.138-0.3a3.467,3.467,0,0,0,.247,2.19c-1.54.22-3.11,0.43-4.664,0.5A2.6,2.6,0,0,1,652.95,5785.53Zm-29.923,15.27h0c-3.749.02-3.186-5.25-2.964-7.75,1.988,0.5,1.821,2.28,2.123,3.92a12.916,12.916,0,0,0,1.292,3.78C623.326,5800.77,623.177,5800.79,623.027,5800.8Zm3.462,1.4a0.28,0.28,0,1,1-.078,0,0.553,0.553,0,1,1-.082-0.04c-2.424-.75-3.259-4.36-3.519-6.6,2.085-.16,2.338,1.75,3.14,3.16A19.956,19.956,0,0,0,628.2,5802,2.94,2.94,0,0,1,626.489,5802.2Zm4.811,0.48c-0.414,0-.2,0-0.012-0.01-2.474.03-4.249-3.54-5.139-5.48,1.735-.74,2.678.75,3.642,1.88a32.692,32.692,0,0,0,3.1,3.09,2.8,2.8,0,0,1-1.58.51C631.451,5802.67,631.548,5802.67,631.3,5802.68Zm4.659-.32c-2.327.4-4.744-2.92-6.068-4.5,1.55-1.12,2.9.09,4.036,1.09a22.644,22.644,0,0,0,3.6,2.66A2.725,2.725,0,0,1,635.959,5802.36Zm4.7-1.1c-2.388.76-5.092-2-6.747-3.47,1.444-1.27,2.812-.34,4.125.5a20.747,20.747,0,0,0,4.032,1.91A2.568,2.568,0,0,1,640.662,5801.26Zm4.481-2.08a0.343,0.343,0,1,1-.054.05,0.3,0.3,0,1,1-.063.02c-2.179,1.13-5.373-.88-7.193-2.1,1.2-1.5,2.61-.82,4.08-0.3a24.736,24.736,0,0,0,4.321,1.06A2.936,2.936,0,0,1,645.143,5799.18Zm3.88-2.8c0.07-.06.1-0.07-0.053,0.07a0.529,0.529,0,1,1-.076.04c-1.952,1.44-5.4,0-7.424-.72,0.794-1.77,2.541-1.35,4.051-1.12a34.976,34.976,0,0,0,4.338.34A2.938,2.938,0,0,1,649.023,5796.38Zm3.294-3.16c-1.661,1.72-5.407.77-7.51,0.45,0.5-1.87,2.262-1.81,3.8-1.79,1.476,0.01,2.951-.05,4.422-0.17A2.551,2.551,0,0,1,652.317,5793.22Zm1.157-2.45c-1.878.15-3.729,0.24-5.612,0.22,0.3-2.15,2.465-2.19,4.146-2.29,1.137-.09,2.268-0.25,3.4-0.4C654.623,5789.43,655.18,5790.63,653.474,5790.77Zm2.76,1.88,1.288-1.08c0.035,0.67.324,0.71-.223,1.16a3.5,3.5,0,0,0-.86,1.1c-0.345.7-.053,1.78-0.823,2.13A2.638,2.638,0,0,1,656.234,5792.65Zm-0.428,4.29c0.129-.1.256-0.21,0.386-0.32a11.6,11.6,0,0,0-1.323,2.18A2.549,2.549,0,0,1,655.806,5796.94Zm0.2,11.18c0.874-.44,2.273-1.28,2.545-1.45C658.5,5807.53,658.022,5808.65,656.006,5808.12Zm-0.46-.62c0.011,0,.011,0,0,0.01-1.962.76-1.945-.42-1.942-0.44,0.134-1.23,1.246-1.7,2.2-2.27,1.241-.75,2.509-1.46,3.773-2.16C660.577,5805.27,657.21,5806.44,655.546,5807.5Zm5.266-7.51a0.684,0.684,0,0,1-.162.45c-0.6,1.4-2.53,2.02-3.766,2.72-0.729.41-1.446,0.85-2.169,1.27-1.237-3.15,3.923-4.7,6.033-5.79A2.43,2.43,0,0,1,660.812,5799.99Zm-0.06-2.31q-2.485,1.26-4.927,2.59c-1.146-3.19,4.07-4.56,6.222-5.57A2.514,2.514,0,0,1,660.752,5797.68Zm1.336-3.94c-1.691.77-3.358,1.57-5.019,2.4-1-3.24,4.259-4.41,6.434-5.31A2.5,2.5,0,0,1,662.088,5793.74Zm1.5-3.86c-1.728.68-3.429,1.41-5.123,2.18-0.887-3.29,4.5-4.27,6.688-4.98A2.49,2.49,0,0,1,663.59,5789.88Zm1.7-3.74c-1.77.57-3.509,1.18-5.232,1.88-0.75-3.39,4.755-3.99,6.984-4.51A2.433,2.433,0,0,1,665.293,5786.14Zm1.978-3.52a40.051,40.051,0,0,0-5.375,1.42c-0.457-3.55,5.036-3.59,7.371-3.73A2.381,2.381,0,0,1,667.271,5782.62Zm3.963-3.68c-0.891.85-2.614,0.53-3.722,0.65a26.225,26.225,0,0,0-3.408.58c-0.118-2.39,2.326-2.75,4.1-2.81a13.053,13.053,0,0,1,2.253.14C671.464,5777.67,672.527,5777.91,671.234,5778.94Zm2.649-1.5a0.45,0.45,0,0,0-.162.05,0.189,0.189,0,0,1,.075,0c-0.077.01-.089,0.01-0.075,0a4.705,4.705,0,0,1-2-.51,9.355,9.355,0,0,0-2.454-.48c-0.776-.06-1.574.01-2.352,0.02,0.346-2.48,3.12-2.42,4.877-1.76C672.724,5775.1,675.7,5776.61,673.883,5777.44Zm2.384,0.19c-0.858-.35-1.469-1.9-2.172-2.54a7.5,7.5,0,0,0-3.224-1.59c1.428-2.02,3.834-1.2,5.128.4C676.366,5774.36,678.33,5778.66,676.267,5777.63Zm1.42,1.67c0.033,0.08.066,0.17-.014-0.02a0.113,0.113,0,1,1-.006-0.03c-0.357-1.03.643-1.53,0.258-3.33a6.915,6.915,0,0,0-1.71-3.21,3.044,3.044,0,0,1,3.938,3.08,7.732,7.732,0,0,1-1.662,4.42A2.137,2.137,0,0,1,677.687,5779.3Zm2.663-.58a7.637,7.637,0,0,0,.773-2.99c3.931,1.97-.411,6.41-2.045,8.32a2.488,2.488,0,0,1-.629-1.35C678.276,5781.23,679.76,5779.96,680.35,5778.72Zm-1.521,8.11c0.011,0.13.02,0.23,0-.01-0.033-.38-0.014-0.18,0-0.01-0.119-1.48,1.21-2.53,2.06-3.56a27.678,27.678,0,0,0,2.024-2.73c2.391,2.49-1.979,5.94-3.455,7.79A2.625,2.625,0,0,1,678.829,5786.83Zm1.556,6.1c-2.937-2.48,1.395-6.09,3.041-8,1.293,1.53.247,2.92-.737,4.17A15.581,15.581,0,0,0,680.385,5792.93Zm3.429,4.44a2.3,2.3,0,0,1-1.058-.28c-3.679-1.78-.531-6.03,1.079-8.08,1.525,1.37.232,2.85-.284,4.3A5.538,5.538,0,0,0,683.814,5797.37Zm4.931,1.19c-3.437,1.86-5.273-3.21-4.177-5.75,0.279-.65,1.02-0.34,1.258.3s0.17,1.36.436,2.01a8.122,8.122,0,0,0,2.865,3.2C689,5798.41,688.872,5798.48,688.745,5798.56Zm3.664-.36c-1.694.42-2.814-.6-4.008-1.65-0.491-.43-2.383-2.37-1.441-2.79,1.413-.63,2.373.98,3.392,1.63a13.591,13.591,0,0,0,3.52,1.74A2.565,2.565,0,0,1,692.409,5798.2Zm4.513-2.21c0.113-.08.2-0.13-0.035,0.03a0.417,0.417,0,1,1-.047.02c-2.191,1.31-5.291-.7-7.009-2.08,1.168-1.66,2.822-.38,4.251-0.02a17.992,17.992,0,0,0,3.851.67A2.834,2.834,0,0,1,696.922,5795.99Zm1.062-2.27a21.543,21.543,0,0,1-4.852-.97c0.769-2.21,3.676-1.23,5.387-1.23C698.422,5791.68,697.691,5793.72,697.984,5793.72Zm-1.891-3.17a2.327,2.327,0,0,1,2.253-2c0.16-.01.319-0.03,0.479-0.04a3.633,3.633,0,0,0,.161,2.12A23.292,23.292,0,0,1,696.093,5790.55Zm8.6-2.13c0.851,2.45-2.258,3.65-3.734,4.9a16.371,16.371,0,0,0-1.693,1.7C697.259,5791.71,702.414,5789.51,704.69,5788.42Zm-4.324,11.3a0.165,0.165,0,1,0-.008.04,2.839,2.839,0,0,0-.082.33c-3.564-2.6,1.419-6.36,3.453-7.8,1.074,1.8-.606,2.96-1.618,4.19a11.083,11.083,0,0,0-1.725,3.19A0.121,0.121,0,1,1,700.366,5799.72Zm3.074,0.9a6.984,6.984,0,0,0,.549,3.62,3.205,3.205,0,0,1-.966-0.19,0.241,0.241,0,1,1-.041-0.01c-0.123-.05-0.106-0.04-0.054-0.02-3.528-1.52-1.183-6.07.665-7.97C705.023,5797.48,703.681,5799,703.44,5800.62Zm1.231-8.33c-0.351-.81.686-1.25,0.92-2.16,0.179-.79-0.334-1.91.221-2.33a3.218,3.218,0,0,0,1.209-1.84,3.257,3.257,0,0,0,.062-1.07c-0.083-.83.077-0.53,0.662-1a3.268,3.268,0,0,0,1.231-2.53c0.013-.88.816-0.82,1.42-1.47a3.3,3.3,0,0,0,.849-1.94c0.063-.75.966-0.68,1.545-1.19a3.268,3.268,0,0,0,1.094-2.25,3.166,3.166,0,0,0,2.948-2.5,3.105,3.105,0,0,0,2.321-.6,3.187,3.187,0,0,0,.857-1.16,3.262,3.262,0,0,0,1.377.28,4.71,4.71,0,0,0-.882,2.63,3.6,3.6,0,0,0,.2,1.26c0.3,0.85.162,0.76-.131,1.63a3.823,3.823,0,0,0,.508,3.45c0.5,0.68-.28,2.13.033,3.16a3.582,3.582,0,0,0,.675,1.25c0.488,0.58-.007.95-0.056,1.71a3.664,3.664,0,0,0,1.282,3.03,3.7,3.7,0,0,0,.107,3.03,3.107,3.107,0,0,0-.993,3.02,2.954,2.954,0,0,0-1.864,1.37,3.1,3.1,0,0,0-.274.9c-0.134.8-.37,0.38-1.037,0.57a2.687,2.687,0,0,0-1.564,1.13,4.177,4.177,0,0,0-.337.74,2.778,2.778,0,0,0-1.45-.21,3.09,3.09,0,0,0-2,1.25,3.226,3.226,0,0,0-2.417-.44,3.18,3.18,0,0,0-.928.45c-0.7.49-.491,0.08-1.162-0.28a2.3,2.3,0,0,0-2.335.02c-0.238-1.2-.762-1.46-1.85-1.74a2.321,2.321,0,0,0,.085-1.91,4.416,4.416,0,0,0-.49-0.72c-0.5-.62-0.122-0.51.189-1.17A2.909,2.909,0,0,0,704.671,5792.29Zm2.507,13.61c-1.614-.35-2.271-1.66-2.7-3.14a8.116,8.116,0,0,1,.127-3.61c1.524,0.15,1.455,1.7,1.873,2.82a10.357,10.357,0,0,0,2.555,3.67A2.671,2.671,0,0,1,707.178,5805.9Zm5.112,0.13c0.069-.01.077-0.01-0.111,0.01-0.376.03-.239,0.01-0.073,0-1.577.06-2.677-1.19-3.608-2.32-0.373-.46-2.056-2.7-1.248-2.91,1.524-.39,2.209.88,3.163,1.79a21.745,21.745,0,0,0,3.371,2.8A2.438,2.438,0,0,1,712.29,5806.03Zm4.717-.87c0.129-.05.208-0.07-0.034,0.02-0.392.13-.229,0.07-0.053,0.01-2.361.76-5.009-2.34-6.5-3.81,1.421-1.23,2.794-.15,4.022.7a17.038,17.038,0,0,0,4,2.03A3.255,3.255,0,0,1,717.007,5805.16Zm-2.736-4.23c1.241-1.64,2.985-.47,4.456-0.02a14.108,14.108,0,0,0,3.922.63C721.23,5805.42,716.42,5802.44,714.271,5800.93Zm9.024-.31a14.732,14.732,0,0,1-5.5-.93c0.727-1.93,2.667-1.21,4.2-1.28a15.694,15.694,0,0,0,3.914-.57A2.888,2.888,0,0,1,723.3,5800.62Zm3.65-3.94a3.22,3.22,0,0,1-1.321-1.18,0.733,0.733,0,1,1-.074-0.1c0.023,0.03.051,0.07,0.074,0.1a0.819,0.819,0,0,0-.086-0.13c-0.7-1.47-.034-2.81.637-4.17l1.682-3.01c1.356,1.29.692,2.98,0.3,3.85A13.034,13.034,0,0,0,726.945,5796.68Zm2.184-4.77c2.145,1.14-.478,4.96,2,8.14C726.455,5800.47,728,5794.32,729.129,5791.91Zm5.238,9.49a0.589,0.589,0,1,1-.056-0.02c-4.074-1.19-3.469-6.39-3.3-6.5a1.8,1.8,0,0,1,1.6.83c0.631,0.95.838,2.12,1.531,3.08a15.317,15.317,0,0,0,2.028,2.24,3.056,3.056,0,0,1-1.752.37C734.548,5801.42,734.629,5801.43,734.367,5801.4Zm5.407-.5c-1.494.54-2.907-.31-3.886-1.41-0.236-.25-2.2-3.05-2.15-3.05,1.66-.79,2.393.44,3.5,1.39a10.25,10.25,0,0,0,4.026,1.93A2.817,2.817,0,0,1,739.774,5800.9Zm4.456-2.38c-1.308.95-2.952,0.35-4.31-.16-0.479-.18-2.8-1.09-2.789-1.68,1.047-1.42,2.5-.63,3.835-0.25a22.4,22.4,0,0,0,4.3.7A2.747,2.747,0,0,1,744.23,5798.52Zm3.606-3.04c-1.713,1.68-5.466.47-7.47-.11,0.64-1.78,2.341-1.55,3.837-1.43a36.294,36.294,0,0,0,4.425.05A2.7,2.7,0,0,1,747.836,5795.48Zm1.265-2.42a38.711,38.711,0,0,1-5.6-.04c0.344-1.92,2.136-1.99,3.675-2.05,1.475-.06,2.939-0.22,4.4-0.4A2.719,2.719,0,0,1,749.1,5793.06Zm2.867-3.45a49.813,49.813,0,0,1-5.587.52c0.246-2.42,2.718-2.31,4.513-2.59,1.118-.17,2.227-0.38,3.339-0.59A2.708,2.708,0,0,1,751.968,5789.61Zm2.575-3.64c-1.829.41-3.675,0.71-5.531,0.95,0.043-2.45,2.538-2.54,4.315-2.94,1.1-.25,2.2-0.53,3.29-0.82A2.717,2.717,0,0,1,754.543,5785.97Zm3.967-3.77c-0.048.02-.079,0.03-0.107,0.04,0.041-.02.084-0.03,0.106-0.04-3.661,1.4-5.353-3.43-3.654-5.86,1.029-1.47.966,0.85,1.493,2.17a11.128,11.128,0,0,0,2.524,3.56C758.751,5782.11,758.631,5782.16,758.51,5782.2Zm4.484,0.09a0.48,0.48,0,1,1-.067.02c-1.723.61-2.807-.23-3.957-1.45-0.219-.23-2.685-3.18-2.151-3.47,1.309-.69,2.277.41,3.09,1.29a13.108,13.108,0,0,0,3.846,3.05,2.562,2.562,0,0,1-.728.53C763.077,5782.24,763.106,5782.23,762.994,5782.29Zm0.133-1.97a12.628,12.628,0,0,1-2.837-2.49,2.374,2.374,0,0,1,2.95.02q0.311,0.225.638,0.42c0.589,0.34.278,0.47,0.318,1.12a3.459,3.459,0,0,0,.634,1.81A12.248,12.248,0,0,1,763.127,5780.32Zm1.594-3.09c-0.36.58-.386,0.35-0.916,0.06a1.974,1.974,0,0,1,.945-0.94C765.629,5775.96,764.841,5777.04,764.721,5777.23Zm0.508,5.02c-0.007.01-.013,0.03-0.021,0.04a0.309,0.309,0,0,0,.022-0.04h0c0.9-1.72,3.183-3.26,4.7-4.38,1.2,2.06-.863,3.49-2.139,4.73-0.814.79-1.585,1.62-2.371,2.44A2.733,2.733,0,0,1,765.229,5782.25Zm4.461-.26c1.117,1.64-.01,2.99-1.109,4.17a35.784,35.784,0,0,0-2.842,3.42,2.724,2.724,0,0,1-.634-1.56C764.857,5785.73,768.193,5783.4,769.69,5781.99Zm0.046,4.19c1.229,1.53.206,2.92-.744,4.18a22.869,22.869,0,0,0-2.308,3.84C763.856,5791.68,768.023,5788.02,769.736,5786.18Zm-0.694,11.39c-0.048.4-.074,0.79-0.09,1.19-3.844-1.72-.462-6.42,1.187-8.51C772.123,5792.29,769.259,5795.23,769.042,5797.57Zm3.539,4.31c-3.935-.4-2.688-5.64-1.459-7.9,1.785,1.1.837,2.79,1.027,4.5a7.08,7.08,0,0,0,1.448,3.37A2.485,2.485,0,0,1,772.581,5801.88Zm4.515,0.76c-1.546.16-2.729-1.08-3.4-2.35-0.3-.55-1.4-2.95-0.783-3.54,1.675-.17,1.961,1.61,2.822,2.65a9.628,9.628,0,0,0,3.138,2.5A2.814,2.814,0,0,1,777.1,5802.64Zm-1.471-4.77c1.447-1.16,2.794.25,4.083,0.91a12.023,12.023,0,0,0,3.79,1.15C781.76,5803.73,776.987,5799.99,775.625,5797.87Zm10.7,0.55c-0.327.27-.176,0.14-0.03,0.02-1.91,1.51-5.509.18-7.331-1.01,1.1-1.75,2.713-.88,4.318-0.71a25.722,25.722,0,0,0,3.923.21,2.8,2.8,0,0,1-.86,1.47C786.446,5798.31,786.512,5798.26,786.321,5798.42Zm1.413-2.41a27.292,27.292,0,0,1-5.568-.34c0.44-1.88,2.191-1.77,3.684-1.8a38.128,38.128,0,0,0,4.4-.39A2.769,2.769,0,0,1,787.734,5796.01Zm2.891-3.5a49.32,49.32,0,0,1-5.56.51c0.208-2.72,3.812-2.39,5.712-2.78a9.348,9.348,0,0,0,.212,2.17C790.867,5792.44,790.747,5792.47,790.625,5792.51Zm0.55-3.38c-2.823-2.32,1.107-6.2,2.626-8.14,1.47,1.59.22,3.21-.7,4.65A26.783,26.783,0,0,0,791.175,5789.13Zm2.145,3.29a4.566,4.566,0,0,0-.256,1.1,3.043,3.043,0,0,1-1.221-1.31h0c-1-2.28,1.471-5.33,2.655-7.14a2.617,2.617,0,0,1,.492,3.25,24.152,24.152,0,0,0-1.641,4.03C793.375,5792.25,793.387,5792.21,793.32,5792.42Zm3.033,0.48a11.146,11.146,0,0,0-.035,4.54,2.9,2.9,0,0,1-1.688-.94c-1.792-1.94-.024-5.59.984-7.56C797.212,5789.92,796.686,5791.43,796.353,5792.9Zm2.821,6.7c-2.688-.98-2.448-5.04-1.837-7.3,1.713,0.44,1.542,1.92,1.8,3.3a9.171,9.171,0,0,0,2,4.05A2.886,2.886,0,0,1,799.174,5799.6Zm5.247,0.71c-1.649.13-2.753-1.34-3.533-2.59-0.257-.41-1.487-2.64-1.1-3.08,1.694-.35,2.173,1.05,3.058,2.14a17.88,17.88,0,0,0,3.2,2.94A2.6,2.6,0,0,1,804.421,5800.31Zm4.673-.57c-2.16.51-5.006-2.56-6.151-4.18,1.434-1.14,2.788-.01,3.941.9a36.463,36.463,0,0,0,3.688,2.47A2.841,2.841,0,0,1,809.094,5799.74Zm4.5-1.14a0.466,0.466,0,1,1-.047.02c-0.362.11-.213,0.06-0.053,0.01-2.225.57-5.06-2.03-6.695-3.33,1.382-1.36,2.837-.53,4.2.29,1.27,0.76,2.57,1.43,3.907,2.06A2.71,2.71,0,0,1,813.6,5798.6Zm4.235-1.53c0.125-.05.218-0.09-0.01,0-0.376.15-.178,0.07-0.012,0-2.156.85-5.231-1.53-7.036-2.62,1.2-1.54,2.825-.81,4.242-0.14,1.331,0.64,2.711,1.18,4.085,1.71A2.754,2.754,0,0,1,817.831,5797.07Zm4.119-1.87c-0.164.08-.087,0.04-0.008,0-2.078.99-5.353-1.1-7.249-2,1.05-1.64,2.732-1.11,4.222-.55a15.574,15.574,0,0,1,2.134.76c0.483,0.27,1.062,1.13,1.694,1.13a2.452,2.452,0,0,1-.788.65C822.032,5795.16,822.1,5795.12,821.95,5795.2Zm0.839-1.64c-3.881-1.62-.149-6.47,1.362-8.4,1.487,1.37.308,2.98-.356,4.38A11.292,11.292,0,0,0,822.789,5793.56Zm2.257-4.7c1.783,1.09.9,2.57,0.9,4.23a11.741,11.741,0,0,0,.6,3.99C822.3,5796.88,823.734,5791.24,825.046,5788.86Zm4.41,10.02c-2.6-.86-2.858-4.69-2.579-6.99,1.714,0.08,1.847,1.73,2.243,3.01a12.235,12.235,0,0,0,2.188,3.93A2.867,2.867,0,0,1,829.456,5798.88Zm5.658,0.59a2.934,2.934,0,0,1-1.528-.05,4.426,4.426,0,0,1-2.042-1.78,10.457,10.457,0,0,1-1.885-3.76c1.586-.39,2.277.62,3.1,1.76a41.564,41.564,0,0,0,3.367,3.33A5.492,5.492,0,0,1,835.114,5799.47Zm4.311-.63a2.714,2.714,0,0,1-2.222-.29,19.518,19.518,0,0,1-4.085-3.8c1.173-.9,2.329-0.39,3.244.43a15.973,15.973,0,0,0,4.531,2.66A2.681,2.681,0,0,1,839.425,5798.84Zm4.492-1.82c-2.019,1.17-5.5-1.16-7.046-2.47,1.221-1.43,2.692-.63,4.088-0.04a27.493,27.493,0,0,0,4.171,1.27A2.971,2.971,0,0,1,843.917,5797.02Zm4.033-2.58a0.363,0.363,0,1,1-.035.04c-0.316.24-.179,0.13-0.04,0.02-1.939,1.4-5.458-.29-7.384-1.12,0.839-1.7,2.553-1.23,4-.92a32.468,32.468,0,0,0,4.389.62A2.909,2.909,0,0,1,847.95,5794.44Zm3.523-3.06a0.579,0.579,0,1,1-.043.05c-0.29.28-.153,0.14-0.023,0.02-1.75,1.63-5.4.47-7.476,0.01,0.6-1.88,2.359-1.65,3.878-1.54a36.319,36.319,0,0,0,4.426.04A2.566,2.566,0,0,1,851.473,5791.38Zm1.221-2.36a49.606,49.606,0,0,1-5.588-.03c0.325-1.89,2.125-2.03,3.669-2.08a43.18,43.18,0,0,0,4.4-.4A2.7,2.7,0,0,1,852.694,5789.02Zm2.858-3.48a54.927,54.927,0,0,1-5.58.54c0.22-2.48,3.018-2.38,4.826-2.64,1.009-.15,2-0.38,2.993-0.59A2.659,2.659,0,0,1,855.552,5785.54Zm4.253-2.81c-2.284-.34-3.906-2.98-2.322-5.74,0.241-.42.48-1.23,0.977-0.9a1.436,1.436,0,0,1,.568,1.64,6.409,6.409,0,0,0,2.73,4.67A2.887,2.887,0,0,1,859.805,5782.73Zm6.05-.91a0.775,0.775,0,0,1-.807.71H865.03c-0.59.12-.16,0.03-0.008,0-1.7.33-3.157-1.09-4.153-2.3-0.341-.42-1.258-2.01-0.949-2.58,1.571-.8,2.627,1.37,3.717,2.21a17.439,17.439,0,0,0,1.493,1.01C865.724,5781.23,866.119,5781.11,865.855,5781.82Zm-3.038-3.77a2.352,2.352,0,0,1,1.2-.67c-0.108.02-.189,0.04,0.006,0,0.32-.06.151-0.03,0.009,0a3.03,3.03,0,0,1,2.151.59,3.5,3.5,0,0,0-.066,1.28c0.017,0.14.447,1.38,0.455,1.37A15.59,15.59,0,0,1,862.817,5778.05Zm3.563,9.42c-0.011-.42,0-0.19,0,0-0.065-2.38,3.337-4.38,4.979-5.71,1.028,1.7-.253,2.96-1.4,4.04a30.4,30.4,0,0,0-3.014,3.29,2.812,2.812,0,0,1-.567-1.62C866.386,5787.62,866.39,5787.73,866.38,5787.47Zm4.734-1.57c1.117,1.62.038,2.85-.946,4.09a17.671,17.671,0,0,0-2.334,3.84C864.95,5791.22,869.219,5787.62,871.114,5785.9Zm-0.717,12.11c0.012,0.12.025,0.25,0.039,0.37-4.313-1.27-.7-6.49.885-8.47,1.394,1.32.424,2.68-.166,4.07A9.469,9.469,0,0,0,870.4,5798.01Zm4.217,3.21c-4.216.31-3.532-5.32-2.346-7.72,1.7,0.76,1.074,2.45,1.244,3.92a8.044,8.044,0,0,0,1.571,3.71Zm3.734,0.86c-1.573-.07-2.416-1.24-3.147-2.5-0.275-.42-1.508-3.05-0.987-3.53,1.668-.16,2.024,1.21,2.8,2.36a11.287,11.287,0,0,0,3.166,3.1A2.9,2.9,0,0,1,878.348,5802.08Zm5.235-.96c-2.468.94-5.268-1.91-6.364-3.91,1.865-1.14,3.361.97,4.933,1.73a23.114,23.114,0,0,0,2.835,1A2.869,2.869,0,0,1,883.583,5801.12Zm-2.916-4.05c1.219-1.57,2.772-.73,4.343-0.35a19.794,19.794,0,0,0,3.9.51C887.946,5800.85,882.524,5798.59,880.667,5797.07Zm10.8-1.54c0.083-.09.3-0.3-0.008,0.01,0.005-.01.005-0.01,0.008-0.01a0.065,0.065,0,0,0-.015.01c-1.683,1.61-5.474.67-7.471,0.03,0.676-1.83,2.343-1.57,3.9-1.49a41.813,41.813,0,0,0,4.336-.05A2.784,2.784,0,0,1,891.467,5795.53Zm1.208-2.44h0c0,0.26-5.049.1-5.6,0.07,0.375-2.33,2.9-2.06,4.655-2.2,1.091-.09,2.176-0.24,3.262-0.38A2.553,2.553,0,0,1,892.675,5793.09Zm5.549-12.22c1.506,1.56.2,3.29-.746,4.69-0.693,1.12-1.352,2.24-1.962,3.41C892.752,5786.62,896.711,5782.83,898.224,5780.87Zm-0.674,11.37c0.038-.11.061-0.18-0.021,0.05s-0.053.15-.016,0.05c-0.117.33-.227,0.67-0.324,1.01h0c-3.176-1.9.313-6.35,1.716-8.38C901.011,5786.88,898.331,5790.18,897.55,5792.24Zm3.055,0.45a16.08,16.08,0,0,0-.7,3.52c0.009-.11.013-0.21-0.012,0.09,0,0.05,0,.06,0,0.05-0.016.37-.018,0.73-0.01,1.1-1.863-.55-2.22-2.42-1.762-4.06,0.1-.34,1.337-4.49,1.837-4.49C901.408,5789.89,901.063,5791.28,900.605,5792.69Zm0.942-.21c1.9,0.63,1.391,2.65,1.433,4.17a9.833,9.833,0,0,0,1.052,3.88C899.633,5801.19,900.811,5794.78,901.547,5792.48Zm5.677,9.47c0.162,0.03.414,0.08,0,0-2.7-.47-3.583-4.25-3.426-6.62,1.772,0.09,1.922,1.49,2.554,2.81a11.089,11.089,0,0,0,2.73,3.47A2.866,2.866,0,0,1,907.224,5801.95Zm5.142-.14c0.138-.03.38-0.08-0.044,0.02a0.08,0.08,0,0,1,.044-0.02,0.294,0.294,0,0,0-.066.02c-2.427.35-4.845-2.82-5.582-4.85,1.729-.77,2.725.75,3.88,1.76a15.254,15.254,0,0,0,3.315,2.21A3.2,3.2,0,0,1,912.366,5801.81Zm4.735-1.52c-2.5,1.06-5.132-1.5-6.881-3.04,1.429-1.44,3.011-.08,4.4.57a16.609,16.609,0,0,0,3.769,1.21A2.672,2.672,0,0,1,917.1,5800.29Zm2.6-2.04c-1.976.19-4.1-.95-5.848-1.76,0.821-1.49,2.28-1.14,3.612-.81,0.262,0.06.524,0.11,0.794,0.15,0.741,0.12.544,0.4,0.886,1.02C919.38,5797.27,920.651,5798.16,919.7,5798.25Zm0.688-1.26c-3-2.77,1.758-6.17,3.715-7.77,0.917,1.52.014,2.62-.966,3.7a13.085,13.085,0,0,0-2.746,4.07h0Zm3.035,0.99a6.774,6.774,0,0,0,.153,3.63,3.11,3.11,0,0,1-2.363-4.07,11.546,11.546,0,0,1,2.8-4.33C925.5,5794.82,923.817,5796.34,923.422,5797.98Zm3.376,5.55a3.641,3.641,0,0,1-2.584-3.36,7.121,7.121,0,0,1,.592-3.58c1.557,0.56,1.162,2.14,1.608,3.45a10.3,10.3,0,0,0,2.3,3.28A2.883,2.883,0,0,1,926.8,5803.53Zm5.175,0.17c-1.674.13-2.761-1.06-3.725-2.27-0.384-.48-2.006-2.74-1.157-2.99,1.553-.45,2.348,1.27,3.315,2.12a16.366,16.366,0,0,0,3.191,2.36A2.731,2.731,0,0,1,931.973,5803.7Zm4.814-1.23c0.139-.04.24-0.08-0.011,0.01-0.414.14-.2,0.07-0.014,0-2.512.86-5-1.84-6.658-3.42,1.546-1.42,2.972.08,4.375,0.78a21.869,21.869,0,0,0,3.648,1.51A2.776,2.776,0,0,1,936.787,5802.47Zm4.284-2.2c-2.165,1.29-5.348-.69-7.273-1.81,1.153-1.78,2.968-.7,4.5-0.31a26.635,26.635,0,0,0,3.856.77A2.706,2.706,0,0,1,941.071,5800.27Zm3.753-2.88c-1.871,1.6-5.425.19-7.49-.43,0.709-1.78,2.43-1.45,3.929-1.26a31.049,31.049,0,0,0,4.417.21A2.587,2.587,0,0,1,944.824,5797.39ZM946.2,5795a37.334,37.334,0,0,1-5.594-.26c0.608-2.71,4.059-1.67,6-2C946.6,5793.82,947.7,5794.96,946.2,5795Zm0.422-5.77c-0.43-2.27,2.474-4.87,3.851-6.46,1.674,1.85-.371,3.85-1.4,5.36-0.574.84-1.13,1.69-1.689,2.54A2.928,2.928,0,0,1,946.622,5789.23Zm1.719,5.74c-2.544-2.25,1.321-6.17,2.662-8.08,1.951,1.92-.378,4.4-1.438,6.09C949.145,5793.64,948.75,5794.31,948.341,5794.97Zm0.218,2.88c-0.421-1.66,1.111-3.37,1.924-4.68,0.438-.71.89-1.41,1.337-2.12,2.351,2.09-1.234,6.14-2.415,8.17A2.984,2.984,0,0,1,948.559,5797.85Zm-2.867,6.19c-0.11.06-.192,0.11,0.009-0.01,0.325-.19.154-0.09,0.009,0,1.8-1.03,5.461.53,7.434,0.94-1.252,3.16-6.17.85-8.482,0.24A2.555,2.555,0,0,1,945.692,5804.04Zm8.079,1.65a2.871,2.871,0,0,0,.231-0.42c0.155-.27,1.4-0.29,1.793-0.48a2.628,2.628,0,0,1-.194,2.09c-0.913,1.64-1.83,3.29-2.745,4.93-1.72-1.38-.7-3.22.137-4.73A9.338,9.338,0,0,1,953.771,5805.69Zm-1.9,1.61c-0.062.11-.125,0.22-0.185,0.33-0.063-.07-0.128-0.14-0.192-0.21A0.668,0.668,0,0,1,951.87,5807.3ZM942,5806.27c-0.116.07-.2,0.12,0.006-0.01,0.338-.21.154-0.09,0,0,1.856-1.13,5.473.61,7.438,1.06-1.244,2.99-6.213.71-8.512,0.17A2.689,2.689,0,0,1,942,5806.27Zm-3.765,2.33c1.916-1.2,5.4.44,7.464,0.98-0.78,1.84-2.569,1.58-4.147,1.2-1.438-.35-2.872-0.65-4.331-0.88A2.553,2.553,0,0,1,938.231,5808.6Zm-3.67,2.63c-0.1.07-.17,0.12,0.019-0.02,0.318-.23.161-0.11,0.019-0.01,1.887-1.33,5.4.11,7.5,0.6-1.178,2.96-6.172.96-8.488,0.72A2.578,2.578,0,0,1,934.561,5811.23Zm-3.486,2.86c1.815-1.59,5.381-.3,7.548.07-0.6,1.83-2.418,1.75-3.98,1.59-1.477-.14-2.96-0.21-4.443-0.26A2.794,2.794,0,0,1,931.075,5814.09Zm-3.274,3.26c-0.1.11-.176,0.19,0,0,0.286-.31.127-0.14,0,0,1.651-1.8,5.367-.86,7.521-0.66,0,1.68-2.142,1.91-3.33,1.91a47.561,47.561,0,0,0-4.92.26A2.762,2.762,0,0,1,927.8,5817.35Zm-1.1,2.52a31.848,31.848,0,0,1,5.6-.4c-0.2,1.92-1.98,2.11-3.49,2.31a24.9,24.9,0,0,0-4.355.96A2.79,2.79,0,0,1,926.7,5819.87Zm-2.474,3.92a26.26,26.26,0,0,1,5.463-1.25c0.067,1.89-1.663,2.36-3.1,2.78a24.188,24.188,0,0,0-4.075,1.7A2.741,2.741,0,0,1,924.226,5823.79Zm-1.791,4.3a25.308,25.308,0,0,1,5.174-2.18c0.408,1.88-1.218,2.58-2.553,3.25a31.077,31.077,0,0,0-3.758,2.37A2.84,2.84,0,0,1,922.435,5828.09Zm-1.688,5.44a0.281,0.281,0,1,1,.019-0.03c0.834-1.78,3.672-3.11,5.363-3.94,0.713,1.84-.67,2.73-1.933,3.67a17.1,17.1,0,0,0-3.155,3.16,2.954,2.954,0,0,1-.3-2.82A0.282,0.282,0,1,1,920.747,5833.53Zm4.582-.1c0.962,1.66-.161,2.69-1.119,3.93a16.171,16.171,0,0,0-2.232,3.8C918.9,5838.82,923.324,5834.73,925.329,5833.43Zm-1.017,11c-0.068.38-.126,0.75-0.176,1.12-3.584-1.75-.385-6.33,1.274-8.34,1.215,1.06.7,2.41,0.111,3.6A13.271,13.271,0,0,0,924.312,5844.43Zm3.1,4.8a3.187,3.187,0,0,1-1.6-.85c-1.928-1.83-.2-5.48.605-7.52,1.666,0.9,1.157,2.43.956,3.94A16.935,16.935,0,0,0,927.408,5849.23Zm-0.191-8.86c-0.664-.44-0.268-0.5-0.2-1.22a2.5,2.5,0,0,0-.2-1.39,3.045,3.045,0,0,0-.9-1.18,3.108,3.108,0,0,0,.679-1.81,2.866,2.866,0,0,0-.339-1.37c-0.372-.74,0-0.56.433-1.2a3.2,3.2,0,0,0,.207-3,3.125,3.125,0,0,0,1.5-2,2.961,2.961,0,0,0,.01-1.53,3.444,3.444,0,0,0,1.326-.93,2.965,2.965,0,0,0,.768-2.32,3.506,3.506,0,0,0,2.1-1.33,3.024,3.024,0,0,0,.473-1.18c0.12-.68.287-0.44,0.9-0.63a3.087,3.087,0,0,0,2.077-2.08c0.2-.66.337-0.4,0.968-0.55a3.533,3.533,0,0,0,1.559-.83,3.322,3.322,0,0,0,.884-1.53,3.386,3.386,0,0,0,1.713-.35,3.751,3.751,0,0,0,1.085-.8c0.49-.54.394-1.13,1.137-1.13a3.348,3.348,0,0,0,2.933-1.81c0.377-.7,2.073-0.53,2.882-1.18a3.573,3.573,0,0,0,1.092-1.52,5.565,5.565,0,0,1,.954.92,3.563,3.563,0,0,0,.237,3.16c0.38,0.64.982,0.74,0.788,1.46a3.518,3.518,0,0,0,.014,1.85c0.239,0.87,1.347,1.58,1.147,2.32a3.5,3.5,0,0,0,.356,2.69,3.367,3.367,0,0,0,.92,1.02,3.645,3.645,0,0,0-.288,1.69,3.323,3.323,0,0,0,.436,1.42c0.428,0.75.943,0.7,0.686,1.57a3.444,3.444,0,0,0,.473,2.9c0.435,0.63.659,0.38,0.374,1.17a3.63,3.63,0,0,0-.2,1.57,3.35,3.35,0,0,0,.589,1.44c0.484,0.7.09,0.62-.178,1.37a3.039,3.039,0,0,0-.157,1.53c0.127,0.82.776,1.15,0.229,1.81a2.938,2.938,0,0,0-.6,2.75c0.252,0.83-.077.51-0.627,1.06a2.661,2.661,0,0,0-.715,1.12,3.405,3.405,0,0,0-.072,1.41,3.561,3.561,0,0,0-1.3.47,2.542,2.542,0,0,0-.847.98,3.036,3.036,0,0,0-.28.94,2.713,2.713,0,0,0-.983-0.06,3.06,3.06,0,0,0-2.212,1.63,3.01,3.01,0,0,0-2.88.18c-0.667.44-.5,0.77-1.27,0.41a3.165,3.165,0,0,0-1.517-.27,2.735,2.735,0,0,0-1.219.32,3.462,3.462,0,0,0-.718.51,3.97,3.97,0,0,0-.893-0.6,3.136,3.136,0,0,0-2.938.28,2.989,2.989,0,0,0-2.6-1.19c-0.759.01-.756,0.44-1.22-0.25a3.2,3.2,0,0,0-1.009-.99,3.329,3.329,0,0,0-1.35-.34c-0.862-.03-0.555-0.65-1.007-1.33a2.664,2.664,0,0,0-1.032-.87c-0.689-.35-0.913.05-0.9-0.8A2.8,2.8,0,0,0,927.217,5840.37Zm2.684,11.11c0.107,0.05.175,0.1-.093-0.05a0.244,0.244,0,1,1-.026-0.02c-2.3-1.36-1.705-5.08-1.459-7.35,1.776,0.28,1.8,2.03,1.979,3.43a14.117,14.117,0,0,0,1.259,4.3A2.542,2.542,0,0,1,929.9,5851.48Zm4.562,1.84c0.122,0.03.216,0.06-.084-0.02-0.133-.04-0.1-0.03-0.023-0.01-2.35-.67-3.176-4.55-3.33-6.7,1.833-.05,2.285,1.36,2.861,2.78a17.011,17.011,0,0,0,2.241,3.87A2.634,2.634,0,0,1,934.463,5853.32Zm4.659,0.79c-2.3-.02-4.11-3.91-4.766-5.8,1.808-.49,2.6.74,3.512,2.04a27.891,27.891,0,0,0,2.921,3.36A2.943,2.943,0,0,1,939.122,5854.11Zm4.676,0.02c-2.4.09-4.472-3.15-5.692-4.92,1.707-.96,2.839.33,3.967,1.43a33.13,33.13,0,0,0,3.306,2.84A2.66,2.66,0,0,1,943.8,5854.13Zm4.683-.69c-2.445.49-4.837-2.47-6.419-4.02,1.554-1.25,2.921-.08,4.173.87a21.981,21.981,0,0,0,3.745,2.24A2.479,2.479,0,0,1,948.481,5853.44Zm4.632-1.63c-2.394,1.05-5.209-1.37-7.05-2.72,1.273-1.49,2.79-.52,4.156.14a15.351,15.351,0,0,0,4.183,1.3A2.7,2.7,0,0,1,953.113,5851.81Zm4.23-2.99c0.078-.08.109-0.11-0.053,0.06-0.315.32-.164,0.17-0.026,0.02-1.841,1.84-5.53.14-7.457-.81,0.943-1.82,2.817-.97,4.35-0.77a13.4,13.4,0,0,0,4-.08A3.03,3.03,0,0,1,957.343,5848.82Zm1.237-2.65a12.247,12.247,0,0,1-5.551.11c0.327-1.94,2.423-1.75,3.879-2a15.833,15.833,0,0,0,3.714-1.36A2.862,2.862,0,0,1,958.58,5846.17Zm2.147-4.36a11.5,11.5,0,0,1-2.728,1.27,12.694,12.694,0,0,1-2.51.57c-0.124-1.88,1.317-2.28,2.687-2.99a20.173,20.173,0,0,0,3.648-2.43A3.087,3.087,0,0,1,960.727,5841.81Zm0.917-4.65a18.486,18.486,0,0,1-4.616,3.13c-0.757-1.7.695-2.72,1.825-3.63a22.52,22.52,0,0,0,3.179-3.11A2.775,2.775,0,0,1,961.644,5837.16Zm-0.086-8.21a2.546,2.546,0,0,1,.7,1.52c-0.017-.14-0.029-0.24,0,0.02,0.048,0.41.022,0.19,0,.01,0.26,2.33-2.859,4.74-4.548,5.98-1-1.64.094-2.84,1.156-4.01A28.413,28.413,0,0,0,961.558,5828.95Zm-0.087-2.97c0.521,2.16-2.386,5.03-3.753,6.49-1.619-1.92.356-3.82,1.4-5.43,0.531-.81,1.029-1.64,1.542-2.47A2.753,2.753,0,0,1,961.471,5825.98Zm-1.861-5.68a2.71,2.71,0,0,1,.837,1.36c-0.033-.13-0.055-0.22,0,0.01,0.094,0.38.045,0.18,0,.02,0.525,2.17-2.147,5.05-3.322,6.74-1.778-1.64-.17-3.64.76-5.21C958.468,5822.25,959.038,5821.28,959.61,5820.3Zm-0.273-2.87c-0.034-.13-0.062-0.23,0,0,0.1,0.39.047,0.17,0,.01,0.562,2.1-2.058,5.1-3.117,6.86-2.4-2.05,1.087-6.15,2.249-8.21A2.567,2.567,0,0,1,959.337,5817.43Zm-1.156-4.2c0.43,1.54-.884,3.15-1.6,4.42-0.469.83-.949,1.66-1.427,2.49-2.461-2.03,1-6.17,2.151-8.24A2.619,2.619,0,0,1,958.181,5813.23Zm-1.18-4.19c-0.034-.12-0.062-0.22,0,0.01,0.106,0.37.049,0.17,0,.01,0.424,1.53-.876,3.14-1.58,4.41-0.466.84-.935,1.68-1.4,2.51-2.493-2.03.948-6.18,2.108-8.26A2.615,2.615,0,0,1,957,5809.04Zm-1.223-5.25h0c-1.779,1.23-5.524-.34-7.474-0.79,1.017-2.51,4.084-1.3,6-.94,0.823,0.16,1.652.31,2.471,0.46A2.953,2.953,0,0,1,955.778,5803.79Zm3.6-2.52c-1.816,1.3-5.42-.17-7.491-0.58,1.143-2.98,6.158-1.06,8.453-.72A2.593,2.593,0,0,1,959.375,5801.27Zm3.527-2.64c-1.324,1.05-3.5.31-4.988,0.07-0.841-.14-1.684-0.29-2.523-0.43,0.79-2.32,3.27-1.64,5.083-1.4,1.114,0.16,2.232.3,3.349,0.43A2.636,2.636,0,0,1,962.9,5798.63Zm3.454-2.75c0.1-.08.183-0.15,0,0.01-0.308.25-.14,0.11,0,0-1.71,1.39-5.472.16-7.516-.14,0.723-2.34,3.219-1.73,5.038-1.54,1.119,0.11,2.241.22,3.364,0.32A2.606,2.606,0,0,1,966.356,5795.88Zm3.357-2.87c-1.19,1.1-3.237.57-4.659,0.44-0.955-.09-1.907-0.2-2.861-0.3,0.634-2.37,3.152-1.84,4.972-1.72,1.126,0.07,2.252.12,3.378,0.18A2.7,2.7,0,0,1,969.713,5793.01Zm3.283-3.07c0.087-.09.139-0.14-0.023,0.03-0.272.26-.15,0.14-0.029,0.01-1.657,1.57-5.422.61-7.491,0.44,0.566-2.37,3.063-1.95,4.891-1.91,1.131,0.03,2.257.01,3.389-.01A2.807,2.807,0,0,1,973,5789.94Zm3.089-3.3c0.075-.09.28-0.34,0,0.01a0.019,0.019,0,0,1,0-.01c0,0.01,0,.01-0.006.01-1.513,1.78-5.346,1-7.493.94,0.386-2.19,2.542-2.07,4.238-2.15,1.321-.04,2.611-0.19,3.921-0.36A2.876,2.876,0,0,1,976.085,5786.64Zm2.848-3.99c-1.332,2.26-5.121,1.9-7.41,1.97,0.253-2.68,3.409-2.24,5.283-2.81,0.429-.16.893-1.03-0.731-0.67-0.546.11-1.421,0.3-2.008,0.37a1.3,1.3,0,0,1,.084-0.9C976.015,5777.27,980.638,5779.6,978.933,5782.65Zm11.911,17.16a3.614,3.614,0,0,0-1-1.54c-0.243-.22-0.525-0.39-0.764-0.61a5.892,5.892,0,0,1-.574-0.79,3.81,3.81,0,0,0-3.491-1.41,3.887,3.887,0,0,0-1.931.78,3.33,3.33,0,0,0-.735.8,3.61,3.61,0,0,1-.257.41,1.062,1.062,0,0,1-.281.22,3.53,3.53,0,0,0-1.273,1.25,4.114,4.114,0,0,0-.557,1.76,3.82,3.82,0,0,0,1.836,3.59,1.41,1.41,0,0,1,.492.56,3.1,3.1,0,0,0,.585.7,3.861,3.861,0,0,0,6.009-1.13,3.506,3.506,0,0,0,1.884-2.17,4.238,4.238,0,0,0,.2-1.37,4.166,4.166,0,0,0-.07-0.71,2.677,2.677,0,0,0-.118-0.45,1.061,1.061,0,0,0,.066.21s-0.024-.1-0.026-0.1C990.605,5799.12,990.944,5800.18,990.844,5799.81Zm-6.662-3.26a2.952,2.952,0,0,1,3.03.24,2.779,2.779,0,0,1,.717,3.29,1.23,1.23,0,0,1-1.08.84,0.765,0.765,0,0,1-.482-0.18,0.651,0.651,0,0,1-.133-0.56,2.737,2.737,0,0,0,.05-0.68,1.815,1.815,0,0,0-.318-0.76,3.421,3.421,0,0,0-1.287-1.04,3.074,3.074,0,0,0-1.415-.38,2.823,2.823,0,0,1,.5-0.52c0.035-.02.449-0.28,0.452-0.27,0-.01-0.162.08-0.179,0.08a0.72,0.72,0,0,0,.14-0.06C985.359,5795.95,983.785,5796.73,984.182,5796.55Zm-1.521,4.34a3.748,3.748,0,0,0-.794,2.32,2.73,2.73,0,0,1-1.044-2.63,2.951,2.951,0,0,1,.547-1.37,2.374,2.374,0,0,1,1.367-.87,2.888,2.888,0,0,1,1.92.2,1.349,1.349,0,0,1,.786,1.51,0.386,0.386,0,0,1-.574.2,1.852,1.852,0,0,0-2.208.64C982.149,5801.41,983.336,5800.2,982.661,5800.89Zm2.831,4.82c-2.367-.02-3.775-3.06-1.719-4.62a0.924,0.924,0,0,1,.894-0.13c0.088,0.03.513,0.24,0.255,0.58a1.755,1.755,0,0,0,.456,2.25,3.294,3.294,0,0,0,2.348.83,2.8,2.8,0,0,1-2.234,1.09C983.125,5805.69,986.327,5805.69,985.492,5805.71Zm4.7-4.6a3.2,3.2,0,0,1-.577,1.59,2.33,2.33,0,0,1-1.37.88,2.176,2.176,0,0,1-2.578-.77,1.131,1.131,0,0,1,.1-1.23,0.528,0.528,0,0,1,.578.01,1.553,1.553,0,0,0,.631.14,2.161,2.161,0,0,0,1.869-1.57,3.974,3.974,0,0,0,.277-1.43,2.913,2.913,0,0,1,1.071,2.38C990.085,5802.19,990.239,5800.3,990.192,5801.11Zm-4.748-1.06h0Zm0,0h0Zm0.966,1.24h0Zm0,0c0,0.01,0-.01,0,0h0Z" transform="translate(-611 -5717)"/>
</svg>
