<svg xmlns="http://www.w3.org/2000/svg" width="50" height="46" viewBox="0 0 50 46">
  <defs>
    <style>
      .cls-1 {
        fill: #ffa826;
        fill-rule: evenodd;
      }
    </style>
  </defs>
  <path class="cls-1" d="M289.6,6223.31c-0.874-.51-2.428-0.35-3.621-0.55a29,29,0,0,1-3.76-.42,12.45,12.45,0,0,1-3.062.14c-1.042.04-2.142,0.14-3.2,0.14-6.794,0-13.343.15-19.772,0.28-0.782.14-1.677,0.18-2.508,0.27a17.562,17.562,0,0,1-.975-4.57c-0.112-.81-0.288-1.55-0.416-2.35a4.981,4.981,0,0,1-.419-0.97,3.346,3.346,0,0,1-.557-0.97c-0.785,0-1.151-.43-2.089-0.28a0.868,0.868,0,0,1-.695.14c-1.555.58-2.8,1.46-4.316,2.08-1.584.22-2.834,0.78-3.2,2.21a2.3,2.3,0,0,0,.416,1.81c0.093,0.64.741,0.74,1.114,1.1h1.673c0.021-.25.471-0.08,0.556-0.27,0.033-.25.239-0.32,0.558-0.28-0.053-.61.4-0.71,0.417-1.25v-1.8c1.794,0.03,2.186-1.33,4.039-1.24,0.745,4.66,1.992,8.82,2.783,13.43,0.981,4.43,1.805,9.01,2.785,13.44a6.359,6.359,0,0,0-1.949.28,12.388,12.388,0,0,1-1.95,1.38,7.966,7.966,0,0,0-1.669,1.8v2.36a6.959,6.959,0,0,1,.834.97,4.22,4.22,0,0,1,1.115.69c4.286,0.89,9.073-.32,12.949-1.11,3.746,0.29,7.89.19,11.7,0.42H282.5c0.193,0.31.97,0.05,1.392,0.14h1.532c1.038,0.01,1.812-.23,1.95-1.11a1.452,1.452,0,0,0-1.394-1.67c-3.141-.01-6.383.08-9.328-0.13H264.12c-1,.15-1.868.45-2.925,0.55-0.727.43-2.143,0.18-2.786,0.69-1.256-.09-2.085.24-3.34,0.14-1.17.01-2.39,0.07-2.785-.69,0.3-.9,1.367-1.04,1.809-1.8a8.194,8.194,0,0,1,1.394-.42c0.015-.26.459-0.09,0.417-0.41a0.564,0.564,0,0,1,.556-0.42c0.2,0.51.728-.11,1.114,0.28a1.03,1.03,0,0,0,1.114.55c6.288-.09,12.25-1.17,18.52-0.83,0.838-.18,1.76-0.28,2.644-0.41H283.2c1.341,0.13,3.166.56,4.178-.14,0.626-.74,0-2,0.835-2.63,0.018-1.28.41-2.18,0.418-3.47a23.068,23.068,0,0,0,.974-2.77c0.428-.87.625-1.96,1.115-2.77C291.093,6229.67,291.352,6225.2,289.6,6223.31Zm-17.962,1.94c0.068,1,.235,1.89.278,2.91a5.282,5.282,0,0,1,.14,1.53c0.334,0.17-.078,1.09.278,1.24-0.06.31-.686,0.06-0.974,0.14h-1.113a36.242,36.242,0,0,1-5.015.28c-0.55-2.04-1.282-3.9-1.67-6.1h8.076Zm-15.6,7.9c-0.662-2.76-1.441-5.4-1.949-8.31a58.176,58.176,0,0,0,8.216.41c-0.065,2.47.847,3.96,0.7,6.51-1.85.01-3.255,0.46-5.014,0.56C257.3,6232.56,256.718,6232.9,256.042,6233.15Zm4.317,10.25a12.748,12.748,0,0,0-2.089.55c-0.651-3.13-1.42-6.16-1.948-9.42,2.212,0.64,4.638-.06,7.1,0,0.512,2.26-.007,5.55.556,7.76a4.744,4.744,0,0,0,1.114.56c2.263-.33,1.111-3.84,1.253-5.96a13.111,13.111,0,0,1-.417-2.63,43.592,43.592,0,0,1,6.545-.42c0.068,2.93.226,5.78,0.556,8.45C268.824,6242.68,264.7,6243.15,260.359,6243.4Zm18.8-1.52a24.825,24.825,0,0,1-4.734.41c-0.132-2.82-.446-5.46-0.418-8.45h5.431C279.625,6236.26,279,6239.03,279.157,6241.88Zm0.557-10.81c-1.815.36-3.879-.19-5.987,0-0.059-2.06-.457-3.79-0.559-5.82a51.4,51.4,0,0,1,6.684,0C279.674,6227.06,279.709,6229.08,279.714,6231.07Zm8.215,1.8c-0.986,1.47-1.3,3.61-2.226,5.13a30.783,30.783,0,0,1-.559,4.01,42.064,42.064,0,0,0-4.316-.27c0.62-2.25.585-5.15,0.836-7.76,1.711-.33,3.951-0.13,4.872-1.25-1.031-.91-2.877-1.01-4.733-1.11v-6.51c2.046,0.14,3.987.38,6.126,0.42A22.71,22.71,0,0,1,287.929,6232.87Zm-25.064,18.7c-0.894.01-1.9-.6-2.783-0.14a7.063,7.063,0,0,0-3.2,1.11,4.288,4.288,0,0,0-1.253,2.36,3.2,3.2,0,0,0,.558,1.93c-0.431.61,0.227,1.11,0.139,1.81,0.613,0.31.8,1.04,1.532,1.24,1.318,0.38,2.628-.17,3.758-0.41a0.756,0.756,0,0,1,.7-0.42,6.247,6.247,0,0,0,2.228-4.01v-0.84A5.664,5.664,0,0,0,262.865,6251.57Zm-1.392,4.16c-0.521.22-.618,0.86-1.253,0.97a9.357,9.357,0,0,1-2.366-1.25c0.183-1.58,2.424-2.24,4.037-1.52A2.515,2.515,0,0,1,261.473,6255.73Zm23.533-3.19c-0.646-.14-0.73-0.84-1.393-0.97a3.932,3.932,0,0,0-2.229,0c-0.791-.05-1.194.29-1.948,0.28a7.668,7.668,0,0,1-1.531.83c-0.269.56-.962,0.71-1.115,1.39a14.793,14.793,0,0,0-.139,3.18,3.949,3.949,0,0,0,.695.83c0.118,0.39.638,0.38,0.7,0.83,0.617-.15.693,0.24,1.114,0.28a6.806,6.806,0,0,0,2.924-.41,2.464,2.464,0,0,0,1.114-.56c0.52-.08.566-0.64,1.114-0.69a7.938,7.938,0,0,0,1.114-3.33A8.682,8.682,0,0,1,285.006,6252.54Zm-3.76,3.74c-0.917-.19-2.316.09-2.089-1.24a1.357,1.357,0,0,1,.975-0.7,9.032,9.032,0,0,0,1.114-.41,7.755,7.755,0,0,1,1.531,0A2.475,2.475,0,0,1,281.246,6256.28Z" transform="translate(-241 -6214)"/>
</svg>
