<svg xmlns="http://www.w3.org/2000/svg" width="50" height="46" viewBox="0 0 50 46">
  <defs>
    <style>
      .cls-1 {
        fill: #ffa826;
        fill-rule: evenodd;
      }
    </style>
  </defs>
  <path class="cls-1" d="M303.984,5889.54a14.057,14.057,0,0,0-.119-2.24c-0.012-.26-0.022-0.4-0.024-0.54a25.238,25.238,0,0,0-1.535-7.51,5.615,5.615,0,0,0-.691-1.37,1.433,1.433,0,0,0-2.189-.15c-0.77.81-1.544,1.61-2.317,2.41a0.281,0.281,0,0,1-.471.01,12.528,12.528,0,0,0-5.279-3.54,5.469,5.469,0,0,0-2.038-.42,7.083,7.083,0,0,1-1.524-.14,1.669,1.669,0,0,0-1.325.28,2.284,2.284,0,0,0-.887,1.05,8.191,8.191,0,0,1-.547,1.13c-0.866,1.39-1.748,2.76-2.638,4.13a11.2,11.2,0,0,1-.833,1.12c-0.515.6-1.04,1.2-1.592,1.77-0.909.93-1.836,1.86-2.77,2.77-0.767.75-1.59,1.44-2.329,2.22a23.808,23.808,0,0,1-3.834,3.25c-3.891,2.66-7.776,5.32-11.443,8.29a8.229,8.229,0,0,1-1.084.62,5.971,5.971,0,0,0-.818.52c-0.424.36-.812,0.76-1.216,1.15a6.635,6.635,0,0,0-1.654,2.23,14.473,14.473,0,0,0-.821,4.94,1.279,1.279,0,0,0,.045.42c0.32,1.12.614,2.25,0.985,3.35a6.806,6.806,0,0,0,1.155,2.07,13.354,13.354,0,0,0,4.563,3.63,4.069,4.069,0,0,0,1.456.46c0.924,0.09,1.84.31,2.764,0.35a5.6,5.6,0,0,0,3.724-.91c0.187-.14.384-0.26,0.572-0.4,1.36-.99,2.416-2.33,3.785-3.31a2.935,2.935,0,0,0,.383-0.41c0.976-1.06,1.925-2.16,2.939-3.19a21.017,21.017,0,0,0,2.277-2.65,19.966,19.966,0,0,1,4.729-4.52,0.5,0.5,0,0,1,.741.12,2.346,2.346,0,0,0,1.439,1.01,0.466,0.466,0,0,1,.286.68c-0.077.27-.171,0.53-0.252,0.8a22.978,22.978,0,0,0-.9,6.78,7.186,7.186,0,0,0,1.249,3.94,24.232,24.232,0,0,0,1.856,2.08,0.769,0.769,0,0,0,.508.18,4.714,4.714,0,0,0,.835-0.07,0.856,0.856,0,0,0,.937-0.97c0.018-.7.016-1.4,0.032-2.1a1.13,1.13,0,0,1,.087-0.4,0.286,0.286,0,0,1,.206-0.14,1.854,1.854,0,0,1,.515.18c0.571,0.32,1.121.67,1.7,0.97a1.151,1.151,0,0,0,1.6-.64,1.38,1.38,0,0,0-.109-1.45,6.319,6.319,0,0,1-.371-0.59,0.4,0.4,0,0,1,.037-0.25,0.122,0.122,0,0,1,.11-0.06,3,3,0,0,0,.406.1,1.074,1.074,0,0,0,1.257-1.26,1.816,1.816,0,0,1-.113-0.79,0.954,0.954,0,0,1,.9-0.2c0.647-.07,1.3-0.13,1.942-0.21a0.747,0.747,0,0,0,.671-0.43,0.932,0.932,0,0,0-.155-1.04,1.927,1.927,0,0,0-.42-0.37,18.075,18.075,0,0,1-3.066-2.64,20.863,20.863,0,0,1-2.957-3.89,2.009,2.009,0,0,1-.266-1.48c0.1-.6.145-1.2,0.225-1.8a3.5,3.5,0,0,0-.622-2.53c-0.106-.15-0.225-0.3-0.325-0.45a0.391,0.391,0,0,1,.1-0.61c1.531-1.22,3.04-2.47,4.6-3.65a12.863,12.863,0,0,1,4.235-2.1,5.241,5.241,0,0,0,1.52-.68,4.1,4.1,0,0,1,1.406-.89,0.552,0.552,0,0,0,.287-0.29A2.763,2.763,0,0,0,303.984,5889.54Zm-22.146,4.96c0.015-.01.034-0.01,0.053-0.02s0.026-.03.039-0.05a0.1,0.1,0,0,1,.057-0.01c0.024-.06.047-0.11,0.071-0.17,0.136,0.17.02,0.16-.071,0.17-0.006.01-.013,0.03-0.02,0.04a0.215,0.215,0,0,1-.076.02,0.925,0.925,0,0,1-.082.11A0.171,0.171,0,0,1,281.838,5894.5Zm-1.349-5.88a2.033,2.033,0,0,1,.221.08,0.256,0.256,0,0,1-.093.08,1.871,1.871,0,0,1-.224-0.08A0.678,0.678,0,0,1,280.489,5888.62Zm-17.372,13.43a0.431,0.431,0,0,1,.1-0.1q4.968-3.375,9.934-6.76c0.538-.37,1.04-0.79,1.566-1.18a1.872,1.872,0,0,1,.361-0.17,0.739,0.739,0,0,1,.277.1,21.756,21.756,0,0,1,3.359,2.94,0.324,0.324,0,0,1-.034.49,27.66,27.66,0,0,1-3.471,2.82c-0.757.54-1.547,1.04-2.339,1.53a11.218,11.218,0,0,1-1.247.62c-0.637.29-1.278,0.57-1.924,0.83a1.591,1.591,0,0,0-1.029,1.22,0.453,0.453,0,0,0,.192.58,5.609,5.609,0,0,1,1.857,1.87c0.223,0.35.222,0.4-.067,0.72-0.312.35-.61,0.71-0.944,1.03a1.821,1.821,0,0,1-.993.91,2.715,2.715,0,0,1-.3-1.19,10.182,10.182,0,0,0-1.979-3.98,4.661,4.661,0,0,1-.47-0.69,2.292,2.292,0,0,0-2.261-1.34,2.6,2.6,0,0,1-.551-0.06,0.108,0.108,0,0,1-.092-0.07A0.215,0.215,0,0,1,263.117,5902.05Zm1.872,10.45a1,1,0,0,1-.819.44c-0.458-.02-0.92-0.01-1.373-0.07a0.666,0.666,0,0,1-.391-0.34,0.454,0.454,0,0,1,.16-0.34c0.923-.9,1.853-1.79,2.789-2.68a0.372,0.372,0,0,1,.239-0.02,0.165,0.165,0,0,1,.051.12c0,0.19,0,.37,0,0.47A3.26,3.26,0,0,1,264.989,5912.5Zm5.39,3.85a9.464,9.464,0,0,1-1.275,1.28,27,27,0,0,1-2.568,1.39,1.4,1.4,0,0,1-.543.11,8.357,8.357,0,0,1-6.327-2.04,4.629,4.629,0,0,1-1.3-1.8,15.057,15.057,0,0,1-1.207-5,5.491,5.491,0,0,1,1.456-4.38,2.71,2.71,0,0,1,1.3-.78,9.027,9.027,0,0,1,3.732-.1,0.728,0.728,0,0,1,.544.39c0.14,0.29.276,0.59,0.395,0.89a0.554,0.554,0,0,1-.231.73c-0.514.47-1.036,0.93-1.524,1.43a16.942,16.942,0,0,1-2.687,2.43,1.605,1.605,0,0,0-.834,1.65,1.717,1.717,0,0,0,.478.98,2.027,2.027,0,0,0,.213.18c0.572,0.48,1.145.95,1.717,1.42,0.692,0.06,1.384.11,2.076,0.18,0.231,0.02.458,0.09,0.689,0.1a5.265,5.265,0,0,0,3.315-.86,10.122,10.122,0,0,0,2.99-2.89,8.286,8.286,0,0,1,.563-0.8,1.668,1.668,0,0,1,.329-0.24,0.9,0.9,0,0,1,.175.31c0.049,0.46.071,0.93,0.1,1.4A4.9,4.9,0,0,1,270.379,5916.35Zm11.829-12.22a3.81,3.81,0,0,0-1.19,1.15c-0.4.45-.838,0.88-1.256,1.31-0.45.48-.936,0.92-1.336,1.43-0.632.81-1.351,1.54-2.04,2.3-0.344.38-.632,0.81-0.96,1.2a1.671,1.671,0,0,1-.334.23,1.126,1.126,0,0,1-.175-0.33c-0.071-.56-0.135-1.11-0.172-1.67a7.632,7.632,0,0,0-1.747-4.34c-0.146-.19-0.3-0.36-0.433-0.55a0.306,0.306,0,0,1,.109-0.47c0.307-.21.625-0.41,0.952-0.59a40.4,40.4,0,0,0,4.639-2.85c0.642-.47,1.264-0.96,1.892-1.44a0.4,0.4,0,0,1,.676.13,2.766,2.766,0,0,1,.273.48c0.436,1.13.863,2.27,1.288,3.4a1.712,1.712,0,0,1,.053.3A0.947,0.947,0,0,1,282.208,5904.13Zm3.109-3.49a0.24,0.24,0,0,1-.214.03,1.4,1.4,0,0,1-.253-0.33c-0.5-.78-0.99-1.57-1.493-2.35a0.749,0.749,0,0,1,.279-1.15,0.271,0.271,0,0,1,.234.02,6.414,6.414,0,0,1,1.611,2.74c0.049,0.22.065,0.45,0.093,0.65A2.929,2.929,0,0,1,285.317,5900.64Zm-0.76-8.88a0.165,0.165,0,0,1,.095-0.07,0.947,0.947,0,0,1,.223.08,0.485,0.485,0,0,1-.2.12A0.519,0.519,0,0,1,284.557,5891.76Zm1,5.23c0-.02,0-0.04,0-0.07a0.485,0.485,0,0,1-.24-0.5,0.017,0.017,0,0,1-.017-0.01s0-.01,0-0.01a0.642,0.642,0,0,1-.579-0.46,0.284,0.284,0,0,1,.073-0.24,0.2,0.2,0,0,1,.21,0,0.724,0.724,0,0,1,.3.7h0.016c0,0.01,0,.01,0,0.02,0.291,0.07.25,0.3,0.24,0.5,0.013,0.01.022,0.02,0.036,0.03,0.021,0.03.039,0.07,0.064,0.1a0.135,0.135,0,0,0,.061.03Zm-0.5-6.12a0.37,0.37,0,0,1,.071-0.14,0.341,0.341,0,0,1,.211.04,0.785,0.785,0,0,1,.18.33,0.2,0.2,0,0,1-.355.12A1.512,1.512,0,0,1,285.052,5890.87Zm-2.462-4.29c-0.253-.06-0.276-0.19-0.1-0.39a7.172,7.172,0,0,1,.566-0.62,8.542,8.542,0,0,0,1.428-1.89q0.786-1.32,1.618-2.61c0.225-.34.508-0.65,0.77-0.98a3.075,3.075,0,0,0,.606-0.75c0.262-.71.68-0.96,1.1-0.78,2.669,0.33,4.66,1.24,5.96,3.36,0.262,0.43.27,0.52-.057,0.83q-3.2,3.03-6.395,6.04c-0.068.06-.136,0.13-0.206,0.19a0.438,0.438,0,0,1-.625,0A11.647,11.647,0,0,0,282.59,5886.58Zm3.542,7.72a1.383,1.383,0,0,1,.8-0.91,0.282,0.282,0,0,1,.239.06,0.534,0.534,0,0,1,.15.22,17.8,17.8,0,0,1,.845,3.6c-0.084.19-.134,0.31-0.184,0.42a0.94,0.94,0,0,1-.184-0.19c-0.224-.46-0.424-0.94-0.66-1.39-0.192-.38-0.425-0.73-0.636-1.09A1.6,1.6,0,0,1,286.132,5894.3Zm0.788,8.52c0.652-.59,1.329-1.15,2-1.72a0.34,0.34,0,0,1,.241-0.05,1.638,1.638,0,0,1,1.118,1.64,2.445,2.445,0,0,1-1.084,1.95,0.315,0.315,0,0,1-.472-0.09c-0.109-.3-0.2-0.62-0.307-0.92a2.131,2.131,0,0,0-.165-0.38,0.6,0.6,0,0,0-.851-0.1c-0.181.21-.328,0.45-0.5,0.66a0.114,0.114,0,0,1-.1.04,0.256,0.256,0,0,1-.071-0.12A0.89,0.89,0,0,1,286.92,5902.82Zm4.629,13.7a0.848,0.848,0,0,1-.364-0.05c-0.276-.17-0.528-0.38-0.792-0.57a3.235,3.235,0,0,0-.458-0.31,0.8,0.8,0,0,0-1.232.64,11.573,11.573,0,0,1-.652,2.41,0.244,0.244,0,0,1-.078.1,0.6,0.6,0,0,1-.219-0.16c-0.143-.29-0.262-0.59-0.393-0.89a1.241,1.241,0,0,1,.245-1.62,4.484,4.484,0,0,0,.668-0.89,0.654,0.654,0,0,0-.016-0.78,0.668,0.668,0,0,0-.757-0.21,1.62,1.62,0,0,0-.5.25c-0.108.07-.181,0.08-0.209-0.05a0.342,0.342,0,0,1,.054-0.26,7.509,7.509,0,0,1,.7-0.67,1.108,1.108,0,0,0,.718-1.08,1.025,1.025,0,0,0-1.048-.53,0.333,0.333,0,0,1-.136-0.55c0.325-.25.679-0.47,1.007-0.72a0.393,0.393,0,0,0-.147-0.67,1.769,1.769,0,0,1-.77-0.21,1.4,1.4,0,0,1,.146-1.04,2.747,2.747,0,0,1,.137-0.39,0.728,0.728,0,0,1,.7-0.58c0.231-.02.462-0.05,0.743-0.07a0.869,0.869,0,0,1,.309.17,2.269,2.269,0,0,1,.616,1.33,24.163,24.163,0,0,0,1.522,6.64c0.063,0.17.147,0.34,0.2,0.52A0.8,0.8,0,0,1,291.549,5916.52Zm-0.194-9.57a8.946,8.946,0,0,1,.62.93,13.61,13.61,0,0,0,2.608,3.27c0.306,0.29.6,0.58,0.894,0.89,0.144,0.15.423,0.29,0.267,0.53a1.1,1.1,0,0,1-.569.12c-0.237-.06-0.5-0.13-0.774-0.19a0.965,0.965,0,0,0-1.23.81c-0.059.27-.053,0.55-0.1,0.82a0.265,0.265,0,0,1-.2.15,0.271,0.271,0,0,1-.234-0.11,1.609,1.609,0,0,1-.245-0.49,24.467,24.467,0,0,1-.966-4.22,3.227,3.227,0,0,0-.379-1.04,1.987,1.987,0,0,1-.1-1.37,0.281,0.281,0,0,1,.174-0.18A0.264,0.264,0,0,1,291.355,5906.95Zm9.84-17.41a22.251,22.251,0,0,1-1.966,1.05,22.64,22.64,0,0,0-7.56,5.15c-0.193.2-.408,0.38-0.617,0.56a0.225,0.225,0,0,1-.343-0.09,0.771,0.771,0,0,1-.051-0.12,14.146,14.146,0,0,0-1.265-4.27,0.74,0.74,0,0,1,.148-0.99c1.319-1.24,2.605-2.53,3.936-3.76a84.721,84.721,0,0,0,6.193-6.25c0.214-.25.437-0.49,0.657-0.73,0.183-.19.32-0.18,0.406,0.05a4.171,4.171,0,0,1,.223.66c0.271,1.47.55,2.93,0.777,4.4a18.686,18.686,0,0,1,.111,1.89c0,0.44-.031.81,0.007,1.18A1.177,1.177,0,0,1,301.2,5889.54Z" transform="translate(-254 -5876)"/>
</svg>
