<svg xmlns="http://www.w3.org/2000/svg" width="14" height="14" viewBox="0 0 14 14">
  <defs>
    <style>
      .cls-1 {
        fill: #999;
        fill-rule: evenodd;
      }
    </style>
  </defs>
  <path id="compact" class="cls-1" d="M1030,517h0Zm-1,1h-12a1,1,0,0,1,0-2h12A1,1,0,0,1,1029,518Zm-13-1h0Zm13-3h-12a1,1,0,0,1,0-2h12A1,1,0,0,1,1029,514Zm-13-1h0Zm14,0h0Zm-1-3h-12a1,1,0,0,1,0-2h12A1,1,0,0,1,1029,510Zm-13-1h0Zm14,0h0Zm-1-3h-12a1,1,0,0,1,0-2h12A1,1,0,0,1,1029,506Zm-13-1h0Zm14,0h0Z" transform="translate(-1016 -504)"/>
</svg>
