<svg xmlns="http://www.w3.org/2000/svg" width="16" height="16" viewBox="0 0 16 16">
  <defs>
    <style>
      .cls-1 {
        fill: #212121;
        fill-rule: evenodd;
      }
    </style>
  </defs>
  <path id="edit" class="cls-1" d="M132.66,1275.56l-0.748.75-0.129-.13-0.106.1v0.67h-0.693l-0.023.03,0.142,0.14-8.16,8.16a1.158,1.158,0,0,1-1.619,0l-1.62-1.62a1.146,1.146,0,0,1,0-1.62l4.864-4.87-0.068-.06,4.669-4.54,0.252-.25a1.141,1.141,0,0,1,1.62,0l1.619,1.62A1.146,1.146,0,0,1,132.66,1275.56ZM116.985,1288l0.754-3.08,2.29,2.29Z" transform="translate(-117 -1272)"/>
</svg>
