<svg xmlns="http://www.w3.org/2000/svg" width="49.5" height="49.5" viewBox="0 0 49.5 49.5">
  <defs>
    <style>
      .cls-1 {
        fill: #bdbdbd;
        fill-rule: evenodd;
      }
    </style>
  </defs>
  <path class="cls-1" d="M305.055,1760.72h-0.128l-3.951,22.41-4.359.87-6.441-23.28H278.042l1.229-5.57,1.813-8.41a6.852,6.852,0,0,1,6.461-5.49h14.894a4.664,4.664,0,0,1,4.69,3.24l0.007,0.01,0.031,0.11a0.045,0.045,0,0,0,.006.02l3.187,11.62h9.03l1.235,4.5Zm-9.571-8.22h6.668l0.213-2.26h-6.434Zm1.207-6.76-0.446,2.26h6.667l0.334-2.26h-6.555Zm-14.3,33.58,2.234-11.07c3.019,0,4.728,2.71,4.178,5.82a6.892,6.892,0,0,1-5.681,5.43h10.5c-0.528,2.3-3.685,5.26-6.748,5.25-3.089,0-4.961-2.12-4.551-5l-2.2,11c-3.019,0-4.774-2.59-4.224-5.7a6.981,6.981,0,0,1,6.444-5.55h0.029l-0.7-.06-10.55.06c0.528-3.68,3.685-5.26,6.748-5.25A4.268,4.268,0,0,1,282.387,1779.32Z" transform="translate(-271.125 -1741.25)"/>
</svg>
