<svg xmlns="http://www.w3.org/2000/svg" width="50" height="50" viewBox="0 0 50 50">
  <defs>
    <style>
      .cls-1 {
        fill: #00ae6f;
        fill-rule: evenodd;
      }
    </style>
  </defs>
  <path id="моторные_яхты" data-name="моторные яхты" class="cls-1" d="M1300,591.765l-8.81-8.808a23.439,23.439,0,1,0-2.23,2.236l8.8,8.807ZM1252,567.5a21.5,21.5,0,1,1,21.5,21.5A21.521,21.521,0,0,1,1252,567.5Zm39,0.5v-1h-1l1-2h-11l-2-1-3.32.011L1273,563h-8l-1-1h3l1-1h-7v1h1v2h-1v1h5l-2,2h-5l-2,3h-1v1l2,1h27c1.54,0,2.34-.207,3.19-1.33,0.85-1.106,1.81-2.67,1.81-2.67h1Zm-20-1h-5l2-2s2.98,0.82,4,1A0.873,0.873,0,0,1,1271,567Zm4,0a6.928,6.928,0,0,0-2-1c-0.71-.131-0.75-1,0-1h3l3,2h-4Zm8,0-1-1h1v1Zm2,0h-1v-1h1v1Zm2,0h-1v-1h1v1Zm2,0h-1v-1h1v1Z" transform="translate(-1250 -544)"/>
</svg>
