<svg xmlns="http://www.w3.org/2000/svg" width="44" height="36" viewBox="0 0 44 36">
  <defs>
    <style>
      .cls-1 {
        fill: #00ae6f;
        fill-rule: evenodd;
      }
    </style>
  </defs>
  <path class="cls-1" d="M308,4348a6,6,0,0,0-6,6,1,1,0,0,0,2,0,4,4,0,0,1,4-4A1,1,0,0,0,308,4348Zm32.985,1.63L333.656,4332h-0.022A5.987,5.987,0,0,0,322,4334h-4a5.987,5.987,0,0,0-11.634-2h-0.022l-7.329,17.63A10,10,0,1,0,317.8,4356h4.4A10,10,0,1,0,340.985,4349.63ZM308,4362a8,8,0,1,1,8-8A8,8,0,0,1,308,4362Zm8-13.98a9.959,9.959,0,0,0-13.035-2.65l5.4-13.02h0a3.981,3.981,0,0,1,7.6,1.3H316Zm6,5.98h-4v-2h4v2Zm0-4h-4v-14h4v14Zm2-16.35h0.04a3.981,3.981,0,0,1,7.6-1.3h0l5.4,13.02A9.959,9.959,0,0,0,324,4348.02Zm8,28.35a8,8,0,1,1,8-8A8,8,0,0,1,332,4362Zm0-14a6,6,0,0,0-6,6,1,1,0,0,0,2,0,4,4,0,0,1,4-4A1,1,0,0,0,332,4348Z" transform="translate(-298 -4328)"/>
</svg>
