<svg xmlns="http://www.w3.org/2000/svg" width="37.5" height="42.75" viewBox="0 0 37.5 42.75">
  <defs>
    <style>
      .cls-1 {
        fill: #bdbdbd;
        fill-rule: evenodd;
      }
    </style>
  </defs>
  <path class="cls-1" d="M548.863,1495.18l-33.486.08-2-12.23a5.668,5.668,0,0,0,5.581,3.86,8.7,8.7,0,0,0,6.8-3.66l0.034-.2c0.011,0.03.03,0.06,0.043,0.1a0.873,0.873,0,0,1,.079-0.1,5.654,5.654,0,0,0,5.52,3.85,8.712,8.712,0,0,0,6.9-3.85c0.012,0.03.03,0.06,0.043,0.1a1,1,0,0,1,.079-0.1l-0.034.21a5.67,5.67,0,0,0,5.493,3.65,8.711,8.711,0,0,0,6.959-3.86Zm-15.331-36.6a8.172,8.172,0,0,0-7.706,6.59,5.31,5.31,0,0,0,5.38,6.47,8.143,8.143,0,0,0,6.7-3.92h6.368c-2.184,5.69-8.068,10.01-14.145,10.01-6.932,0-11.61-5.64-10.391-12.52,1.261-7.08,7.943-12.71,14.884-12.71a10.136,10.136,0,0,1,10.544,10.01h-6.355A5.242,5.242,0,0,0,533.532,1458.58Z" transform="translate(-513.375 -1452.5)"/>
</svg>
