<svg xmlns="http://www.w3.org/2000/svg" width="42" height="33.75" viewBox="0 0 42 33.75">
  <defs>
    <style>
      .cls-1 {
        fill: #bdbdbd;
        fill-rule: evenodd;
      }
    </style>
  </defs>
  <path class="cls-1" d="M788.058,1316.67l-1.587,8.81H747.94l-1.822-9.41a5.887,5.887,0,0,1,1.875-3.63,2.125,2.125,0,0,1,.19-0.19,32.849,32.849,0,0,1,20.574-7.75c7.852,0,14.388,3.28,18.531,8.6a1.142,1.142,0,0,1,.09.16A4.556,4.556,0,0,1,788.058,1316.67Zm-14.188-6.2h-3.754l-0.772,3.75h-3.73a4.917,4.917,0,0,0,4.909,6.01,7.638,7.638,0,0,0,7.119-6.05l-4.523.04Zm-4.845,27.78c-7.546,0-14.932-3.46-20.4-8.94h37.644C782.737,1334.79,776.575,1338.25,769.025,1338.25Z" transform="translate(-746.125 -1304.5)"/>
</svg>
