<svg xmlns="http://www.w3.org/2000/svg" width="36" height="43.5" viewBox="0 0 36 43.5">
  <defs>
    <style>
      .cls-1 {
        fill: #bdbdbd;
        fill-rule: evenodd;
      }
    </style>
  </defs>
  <path class="cls-1" d="M467.589,1626.43H431.883a22.638,22.638,0,0,1,16.872-17.58l1.213-7.1h7.361l-1.173,6.92C464.159,1610.21,469.175,1617.51,467.589,1626.43ZM439.157,1640a2.138,2.138,0,0,1,2.132,2.65,3.244,3.244,0,0,1-3.057,2.6,2.128,2.128,0,0,1-2.14-2.6A3.257,3.257,0,0,1,439.157,1640Zm5.279-7.5a2.138,2.138,0,0,1,2.132,2.65,3.243,3.243,0,0,1-3.057,2.6,2.128,2.128,0,0,1-2.14-2.6A3.257,3.257,0,0,1,444.436,1632.5Zm5.279,7.5a2.138,2.138,0,0,1,2.132,2.65,3.243,3.243,0,0,1-3.057,2.6,2.128,2.128,0,0,1-2.14-2.6A3.257,3.257,0,0,1,449.715,1640Zm5.28-7.5a2.137,2.137,0,0,1,2.131,2.65,3.243,3.243,0,0,1-3.057,2.6,2.128,2.128,0,0,1-2.14-2.6A3.257,3.257,0,0,1,455,1632.5Zm5.279,7.5a2.137,2.137,0,0,1,2.131,2.65,3.243,3.243,0,0,1-3.057,2.6,2.127,2.127,0,0,1-2.139-2.6A3.255,3.255,0,0,1,460.274,1640Z" transform="translate(-431.875 -1601.75)"/>
</svg>
