<svg xmlns="http://www.w3.org/2000/svg" width="41.25" height="44.25" viewBox="0 0 41.25 44.25">
  <defs>
    <style>
      .cls-1 {
        fill: #bdbdbd;
        fill-rule: evenodd;
      }
    </style>
  </defs>
  <path class="cls-1" d="M325.848,1329.74l0.013,0.01-0.025.14c0,0.01,0,.02,0,0.04s-0.008.02-.011,0.03l-2.978,16.54h-5.1l-2.369-15.3,0.031-.04a3.281,3.281,0,0,1,.028-0.93,4.71,4.71,0,0,1,3.724-3.61h0l3.327-.37,0.019,0.02c0.071,0,.141-0.02.213-0.02A3,3,0,0,1,325.848,1329.74Zm-5.734-4.99a2.434,2.434,0,0,1-2.441-2.98,3.721,3.721,0,0,1,3.5-3.02,2.439,2.439,0,0,1,2.432,3.02A3.7,3.7,0,0,1,320.114,1324.75Zm-4.767-5.55-0.04.23c0,0.02,0,.04,0,0.06s-0.012.04-.016,0.06l-4.68,26.95h-8.014l-3.721-24.94,0.048-.06a5.586,5.586,0,0,1,.043-1.52,7.526,7.526,0,0,1,5.853-5.87h0l5.228-.61,0.031,0.03c0.111,0,.221-0.03.333-0.03a4.82,4.82,0,0,1,4.917,5.68Zm-9.008-7.96a3.641,3.641,0,0,1-3.649-4.46,5.569,5.569,0,0,1,5.227-4.53,3.656,3.656,0,0,1,3.636,4.53A5.535,5.535,0,0,1,306.339,1311.24Zm-8.991,13.56-0.031.17c0,0.02,0,.04,0,0.05a0.347,0.347,0,0,1-.013.05l-3.616,21.43h-6.193l-2.875-19.83,0.037-.05a4.512,4.512,0,0,1,.033-1.2,5.906,5.906,0,0,1,4.523-4.68h0l4.04-.48,0.024,0.03a2.249,2.249,0,0,1,.257-0.03,3.8,3.8,0,0,1,3.8,4.52Zm-6.634-6.05a3.037,3.037,0,0,1-3.041-3.72,4.635,4.635,0,0,1,4.357-3.78,3.047,3.047,0,0,1,3.029,3.78A4.614,4.614,0,0,1,290.714,1318.75Z" transform="translate(-284.625 -1302.25)"/>
</svg>
