<svg xmlns="http://www.w3.org/2000/svg" width="55.5" height="23.25" viewBox="0 0 55.5 23.25">
  <defs>
    <style>
      .cls-1 {
        fill: #bdbdbd;
        fill-rule: evenodd;
      }
    </style>
  </defs>
  <path class="cls-1" d="M921.859,1483.5H872.131l-0.773-3.66,11.95-1.48,1.075-6.11H880.27l0.471-3h24.521l1.338,6.22,20.25-2.51A22.908,22.908,0,0,1,921.859,1483.5Zm-31.646-11.25a2.542,2.542,0,0,0-2.394,2.05,1.656,1.656,0,0,0,1.671,2.02,2.53,2.53,0,0,0,2.388-2.02A1.66,1.66,0,0,0,890.213,1472.25Zm6.886,0a2.562,2.562,0,0,0-2.411,2.07,1.663,1.663,0,0,0,1.683,2.03,2.542,2.542,0,0,0,2.4-2.03A1.675,1.675,0,0,0,897.1,1472.25ZM917.051,1488h-43.97l-0.475-2.25H919.76A26.385,26.385,0,0,1,917.051,1488Zm-13.305,4.5H874.032l-0.475-2.25h39.7A22.082,22.082,0,0,1,903.746,1492.5Z" transform="translate(-871.344 -1469.25)"/>
</svg>
