<svg xmlns="http://www.w3.org/2000/svg" width="45" height="41" viewBox="0 0 45 41">
  <defs>
    <style>
      .cls-1 {
        fill: #bdbdbd;
        fill-rule: evenodd;
      }
    </style>
  </defs>
  <path class="cls-1" d="M331,1600.02a10.578,10.578,0,0,1-9.956,8.51H321l-0.295,1.69h0a17.681,17.681,0,0,1-14.824,14l-0.827,4.8h-6.058l0.934-5.42c-5.178-1.87-8.143-7.17-7.057-13.38h0l0.292-1.68a7.063,7.063,0,0,1-7.03-8.56h8.276l0.521-2.98h28.075l-0.528,3.02H331Zm-31.492,2.48-0.462,2.61H302l-1.5,8.22h5.852l1.86-11.96Zm13.6,26.63,2.2,8.86H287.385l2.2-8.86H313.1Z" transform="translate(-286 -1597)"/>
</svg>
