<svg xmlns="http://www.w3.org/2000/svg" width="33.719" height="40.5" viewBox="0 0 33.719 40.5">
  <defs>
    <style>
      .cls-1 {
        fill: #bdbdbd;
        fill-rule: evenodd;
      }
    </style>
  </defs>
  <path class="cls-1" d="M558.588,1306.75H540.467a6.159,6.159,0,0,0-5.788,5.02L531.841,1327h0l-2.751,15.23a4.048,4.048,0,0,0,4.025,5.02h18.121a6.16,6.16,0,0,0,5.788-5.02l2.838-15.23h0l2.751-15.23A4.047,4.047,0,0,0,558.588,1306.75ZM534,1332.32l0.381-2.32H539.2l0.492,2.33Zm18.106-12.41a6,6,0,0,1-5.639,4.83,3.947,3.947,0,0,1-3.947-4.83,6.018,6.018,0,0,1,5.654-4.91A3.957,3.957,0,0,1,552.1,1319.91Z" transform="translate(-529 -1306.75)"/>
</svg>
