<svg xmlns="http://www.w3.org/2000/svg" width="48" height="13.5" viewBox="0 0 48 13.5">
  <defs>
    <style>
      .cls-1 {
        fill: #bdbdbd;
        fill-rule: evenodd;
      }
    </style>
  </defs>
  <path class="cls-1" d="M676.445,1473.75h-42.57l2.219,9.21,0.008,0.01a5.4,5.4,0,0,0,5.476,4.28h5.717a8.279,8.279,0,0,0,7.8-6.63l0.533-3.87h5.25l1.033,6.26h0.008a5.349,5.349,0,0,0,5.422,4.24h5.687a8.35,8.35,0,0,0,7.874-6.7l0.674-3.9,0.3-2.9h-5.43Zm-28.319,6.75h-1.7l-0.794,4.5h-3.039l0.794-4.5h1.7l0.793-4.5h3.04Zm24.936,0h-1.7l-0.793,4.5h-3.04l0.794-4.5h1.7l0.793-4.5h3.04Z" transform="translate(-633.875 -1473.75)"/>
</svg>
