<svg xmlns="http://www.w3.org/2000/svg" width="86" height="24" viewBox="0 0 86 24">
  <defs>
    <style>
      .cls-1 {
        fill: #fff;
        fill-rule: evenodd;
      }
    </style>
  </defs>
  <path id="itBoat" class="cls-1" d="M70.577,152.593H59.153V133.817h9.6c3.895,0,6.828,1.637,6.828,4.922a4.012,4.012,0,0,1-1.516,3.472,5.819,5.819,0,0,1,2.608,4.864C76.677,150.361,74.471,152.593,70.577,152.593Zm-2.731-15.239H64.782v3.67h3.246c1.346,0,2.272-.458,2.272-1.836C70.3,137.843,69.192,137.354,67.846,137.354Zm0.546,7.237h-3.61v4.466h3.974a2,2,0,0,0,2.091-2.232A2.268,2.268,0,0,0,68.392,144.591ZM86.659,153c-4.324,0-8.693-1.571-8.693-7.7,0-6.161,4.369-7.73,8.693-7.73,4.352,0,8.693,1.569,8.693,7.73C95.352,151.43,91.011,153,86.659,153Zm0-11.892c-1.8,0-2.864,1.439-2.864,4.193,0,2.723,1.06,4.163,2.864,4.163,1.833,0,2.864-1.44,2.864-4.163C89.522,142.548,88.492,141.109,86.659,141.109ZM111.377,153c-1.317,0-2.923-.408-3.524-1.19a11.445,11.445,0,0,1-5.715,1.19c-3.522,0-5.556-2-5.556-4.695,0-2.66,1.863-4.694,5.556-4.694h4.856v-0.406c0-1.252-.916-2.1-2.749-2.1a20.286,20.286,0,0,0-5.042.552l-0.91-3.138a31.985,31.985,0,0,1,5.952-.951c5.974,0,8.407,2.034,8.407,5.634v4.6c0,0.781.2,1.661,0.859,1.661a13.326,13.326,0,0,0,1.821-.2l0.7,3.324A30.12,30.12,0,0,1,111.377,153Zm-4.383-6.259h-3.035a1.571,1.571,0,1,0,0,3.129,4.821,4.821,0,0,0,3.035-.908v-2.221ZM124.071,153c-4.537,0-7.01-1-7.01-6.23v-5.224h-2.772v-3.568h2.772v-3.252l5.629-1.621v4.873h4.946l-0.728,3.568H122.69v4.826c0,2.241.888,3.092,2.291,3.092a20.068,20.068,0,0,0,2.291-.209L128,152.593A21.609,21.609,0,0,1,124.071,153ZM45.8,132.429a2.109,2.109,0,0,0,1.983-1.7A1.393,1.393,0,0,0,46.4,129a2.12,2.12,0,0,0-1.988,1.728A1.388,1.388,0,0,0,45.8,132.429Zm6.529,6.22,0.4-2.369h3.867l0.442-2.463H53.17l0.539-3.306-2.951.377-0.472,2.929H47.764l0.552,2.463h1.527l-0.694,4.044c-0.489,2.8,1.055,4.5,4.231,4.5a6.924,6.924,0,0,0,1.787-.3l0.48-2.492a4.83,4.83,0,0,1-1.5.3c-1.5,0-2.367-.523-2.108-2ZM42,133.817l0.552,2.463H43.7L42.281,144.5h2.883l1.867-10.68H42Z" transform="translate(-42 -129)"/>
</svg>
