<svg xmlns="http://www.w3.org/2000/svg" width="14" height="14" viewBox="0 0 14 14">
  <defs>
    <style>
      .cls-1 {
        fill: #1ea0e4;
        fill-rule: evenodd;
      }
    </style>
  </defs>
  <path id="map" class="cls-1" d="M499,347a0.988,0.988,0,0,1-.447-0.106h0L495,345.117l-3.552,1.776h0a1,1,0,0,1-.895,0h0l-3.983-1.992a0.038,0.038,0,0,1-.013-0.006l0,0h0A1,1,0,0,1,486,344V334a1,1,0,0,1,1.447-.895h0L491,334.882l3.552-1.777h0a1.006,1.006,0,0,1,.895,0h0l3.983,1.992,0.013,0.007h0A1,1,0,0,1,500,336v10A1,1,0,0,1,499,347Zm-9-10.381-2-1v7.763l2,1v-7.763Zm4-1-2,1v7.763l2-1v-7.763Zm2,0v7.763l2,1v-7.763Z" transform="translate(-486 -333)"/>
</svg>
