<svg xmlns="http://www.w3.org/2000/svg" width="8" height="11.97" viewBox="0 0 8 11.97">
  <defs>
    <style>
      .cls-1 {
        fill: #999;
        fill-rule: evenodd;
      }
    </style>
  </defs>
  <path id="Arrow" class="cls-1" d="M239.673,1002.77l-2.939,2.93a0.977,0.977,0,0,1-.274.15,1.26,1.26,0,0,1-.18.09,1.161,1.161,0,0,1-.184.04,1.006,1.006,0,0,1-.882-0.27l-2.92-2.92a1.033,1.033,0,0,1,0-1.46,1.02,1.02,0,0,1,1.46,0l1.215,1.21V995a1,1,0,0,1,2,0v7.53l1.234-1.23A1.039,1.039,0,0,1,239.673,1002.77Z" transform="translate(-232 -994)"/>
</svg>
