<svg xmlns="http://www.w3.org/2000/svg" width="49" height="44" viewBox="0 0 49 44">
  <defs>
    <style>
      .cls-1 {
        fill: #bdbdbd;
        fill-rule: evenodd;
      }
    </style>
  </defs>
  <path class="cls-1" d="M294.319,1826.97c0.664-3.73-1.4-6.99-5.04-6.99l-2.694,13.31a5.141,5.141,0,0,0-5.446-6.1c-3.694-.01-7.5,1.89-8.139,6.31l12.725-.08,0.841,0.08H286.53a8.394,8.394,0,0,0-7.773,6.67c-0.663,3.73,1.453,6.84,5.1,6.84l2.649-13.21c-0.494,3.46,1.764,6,5.49,6.01,3.695,0.01,7.5-3.55,8.14-6.31H287.466A8.308,8.308,0,0,0,294.319,1826.97Zm27.689,4.12-4.445-28.1H303.7l2.474,12.29a1.239,1.239,0,0,0,.019.4,7.58,7.58,0,0,1-.041,2.5,9.574,9.574,0,0,1-9.016,7.66l-0.914,5.25h25.788Zm-13.7,2.41,2.14,12.84c5.424-.47,10.444-4.83,11.4-10.09a9.948,9.948,0,0,0,.118-2.75H308.308Z" transform="translate(-273 -1803)"/>
</svg>
