<svg xmlns="http://www.w3.org/2000/svg" width="70" height="22" viewBox="0 0 70 22">
  <defs>
    <style>
      .cls-1 {
        fill: #1ea0e4;
        fill-rule: evenodd;
      }
    </style>
  </defs>
  <path id="Моторые_яхты" data-name="Моторые яхты" class="cls-1" d="M833.556,2730.99l2.344-3.1H815.054l-5.418-2.91h-5.355l-4.039-2.2-1.148.08-1.842-1.15-11.895.93-2.826-2.18,8.481-1.09v-0.38H777.7l3.555,4.66-1.243.6-1.393.1-1.082,1.35,9.3,1.62-2.878,3.75H773.405l-3.717,4.96H767v2l5.511,2.97h51.06a8.3,8.3,0,0,0,7-3.18c1.638-2.13,4.116-5.37,4.116-5.37H835.8l1.194-1.46h-3.434Zm-47.944-8.15,9.791,0.29-8.605.62Zm12.473,8.23H786.574l2.577-3.34s7.128,1.21,9.109,1.56A0.9,0.9,0,1,1,798.085,2731.07Zm10.586-1.56s-4.282-.71-7.3-1.27c-1.373-.25-1.463-1.76-0.01-1.76h3.5l5.625,3.03h-1.821Zm3.921-.04-5.56-2.99h2.561l5.526,2.99h-2.527Zm7.525,1.15-2.773-1.5h3.911Zm3.833,0.37h-2.619l1.423-1.87h2.605Zm4.1,0h-2.6l1.408-1.87h2.6Zm4.012,0h-2.519l1.408-1.87h2.523Z" transform="translate(-767 -2719)"/>
</svg>
