<svg xmlns="http://www.w3.org/2000/svg" width="58" height="22" viewBox="0 0 58 22">
  <defs>
    <style>
      .cls-1 {
        fill: #bdbdbd;
        fill-rule: evenodd;
      }
    </style>
  </defs>
  <path class="cls-1" d="M629.006,1780.59h3.442l0.49-1.94h-3.5Zm5.744,0h5.184l0.49-1.94H635.18Zm2.7-3.88h3.442l0.49-1.95h-3.5Zm31.839-9.66,0.01-.06-12.42.04-0.136.73a7.587,7.587,0,0,1-7.708,5.71h-4.85l-1.683,9.06H647a6.14,6.14,0,0,1,5.82,4.82,4.66,4.66,0,0,1,.012,1.66h33.789C688.792,1777.07,681.021,1767.53,669.286,1767.05Zm1.051,15.48a3.918,3.918,0,0,1-4.185-3.17,0.12,0.12,0,0,0-.236,0l-1.579,8.35a4.008,4.008,0,0,1-3.919-5,6.955,6.955,0,0,1,3.936-4.71h-8.016a5.326,5.326,0,0,1,5.332-4.53c2.3,0,4.167,1.25,4.511,3.12a0.089,0.089,0,0,0,.176-0.01l1.313-8.29a4.144,4.144,0,0,1,4.268,4.89,6,6,0,0,1-3.31,4.17l7.708-.04C675.864,1779.85,673.072,1782.54,670.337,1782.53Z" transform="translate(-629 -1767)"/>
</svg>
