<svg xmlns="http://www.w3.org/2000/svg" width="64" height="64" viewBox="0 0 64 64">
  <defs>
    <style>
      .cls-1 {
        fill: #00ae6f;
        fill-rule: evenodd;
      }
    </style>
  </defs>
  <path class="cls-1" d="M670.729,2316.73h-0.287a4.869,4.869,0,0,0-3.781-1.35,7.1,7.1,0,0,0-1.8.22,24.881,24.881,0,0,0-5.645-13.48,7.251,7.251,0,0,0,1.529-1.17,6.584,6.584,0,0,0,1.512-2.23,3.068,3.068,0,0,0,.224-1.41l0.143-.14a1.272,1.272,0,0,0-1.8-1.8l-0.152.15c-0.076,0-.143-0.02-0.225-0.02a5.257,5.257,0,0,0-3.4,1.75,6.8,6.8,0,0,0-1.18,1.54,24.79,24.79,0,0,0-13.512-5.58,7.1,7.1,0,0,0,.255-1.94,4.874,4.874,0,0,0-1.343-3.78v-0.22a1.272,1.272,0,0,0-2.543,0v0.22a4.878,4.878,0,0,0-1.343,3.78,7.059,7.059,0,0,0,.257,1.94,24.848,24.848,0,0,0-13.5,5.59,7,7,0,0,0-1.189-1.55,5.257,5.257,0,0,0-3.4-1.75c-0.083,0-.149.02-0.225,0.02l-0.153-.15a1.272,1.272,0,0,0-1.8,1.8l0.144,0.14a3.079,3.079,0,0,0,.223,1.41,6.584,6.584,0,0,0,1.512,2.23,7.058,7.058,0,0,0,1.549,1.18,24.89,24.89,0,0,0-5.638,13.5,6.869,6.869,0,0,0-1.892-.25,4.872,4.872,0,0,0-3.781,1.35H609.27a1.27,1.27,0,1,0,0,2.54h0.219a4.906,4.906,0,0,0,3.781,1.34,6.814,6.814,0,0,0,1.882-.24,24.836,24.836,0,0,0,5.562,13.52A7.486,7.486,0,0,0,619.3,2335a4.9,4.9,0,0,0-1.724,3.63l-0.2.2a1.275,1.275,0,0,0,0,1.8,1.277,1.277,0,0,0,1.8,0l0.2-.2c0.076,0,.143.02,0.225,0.02a5.257,5.257,0,0,0,3.4-1.75,7.225,7.225,0,0,0,1.108-1.4,24.879,24.879,0,0,0,13.48,5.62,7.271,7.271,0,0,0-.2,1.74,4.878,4.878,0,0,0,1.343,3.78v0.29a1.272,1.272,0,0,0,2.543,0v-0.29a4.874,4.874,0,0,0,1.343-3.78,7.222,7.222,0,0,0-.2-1.74,24.849,24.849,0,0,0,13.5-5.61,7.391,7.391,0,0,0,1.09,1.39,5.253,5.253,0,0,0,3.4,1.75c0.083,0,.15-0.02.225-0.02l0.2,0.2a1.277,1.277,0,0,0,1.8,0,1.275,1.275,0,0,0,0-1.8l-0.2-.2A4.906,4.906,0,0,0,660.7,2335a7.734,7.734,0,0,0-1.395-1.1,24.825,24.825,0,0,0,5.568-13.5,7.048,7.048,0,0,0,1.786.21,4.9,4.9,0,0,0,3.781-1.34h0.287A1.27,1.27,0,1,0,670.729,2316.73Zm-13.966,16.23-1.677-1.67a19.966,19.966,0,0,0,4.968-12.02h2.358A22.321,22.321,0,0,1,656.763,2332.96Zm-31.717,1.79,1.733-1.73a19.9,19.9,0,0,0,11.949,5.01v2.43A22.353,22.353,0,0,1,625.046,2334.75Zm-7.428-15.48h2.47a19.936,19.936,0,0,0,4.9,11.94l-1.737,1.74A22.351,22.351,0,0,1,617.618,2319.27Zm5.7-16.16,1.735,1.74a19.906,19.906,0,0,0-4.951,11.88h-2.47A22.339,22.339,0,0,1,623.314,2303.11Zm31.584-1.81-1.678,1.68a19.9,19.9,0,0,0-11.949-4.9v-2.41A22.35,22.35,0,0,1,654.9,2301.3Zm-14.883,21.18a4.42,4.42,0,1,1,4.42-4.42A4.423,4.423,0,0,1,640.015,2322.48Zm3.892-10.19a7.106,7.106,0,0,0-2.636-1.07v-10.59a17.383,17.383,0,0,1,10.148,4.15Zm-5.179-1.06a6.908,6.908,0,0,0-2.622,1.08l-7.459-7.46a17.379,17.379,0,0,1,10.081-4.21v10.59Zm-4.427,2.87a6.811,6.811,0,0,0-1.117,2.63H622.648a17.391,17.391,0,0,1,4.2-10.08Zm-1.138,5.17a7,7,0,0,0,1.081,2.69l-7.451,7.45a17.392,17.392,0,0,1-4.155-10.14h10.525Zm2.868,4.5a6.925,6.925,0,0,0,2.7,1.13v10.58a17.372,17.372,0,0,1-10.147-4.26Zm5.24,1.14a6.827,6.827,0,0,0,2.711-1.13l7.5,7.5a17.327,17.327,0,0,1-10.215,4.21v-10.58Zm4.5-2.94a6.829,6.829,0,0,0,1.093-2.7h10.639a17.388,17.388,0,0,1-4.221,10.21Zm1.073-5.24a6.91,6.91,0,0,0-1.13-2.65l7.511-7.51a17.394,17.394,0,0,1,4.268,10.16H646.846Zm-8.118-18.64a19.894,19.894,0,0,0-11.882,4.96l-1.73-1.73a22.333,22.333,0,0,1,13.612-5.65v2.42Zm2.543,39.95a19.916,19.916,0,0,0,12.016-4.96l1.682,1.68a22.329,22.329,0,0,1-13.7,5.7v-2.42Zm18.774-21.31a19.938,19.938,0,0,0-5.017-11.96l1.674-1.67a22.31,22.31,0,0,1,5.7,13.63h-2.357Z" transform="translate(-608 -2286)"/>
</svg>
