<svg xmlns="http://www.w3.org/2000/svg" width="9.97" height="30" viewBox="0 0 9.97 30">
  <defs>
    <style>
      .cls-1 {
        fill: #222;
        fill-rule: evenodd;
      }
    </style>
  </defs>
  <path id="arrow_right" data-name="arrow right" class="cls-1" d="M1575.98,560a1.016,1.016,0,0,1-.01.174,0.772,0.772,0,0,1-.09.251c-0.01.02-.01,0.043-0.02,0.062l-7.92,14.017a1.068,1.068,0,0,1-1.42.363,0.961,0.961,0,0,1-.38-1.354L1573.77,560l-7.63-13.513a0.962,0.962,0,0,1,.38-1.354,1.068,1.068,0,0,1,1.42.363l7.92,14.017c0.01,0.02.01,0.041,0.02,0.061a0.774,0.774,0,0,1,.09.253A1,1,0,0,1,1575.98,560Z" transform="translate(-1566 -545)"/>
</svg>
