<svg xmlns="http://www.w3.org/2000/svg" width="44" height="44" viewBox="0 0 44 44">
  <defs>
    <style>
      .cls-1 {
        fill: #00ae6f;
        fill-rule: evenodd;
      }
    </style>
  </defs>
  <path class="cls-1" d="M346,4957v-10a3,3,0,0,0-6,0v0.76l-28.991,8.52A2.03,2.03,0,0,0,310,4956h-2a2,2,0,0,0-2,2v10a2,2,0,0,0,2,2h2a2.024,2.024,0,0,0,1.008-.28l1.206,0.35,3.81,17.15,0.019-.01a0.984,0.984,0,0,0,.957.79h8a1,1,0,0,0,1-1,0.869,0.869,0,0,0-.043-0.21l0.019-.01-3.172-13.59,17.2,5.06V4979a3,3,0,0,0,6,0v-10a4,4,0,0,0,4-4v-4A4,4,0,0,0,346,4957Zm-36,11h-2v-10h2v10Zm13.74,18H317.8l-0.444-2h5.915Zm-0.933-4h-5.894l-2.507-11.28,6.193,1.82ZM340,4976.16l-28-8.24v-9.85l28-8.23v26.32Zm4,2.84a1,1,0,0,1-2,0v-32a1,1,0,0,1,2,0v32Zm4-14a2,2,0,0,1-2,2v-8a2,2,0,0,1,2,2v4Z" transform="translate(-306 -4944)"/>
</svg>
