<svg xmlns="http://www.w3.org/2000/svg" width="9.969" height="30" viewBox="0 0 9.969 30">
  <defs>
    <style>
      .cls-1 {
        fill: #222;
        fill-rule: evenodd;
      }
    </style>
  </defs>
  <path id="arrow_left" data-name="arrow left" class="cls-1" d="M25.226,560l7.635,13.513a0.966,0.966,0,0,1-.381,1.354,1.069,1.069,0,0,1-1.421-.363l-7.92-14.017c-0.012-.019-0.011-0.042-0.022-0.062a0.83,0.83,0,0,1-.1-0.425,0.9,0.9,0,0,1,.013-0.173,0.915,0.915,0,0,1,.09-0.253c0.01-.02.009-0.041,0.021-0.061l7.92-14.017a1.069,1.069,0,0,1,1.421-.363,0.966,0.966,0,0,1,.381,1.354Z" transform="translate(-23.031 -545)"/>
</svg>
