<svg xmlns="http://www.w3.org/2000/svg" width="34" height="40" viewBox="0 0 34 40">
  <defs>
    <style>
      .cls-1 {
        fill: #999;
        fill-rule: evenodd;
      }
    </style>
  </defs>
  <path id="Парусные_яхты" data-name="Парусные яхты" class="cls-1" d="M1059,2747.13a0.127,0.127,0,0,0-.16-0.08c0-.01-0.01-0.01-0.02-0.01l-16.84-.6c-0.38-.01-0.76-0.03-1.14-0.04l0.04-1.8c2.18-.09,16.99-0.7,16.94-0.73-7.8-19.03-9.29-24.17-9.29-24.17l-7.32,9.31,0.01-.47c2.89-4.39,4.98-7.21,7.4-12.62a42.122,42.122,0,0,1-7.35-6.33,0.053,0.053,0,0,1-.02-0.03c-0.18-.18-0.36-0.37-0.53-0.56v0.71a0.292,0.292,0,0,0-.02.09l-0.34,17.22h0.03l-2.59,3.21c0.75-9.69,2.46-14.65,2.46-14.65l-10.6,21.92a21.334,21.334,0,0,1,3.26-1.22l-7.72,9.58-0.05-.01v0.02c-0.15.02-.15,0.05-0.15,0.11l0.02,0.14,0.95,0.05c1.26,0.06,3.61.16,3.81,0.23,0.32,0.15.89,0.45,1.54,0.8a21.081,21.081,0,0,0,3.19,1.54c0.61,0.15,6.4.26,11.71,0.26,3.62,0,7.02-.05,8.38-0.18a38.184,38.184,0,0,0,4.32-1.51A0.15,0.15,0,0,0,1059,2747.13Zm-18.81-.75c-3.59-.13-7.08-0.25-9.79-0.35-1.58-.05-2.89-0.1-3.81-0.13-0.58-.02-0.94-0.03-1.18-0.03l-0.2-.01c0.21-.17,2.02-1.47,8.22-3.37l-1.67,3.59s4.62-.43,7.88-0.47a73.03,73.03,0,0,1,.9-18.4,1.163,1.163,0,0,0,.04-0.18h0.02Z" transform="translate(-1025 -2709)"/>
</svg>
