<svg xmlns="http://www.w3.org/2000/svg" width="52.812" height="67.81" viewBox="0 0 52.812 67.81">
  <defs>
    <style>
      .cls-1 {
        fill: #999;
        fill-rule: evenodd;
      }
    </style>
  </defs>
  <path class="cls-1" d="M303.867,1902.06a3.647,3.647,0,0,0,.306.27,22.7,22.7,0,0,0,15.866,6.41h0c0.23,0,.46-0.01.69-0.02h0.057a22.818,22.818,0,0,0,22.105-22.05h0a22.836,22.836,0,0,0-23.6-23.55h0a22.816,22.816,0,0,0-22.106,22.05v0.01a22.857,22.857,0,0,0,6.678,16.87S303.866,1902.06,303.867,1902.06Zm-0.956-7.2c-0.009.03-.023,0.06-0.032,0.09a19.069,19.069,0,0,1-2.194-7.95c0.1,0,.2.01,0.308,0.02,0.24,0.01.48,0.04,0.719,0.06,0.2,0.02.4,0.04,0.592,0.07l0.728,0.12c0.183,0.03.365,0.06,0.546,0.1,0.405,0.08.808,0.18,1.205,0.29,0.123,0.03.242,0.07,0.364,0.11,0.3,0.09.594,0.18,0.886,0.28a0.7,0.7,0,0,1,.134.05c-0.051.08-.092,0.15-0.142,0.23-0.295.47-.575,0.93-0.835,1.38-0.055.1-.115,0.2-0.17,0.29-0.295.53-.562,1.05-0.808,1.55-0.06.13-.114,0.25-0.17,0.37-0.194.41-.371,0.82-0.531,1.22-0.044.11-.091,0.22-0.132,0.33C303.2,1893.94,303.042,1894.41,302.911,1894.86Zm8.5-8.12c0.492-.63,1.011-1.25,1.545-1.86,0.161-.19.328-0.37,0.492-0.56,0.395-.44.8-0.88,1.217-1.31,0.105-.11.212-0.22,0.318-0.33l8.3,8.28-0.337.33c-0.432.41-.867,0.8-1.3,1.19l-0.57.51q-0.921.795-1.854,1.53a0.109,0.109,0,0,0-.011.01c-0.275-.46-0.571-0.9-0.876-1.34-0.083-.11-0.172-0.23-0.258-0.35-0.261-.35-0.533-0.7-0.815-1.04-0.1-.13-0.2-0.25-0.311-0.38-0.373-.43-0.758-0.86-1.164-1.26s-0.832-.79-1.266-1.16c-0.124-.11-0.251-0.21-0.375-0.31-0.342-.28-0.692-0.56-1.049-0.82-0.117-.08-0.233-0.17-0.353-0.25-0.436-.31-0.88-0.6-1.337-0.88h0Zm7.323-7.58c0.171-.14.34-0.29,0.512-0.44,0.551-.45,1.1-0.89,1.658-1.31,0,0,.007,0,0.011-0.01,0.272,0.45.563,0.88,0.865,1.31,0.083,0.12.173,0.23,0.258,0.35,0.255,0.34.519,0.68,0.793,1.01,0.1,0.13.206,0.25,0.312,0.38,0.367,0.42.743,0.84,1.14,1.23s0.816,0.78,1.241,1.14c0.12,0.11.244,0.21,0.366,0.31,0.336,0.27.68,0.54,1.032,0.8,0.113,0.08.223,0.17,0.338,0.25,0.427,0.3.863,0.59,1.312,0.86a0.061,0.061,0,0,1-.007.01c-0.42.56-.86,1.11-1.317,1.66-0.144.17-.3,0.34-0.443,0.51-0.321.38-.642,0.75-0.978,1.12-0.037.04-.078,0.09-0.115,0.13l-8.228-8.21,0.12-.12C317.981,1879.81,318.36,1879.48,318.737,1879.16Zm5.25-3.86q0.534-.33,1.054-0.63c0.143-.08.282-0.15,0.423-0.23,0.259-.14.517-0.28,0.769-0.41,0.157-.08.308-0.15,0.462-0.22,0.231-.11.461-0.22,0.684-0.32,0.155-.07.306-0.13,0.457-0.19,0.218-.09.43-0.18,0.64-0.25,0.143-.05.287-0.11,0.427-0.15,0.209-.07.412-0.13,0.613-0.19,0.128-.03.257-0.07,0.381-0.1,0.213-.05.416-0.09,0.618-0.13,0.1-.01.2-0.04,0.3-0.05a6.085,6.085,0,0,1,.826-0.06,2.134,2.134,0,0,1,1.53.45,1.293,1.293,0,0,1,.179.24c0.018,0.03.03,0.06,0.046,0.09,0.032,0.07.063,0.13,0.089,0.2,0.015,0.05.026,0.1,0.038,0.14a2.088,2.088,0,0,1,.053.22c0.009,0.05.015,0.11,0.023,0.17,0.009,0.08.017,0.16,0.021,0.25,0,0.06,0,.13,0,0.2s0,0.17-.006.27c0,0.07-.009.15-0.017,0.23s-0.02.19-.033,0.29c-0.012.08-.024,0.17-0.039,0.26s-0.039.21-.062,0.32c-0.02.09-.038,0.18-0.061,0.27-0.027.12-.06,0.24-0.093,0.36-0.025.1-.05,0.2-0.081,0.29-0.037.13-.082,0.27-0.127,0.4-0.032.1-.062,0.2-0.1,0.3-0.052.15-.112,0.3-0.171,0.45-0.037.1-.07,0.19-0.109,0.29-0.08.19-.167,0.39-0.258,0.6-0.027.06-.05,0.12-0.078,0.18q-0.181.39-.39,0.81c-0.046.09-.1,0.19-0.148,0.29-0.1.19-.2,0.38-0.3,0.57-0.062.12-.131,0.23-0.2,0.35-0.1.18-.2,0.36-0.315,0.55-0.075.12-.156,0.25-0.234,0.38s-0.157.26-.238,0.39a0.05,0.05,0,0,0-.03-0.02l-0.144-.09q-0.542-.33-1.059-0.69c-0.123-.09-0.242-0.18-0.362-0.27-0.279-.2-0.554-0.42-0.823-0.64-0.112-.09-0.224-0.18-0.334-0.27-0.363-.32-0.719-0.64-1.059-0.98s-0.662-.69-0.974-1.05c-0.095-.11-0.184-0.22-0.276-0.33-0.221-.27-0.437-0.55-0.643-0.83-0.087-.12-0.177-0.24-0.261-0.36q-0.363-.51-0.691-1.05c-0.032-.05-0.067-0.1-0.1-0.15-0.006-.01-0.01-0.02-0.017-0.03s0.013-.01.02-0.02A1.678,1.678,0,0,0,323.987,1875.3Zm10.238,7.55c0.158-.28.309-0.55,0.456-0.82,0.05-.1.105-0.19,0.155-0.29,0.19-.36.367-0.71,0.534-1.06l0.118-.26q0.181-.39.344-0.78c0.052-.12.1-0.25,0.147-0.37,0.088-.22.169-0.43,0.246-0.64,0.046-.13.088-0.26,0.131-0.38,0.07-.21.133-0.41,0.193-0.62,0.035-.12.071-0.23,0.1-0.35,0.062-.23.114-0.45,0.163-0.67,0.017-.08.04-0.17,0.056-0.25,0-.01.008-0.03,0.01-0.04a19,19,0,0,1,2.514,8.52c-0.111,0-.222-0.01-0.333-0.02-0.244-.01-0.488-0.04-0.731-0.06-0.2-.03-0.407-0.05-0.61-0.08-0.255-.03-0.51-0.08-0.762-0.13-0.181-.03-0.363-0.06-0.542-0.1q-0.621-.12-1.23-0.3c-0.142-.04-0.281-0.09-0.423-0.13-0.289-.09-0.577-0.18-0.861-0.28l-0.169-.06c0.087-.15.167-0.29,0.251-0.43S334.146,1882.98,334.225,1882.85Zm-18.4,14.07c-0.288.18-.577,0.36-0.861,0.53-0.171.1-.34,0.19-0.51,0.29-0.261.15-.52,0.29-0.776,0.43-0.173.09-.345,0.17-0.516,0.26-0.245.12-.488,0.24-0.727,0.35-0.167.08-.332,0.15-0.5,0.22-0.236.1-.464,0.19-0.691,0.28-0.155.06-.311,0.12-0.461,0.17-0.228.08-.447,0.15-0.664,0.21-0.136.04-.276,0.09-0.407,0.12-0.232.06-.45,0.1-0.667,0.14-0.1.02-.214,0.05-0.314,0.06a5.531,5.531,0,0,1-.88.07c-0.177,0-.343-0.01-0.5-0.02a0.837,0.837,0,0,0-.149-0.03c-0.092-.02-0.189-0.04-0.271-0.06a1.339,1.339,0,0,1-.211-0.09c-0.044-.02-0.094-0.03-0.133-0.05a1.155,1.155,0,0,1-.192-0.14,1.051,1.051,0,0,0-.128-0.13,0.931,0.931,0,0,1-.139-0.18c-0.018-.03-0.031-0.07-0.049-0.1a1.839,1.839,0,0,1-.092-0.22c-0.016-.04-0.026-0.09-0.04-0.14-0.019-.08-0.039-0.15-0.052-0.24-0.01-.05-0.015-0.12-0.022-0.18-0.007-.08-0.016-0.17-0.019-0.26,0-.07,0-0.14,0-0.21,0-.1,0-0.19.011-0.29,0-.08.013-0.16,0.022-0.24,0.012-.11.025-0.21,0.042-0.32,0.013-.09.03-0.18,0.046-0.27,0.022-.11.046-0.23,0.073-0.34s0.045-.2.071-0.3c0.032-.12.067-0.25,0.1-0.37s0.062-.21.1-0.32c0.042-.13.09-0.27,0.139-0.41,0.038-.11.075-0.22,0.118-0.33,0.056-.14.117-0.3,0.179-0.45,0.047-.11.089-0.22,0.138-0.33,0.072-.17.151-0.34,0.229-0.51,0.05-.11.1-0.21,0.148-0.32,0.1-.22.213-0.43,0.326-0.65,0.039-.08.073-0.15,0.113-0.23,0.158-.29.327-0.6,0.506-0.91,0.035-.06.076-0.13,0.113-0.19,0.146-.25.3-0.51,0.457-0.77,0.065-.1.137-0.21,0.2-0.31,0.117-.19.237-0.37,0.36-0.56a0.233,0.233,0,0,1,.069.04l0.253,0.15c0.337,0.21.668,0.42,0.993,0.65,0.128,0.08.255,0.18,0.381,0.27,0.287,0.21.567,0.43,0.842,0.65,0.113,0.09.227,0.18,0.339,0.28,0.373,0.32.738,0.65,1.088,1s0.676,0.71,1,1.08c0.1,0.11.194,0.23,0.291,0.35,0.22,0.27.434,0.54,0.64,0.82,0.1,0.13.191,0.26,0.282,0.39,0.224,0.33.436,0.65,0.64,0.99,0.052,0.08.108,0.17,0.159,0.25a0.548,0.548,0,0,0,.037.07,0.341,0.341,0,0,1-.078.05C316.138,1896.73,315.984,1896.82,315.828,1896.92Zm-4.491,6q0.444-.135.9-0.3c0.212-.08.426-0.16,0.644-0.25,0.316-.13.639-0.27,0.965-0.42,0.216-.09.431-0.19,0.652-0.3,0.349-.17.7-0.36,1.061-0.55,0.207-.11.411-0.21,0.62-0.33,0.418-.24.842-0.5,1.269-0.77,0.137-.08.269-0.15,0.407-0.24,0.016,0.04.032,0.08,0.047,0.12,0.116,0.34.221,0.67,0.318,1.01,0.024,0.07.051,0.15,0.072,0.23,0.115,0.41.214,0.83,0.3,1.26,0.025,0.12.044,0.24,0.068,0.37,0.055,0.3.108,0.6,0.149,0.91,0.022,0.15.039,0.31,0.057,0.47,0.031,0.28.057,0.56,0.076,0.84,0.007,0.09.011,0.17,0.016,0.26a19.21,19.21,0,0,1-7.967-2.19C311.105,1903.01,311.224,1902.96,311.337,1902.92Zm11.114,2.19c0-.09-0.019-0.19-0.026-0.28-0.029-.45-0.071-0.89-0.126-1.34-0.017-.13-0.028-0.26-0.048-0.4-0.08-.56-0.179-1.11-0.3-1.66-0.026-.12-0.058-0.24-0.085-0.35-0.105-.45-0.222-0.89-0.355-1.33-0.046-.16-0.093-0.32-0.143-0.47-0.158-.49-0.328-0.97-0.517-1.45-0.019-.04-0.032-0.09-0.05-0.13,0.118-.09.234-0.19,0.351-0.28l0.466-.36c0.4-.32.795-0.64,1.19-0.97l0.356-.3c0.5-.43,1-0.87,1.493-1.33,0.106-.09.21-0.19,0.315-0.29,0.262-.25.526-0.49,0.788-0.74l7.056,7.04A19.375,19.375,0,0,1,322.451,1905.11Zm12.77-7.16-7.035-7.02c0.05-.05.1-0.11,0.146-0.17,0.585-.64,1.152-1.29,1.693-1.94,0.039-.05.074-0.1,0.113-0.15,0.5-.6.968-1.21,1.422-1.82,0.055-.07.115-0.14,0.17-0.21a1.782,1.782,0,0,1,.21.07c0.453,0.18.911,0.35,1.376,0.5,0.135,0.04.27,0.09,0.406,0.13,0.542,0.17,1.091.32,1.646,0.44a2.08,2.08,0,0,0,.242.05q0.738,0.165,1.487.27l0.423,0.06c0.565,0.08,1.132.13,1.7,0.16,0.017,0,.034.01,0.049,0.01A19.187,19.187,0,0,1,335.221,1897.95Zm-5.834-28.78-0.275.06c-0.378.09-.761,0.2-1.157,0.32a0.034,0.034,0,0,1-.028.01c-0.392.13-.8,0.28-1.2,0.44l-0.3.12c-0.414.17-.836,0.36-1.266,0.56a1.036,1.036,0,0,1-.155.08c-0.394.2-.793,0.4-1.2,0.62-0.1.06-.2,0.11-0.305,0.17-0.4.22-.807,0.46-1.217,0.71-0.017-.05-0.039-0.1-0.056-0.15-0.118-.33-0.225-0.66-0.325-0.99-0.029-.09-0.062-0.19-0.089-0.28-0.121-.43-0.228-0.86-0.319-1.3-0.022-.11-0.039-0.22-0.06-0.33-0.063-.32-0.121-0.65-0.166-0.98-0.023-.16-0.039-0.31-0.058-0.47-0.033-.29-0.061-0.59-0.082-0.88l-0.015-.27a19.272,19.272,0,0,1,8.523,2.5A2.357,2.357,0,0,0,329.387,1869.17Zm-11.762-2.44c0,0.09.021,0.19,0.027,0.28,0.029,0.46.073,0.92,0.13,1.37,0.017,0.14.029,0.27,0.049,0.4,0.081,0.57.183,1.14,0.308,1.7,0.024,0.11.055,0.22,0.08,0.33,0.11,0.46.234,0.92,0.371,1.37,0.047,0.16.1,0.32,0.149,0.47,0.159,0.49.332,0.97,0.524,1.45,0.022,0.05.036,0.1,0.058,0.16-0.073.05-.145,0.11-0.217,0.16-0.6.45-1.2,0.92-1.8,1.4-0.058.05-.117,0.09-0.174,0.14q-0.978.81-1.943,1.68c-0.056.05-.115,0.1-0.172,0.15l-7.036-7.02A19.288,19.288,0,0,1,317.625,1866.73Zm-12.167,6.44,7.058,7.04c-0.1.11-.19,0.21-0.29,0.32-0.589.61-1.157,1.23-1.706,1.85-0.108.13-.222,0.25-0.329,0.37q-0.935,1.1-1.782,2.19c-0.056.08-.119,0.15-0.174,0.22l-0.151-.06q-0.708-.27-1.433-0.51c-0.156-.05-0.313-0.09-0.47-0.14-0.439-.13-0.885-0.25-1.332-0.35l-0.351-.09q-0.829-.18-1.669-0.3c-0.135-.02-0.272-0.03-0.408-0.04-0.443-.06-0.887-0.1-1.332-0.13l-0.283-.03A19.206,19.206,0,0,1,305.458,1873.17Zm35.6-9a1.82,1.82,0,0,0-2.324.08,1.8,1.8,0,0,0-.138,2.37,26.412,26.412,0,1,1-37.393,37.31,1.658,1.658,0,0,0-2.32.16,1.571,1.571,0,0,0-.14,2.3,29.857,29.857,0,0,0,21.3,8.91c0.169,0,.336,0,0.5-0.01A29.836,29.836,0,0,0,341.059,1864.17Zm-4.258,63.28H322.784v-8.49a1.742,1.742,0,0,0-3.484,0v8.49H305.285a1.735,1.735,0,1,0,0,3.47H336.8A1.735,1.735,0,1,0,336.8,1927.45Z" transform="translate(-297.188 -1863.13)"/>
</svg>
