<svg xmlns="http://www.w3.org/2000/svg" width="64" height="60" viewBox="0 0 64 60">
  <defs>
    <style>
      .cls-1 {
        fill: #00ae6f;
        fill-rule: evenodd;
      }
    </style>
  </defs>
  <path class="cls-1" d="M767.311,1006.6H712.678a4.7,4.7,0,0,0-4.682,4.7v32.81a4.7,4.7,0,0,0,4.682,4.7h54.633a4.7,4.7,0,0,0,4.681-4.7V1011.3A4.7,4.7,0,0,0,767.311,1006.6Zm1.941,4.7v25.44l-9.278,9.32h-8.752v-36.71h16.089A1.945,1.945,0,0,1,769.252,1011.3Zm-20.77,34.76H731.506v-36.71h16.976v36.71Zm-35.8-36.71h16.088v36.71h-8.824l-9.206-9.25V1011.3A1.945,1.945,0,0,1,712.678,1009.35Zm-1.942,34.76v-3.41l5.332,5.36h-3.39A1.951,1.951,0,0,1,710.736,1044.11Zm56.575,1.95h-3.462l5.4-5.43v3.48A1.951,1.951,0,0,1,767.311,1046.06Zm-51.264-12.89a1.364,1.364,0,0,0,1.934.11l4.713-4.24a1.376,1.376,0,0,0,.108-1.94l-1.9-2.14a1.359,1.359,0,0,0-1.934-.11l-4.714,4.23a1.39,1.39,0,0,0-.108,1.95Zm46.017-13.04a1.374,1.374,0,0,0,1.936-.06l1.953-2.1a1.387,1.387,0,0,0-.064-1.95l-4.618-4.33a1.365,1.365,0,0,0-.982-0.37,1.382,1.382,0,0,0-.955.43l-1.953,2.1a1.388,1.388,0,0,0,.065,1.95Zm-3.708,18.4a4.1,4.1,0,1,0-4.078-4.1A4.095,4.095,0,0,0,758.356,1038.53Zm0-5.44a1.345,1.345,0,1,1-1.338,1.34A1.34,1.34,0,0,1,758.356,1033.09Zm-36.541,17.4a2.75,2.75,0,1,0,2.739,2.75A2.746,2.746,0,0,0,721.815,1050.49Zm36.359,0a2.75,2.75,0,1,0,2.739,2.75A2.745,2.745,0,0,0,758.174,1050.49Zm-12.3-44.83a1.376,1.376,0,0,0,1.37-1.38v-3.02a1.374,1.374,0,0,0-1.37-1.378H734.05a1.374,1.374,0,0,0-1.37,1.378v3.02a1.37,1.37,0,1,0,2.74,0v-1.65h9.08v1.65A1.377,1.377,0,0,0,745.87,1005.66Zm-12.277-6.9h12.734a1.376,1.376,0,0,0,0-2.752H733.593A1.376,1.376,0,0,0,733.593,998.764Z" transform="translate(-708 -996)"/>
</svg>
