<svg xmlns="http://www.w3.org/2000/svg" width="57" height="65" viewBox="0 0 57 65">
  <defs>
    <style>
      .cls-1 {
        fill: #222;
        fill-rule: evenodd;
      }
    </style>
  </defs>
  <path class="cls-1" d="M967.579,684.006h-4.158a1.408,1.408,0,0,1-1.4-1.411V659.457H946.526a1.4,1.4,0,0,1-.851-0.289l-8.115-6.217a1.416,1.416,0,0,1-.037-2.216l8.116-6.657a1.4,1.4,0,0,1,.887-0.318h15.492v-4.2H938.411a1.408,1.408,0,0,1-1.4-1.412V625.275a1.408,1.408,0,0,1,1.4-1.411h23.607V620.4a1.408,1.408,0,0,1,1.4-1.411h4.158a1.408,1.408,0,0,1,1.4,1.411v3.464h15.491a1.4,1.4,0,0,1,.889.318l8.114,6.657a1.415,1.415,0,0,1-.036,2.216l-8.116,6.217a1.4,1.4,0,0,1-.851.289H968.983v4.2H992.59a1.409,1.409,0,0,1,1.4,1.412v12.874a1.408,1.408,0,0,1-1.4,1.411H968.983V682.6A1.408,1.408,0,0,1,967.579,684.006Zm-2.754-2.823h1.35V658.046a1.408,1.408,0,0,1,1.4-1.412h23.607V646.583H967.579a1.408,1.408,0,0,1-1.4-1.411v-7.023a1.408,1.408,0,0,1,1.4-1.411H984l6.322-4.844-6.349-5.207h-16.4a1.408,1.408,0,0,1-1.4-1.412v-3.463h-1.35v3.463a1.408,1.408,0,0,1-1.4,1.412H939.815v10.051h23.606a1.408,1.408,0,0,1,1.4,1.411v7.023a1.408,1.408,0,0,1-1.4,1.411h-16.4l-6.348,5.208L947,656.634h16.421a1.408,1.408,0,0,1,1.4,1.412v23.137Z" transform="translate(-937 -619)"/>
</svg>
