<svg xmlns="http://www.w3.org/2000/svg" width="62" height="64" viewBox="0 0 62 64">
  <defs>
    <style>
      .cls-1 {
        fill: #999;
        fill-rule: evenodd;
      }
    </style>
  </defs>
  <path class="cls-1" d="M435.939,1024.97a1.359,1.359,0,0,0-1.355-1.34l-58.889-.01a1.356,1.356,0,0,0-1.178.7,1.371,1.371,0,0,0,.013,1.37c0.415,0.71,10.29,17.31,20.934,17.31h35.11c2.065,0,4.483-.89,5.078-3.39C436.182,1037.38,435.965,1026.23,435.939,1024.97Zm-2.922,14c-0.277,1.17-1.8,1.29-2.443,1.29h-35.11c-7.087,0-14.353-9.57-17.272-13.9l55.062,0.01C433.328,1031.05,433.324,1037.68,433.017,1038.97Zm-57.639-17.25a1.355,1.355,0,0,0,.585-0.14c0.109-.05,11.078-5.32,19.43-5.32,9.288,0,18.73,5.18,18.824,5.23a1.319,1.319,0,0,0,1.343-.02,1.36,1.36,0,0,0,.665-1.18V980.382a1.363,1.363,0,0,0-1.355-1.371c-17.456,0-39.729,38.989-40.669,40.649a1.393,1.393,0,0,0,.184,1.62A1.37,1.37,0,0,0,375.378,1021.72Zm38.137-39.877v36.237c-3.418-1.61-10.695-4.56-18.122-4.56-5.809,0-12.531,2.24-16.679,3.89C384.491,1008.03,400.712,983.517,413.515,981.843Zm6.632,22.517c0,11.57-1.956,15.22-1.972,15.25a1.384,1.384,0,0,0,.169,1.62,1.347,1.347,0,0,0,1.581.31c0.046-.02,4.681-2.23,8.1-2.23a11.249,11.249,0,0,1,5.717,2.13,1.365,1.365,0,0,0,.813.28,1.288,1.288,0,0,0,.768-0.25,1.371,1.371,0,0,0,.535-1.5c-2.11-7.43-9.536-31.678-16.512-31.678a1.351,1.351,0,0,0-1.1.564,1.384,1.384,0,0,0-.194,1.228A62.819,62.819,0,0,1,420.147,1004.36Zm12.161,13.17a11.2,11.2,0,0,0-4.286-.96,20.643,20.643,0,0,0-6.431,1.34,57.856,57.856,0,0,0,1.266-13.55,67.255,67.255,0,0,0-1.425-11.93C424.65,996.161,429.037,1006.82,432.308,1017.53Zm-38.264,11.19a4.525,4.525,0,1,0,4.473,4.53A4.505,4.505,0,0,0,394.044,1028.72Zm0,6.31a1.785,1.785,0,1,1,1.763-1.78A1.774,1.774,0,0,1,394.044,1035.03Z" transform="translate(-374 -979)"/>
</svg>
