<svg xmlns="http://www.w3.org/2000/svg" width="64" height="60" viewBox="0 0 64 60">
  <defs>
    <style>
      .cls-1 {
        fill: #00ae6f;
        fill-rule: evenodd;
      }
    </style>
  </defs>
  <path class="cls-1" d="M1323.86,1449.92c-0.42-1.26-1.67-5.07-20.03-5.97-4.59-11.91-8.43-17.95-11.43-17.95h-0.78c-3,0-6.84,6.04-11.43,17.95-18.36.9-19.61,4.71-20.03,5.97-0.34,1.04-1.24,3.77,13.41,15.12-4.29,17.68-1.26,19.68-.26,20.34a4.322,4.322,0,0,0,2.42.62c4.01,0,10.94-3.4,16.28-6.42,5.35,3.02,12.27,6.42,16.28,6.42h0a4.322,4.322,0,0,0,2.42-.62c1-.66,4.03-2.66-0.26-20.34C1325.1,1453.69,1324.2,1450.96,1323.86,1449.92Zm-15.7,13.57a1.3,1.3,0,0,0-.47,1.35c3.27,13.18,2.45,17.77,1.56,18.36a1.834,1.834,0,0,1-.96.18c-2.76,0-8.46-2.35-15.62-6.45a1.366,1.366,0,0,0-1.32,0c-7.16,4.1-12.86,6.45-15.62,6.45a1.834,1.834,0,0,1-.96-0.18c-0.89-.59-1.71-5.18,1.56-18.36a1.3,1.3,0,0,0-.47-1.35c-10.86-8.34-13.2-12.08-13.19-12.75,0.52-1.6,5.69-3.66,18.51-4.21a1.3,1.3,0,0,0,1.17-.85c5.21-13.71,8.52-16.99,9.27-17.06h0.78c0.75,0.07,4.07,3.35,9.27,17.06a1.3,1.3,0,0,0,1.17.85c12.82,0.55,17.99,2.61,18.5,4.14C1321.36,1451.41,1319.02,1455.15,1308.16,1463.49Zm-16.15-21.78a3.805,3.805,0,1,0,3.82,3.81A3.818,3.818,0,0,0,1292.01,1441.71Zm0,4.98a1.175,1.175,0,1,1,0-2.35A1.175,1.175,0,1,1,1292.01,1446.69Zm0-7.33a2.38,2.38,0,1,0-2.39-2.38A2.388,2.388,0,0,0,1292.01,1439.36Zm0-2.63a0.245,0.245,0,1,1,0,.49,0.237,0.237,0,0,1-.24-0.24A0.239,0.239,0,0,1,1292.01,1436.73Zm-6.79,31.36a3.8,3.8,0,1,0,1.22,5.24A3.821,3.821,0,0,0,1285.22,1468.09Zm-1.02,3.85a1.221,1.221,0,0,1-1.63.38,1.177,1.177,0,0,1,.63-2.18,1.147,1.147,0,0,1,.62.18A1.163,1.163,0,0,1,1284.2,1471.94Zm-4.28,4.6a2.461,2.461,0,0,0-1.27-.36,2.377,2.377,0,0,0-1.26,4.4,2.426,2.426,0,0,0,1.26.36,2.386,2.386,0,0,0,2.03-1.12,2.312,2.312,0,0,0,.3-1.79A2.374,2.374,0,0,0,1279.92,1476.54Zm-1.06,2.15a0.28,0.28,0,0,1-.34.08,0.327,0.327,0,0,1-.11-0.15,0.308,0.308,0,0,1,.03-0.19,0.271,0.271,0,0,1,.21-0.11,0.277,0.277,0,0,1,.13.03A0.246,0.246,0,0,1,1278.86,1478.69Zm25.69-6.52a3.768,3.768,0,0,0-.48-2.87,3.813,3.813,0,1,0-1.22,5.24A3.782,3.782,0,0,0,1304.55,1472.17Zm-2.57-.59a1.177,1.177,0,0,1-.53.74,1.221,1.221,0,0,1-1.63-.38,1.163,1.163,0,0,1,.38-1.62,1.147,1.147,0,0,1,.62-0.18A1.175,1.175,0,0,1,1301.98,1471.58Zm3.39,4.6a2.461,2.461,0,0,0-1.27.36,2.38,2.38,0,0,0,1.27,4.4h0a2.426,2.426,0,0,0,1.26-.36A2.377,2.377,0,0,0,1305.37,1476.18Zm0.13,2.59a0.28,0.28,0,0,1-.34-0.08,0.246,0.246,0,0,1,.08-0.34,0.277,0.277,0,0,1,.13-0.03,0.271,0.271,0,0,1,.21.11,0.308,0.308,0,0,1,.03.19A0.327,0.327,0,0,1,1305.5,1478.77Zm-0.63-29.12a3.8,3.8,0,0,0,.43,7.58c0.15,0,.3-0.01.44-0.02A3.8,3.8,0,1,0,1304.87,1449.65Zm0.57,4.95a1.178,1.178,0,1,1-.27-2.34,0.66,0.66,0,0,1,.14-0.01A1.179,1.179,0,0,1,1305.44,1454.6Zm8.12-4.51a2.411,2.411,0,0,0-1.6.88,2.314,2.314,0,0,0-.5,1.75,2.381,2.381,0,0,0,2.37,2.11,2.715,2.715,0,0,0,.28-0.01,2.387,2.387,0,0,0,2.1-2.64A2.394,2.394,0,0,0,1313.56,1450.09Zm0.46,2.52a0.264,0.264,0,0,1-.19.09,0.248,0.248,0,0,1-.19-0.4,0.26,0.26,0,0,1,.16-0.09h0.03a0.249,0.249,0,0,1,.25.21A0.308,0.308,0,0,1,1314.02,1452.61Zm-35.3,4.62h0a3.809,3.809,0,0,0,3.79-3.37,3.751,3.751,0,0,0-.8-2.79,3.813,3.813,0,1,0-3.43,6.14C1278.43,1457.22,1278.57,1457.23,1278.72,1457.23Zm-1.18-3.94a1.179,1.179,0,0,1,1.17-1.04,0.66,0.66,0,0,1,.14.01,1.135,1.135,0,0,1,.79.44,1.116,1.116,0,0,1,.25.86,1.188,1.188,0,0,1-1.31,1.04A1.175,1.175,0,0,1,1277.54,1453.29Zm-7.08-3.2a2.389,2.389,0,0,0-2.65,2.09,2.4,2.4,0,0,0,2.11,2.64,2.437,2.437,0,0,0,.27.01h0A2.377,2.377,0,0,0,1270.46,1450.09Zm-0.3,2.61h0a0.264,0.264,0,0,1-.22-0.28,0.249,0.249,0,0,1,.25-0.21h0.03a0.26,0.26,0,0,1,.16.09,0.238,0.238,0,0,1,.05.18A0.256,0.256,0,0,1,1270.16,1452.7Z" transform="translate(-1260 -1426)"/>
</svg>
