<svg xmlns="http://www.w3.org/2000/svg" width="57" height="66" viewBox="0 0 57 66">
  <defs>
    <style>
      .cls-1 {
        fill: #999;
        fill-rule: evenodd;
      }
    </style>
  </defs>
  <path class="cls-1" d="M982.048,2304.32c-0.368,0-.737.01-1.105,0.04v-4.26a1.543,1.543,0,0,0-1.545-1.54H941.533a1.544,1.544,0,0,0-1.546,1.54V2332a11.043,11.043,0,0,0,11.05,11.01h18.857a10.978,10.978,0,0,0,10.845-8.94q0.654,0.06,1.309.06A14.905,14.905,0,1,0,982.048,2304.32Zm0,26.73a11.72,11.72,0,0,1-2.361-.24,1.542,1.542,0,0,0-1.851,1.46,7.9,7.9,0,0,1-7.942,7.66H951.037a7.955,7.955,0,0,1-7.959-7.93v-30.36h34.774v4.48a1.534,1.534,0,0,0,1.85,1.51,12.379,12.379,0,0,1,2.346-.23A11.825,11.825,0,1,1,982.048,2331.05Zm0.921-19.27a6.91,6.91,0,1,0,6.936,6.91A6.932,6.932,0,0,0,982.969,2311.78Zm0,10.74a3.83,3.83,0,1,1,3.846-3.83A3.843,3.843,0,0,1,982.969,2322.52Zm-22.149-28.6a1.541,1.541,0,1,0,1.858-2.46c-2.728-2.04-4.058-4.07-3.951-6.02,0.177-3.2,4.079-5.55,4.119-5.57a1.539,1.539,0,1,0-1.567-2.65c-0.218.12-5.357,3.18-5.635,8.03C955.468,2288.3,957.21,2291.22,960.82,2293.92Zm7.609,0a1.541,1.541,0,1,0,1.858-2.46c-1.144-.85-2.492-2.17-2.418-3.56,0.082-1.53,1.818-2.88,2.481-3.28a1.539,1.539,0,1,0-1.567-2.65c-0.156.09-3.8,2.26-4,5.75C964.657,2289.93,965.883,2292.01,968.429,2293.92Zm-17.725,0a1.542,1.542,0,1,0,1.859-2.46c-1.145-.85-2.493-2.17-2.419-3.56,0.083-1.53,1.818-2.88,2.482-3.28a1.54,1.54,0,0,0-1.568-2.65c-0.155.09-3.8,2.26-4,5.75C946.933,2289.93,948.159,2292.01,950.7,2293.92Z" transform="translate(-940 -2277)"/>
</svg>
