<svg xmlns="http://www.w3.org/2000/svg" width="64" height="41" viewBox="0 0 64 41">
  <defs>
    <style>
      .cls-1 {
        fill: #212121;
        fill-rule: evenodd;
      }
    </style>
  </defs>
  <path class="cls-1" d="M1309.7,1895h-61.39a1.306,1.306,0,0,0-1.31,1.3v38.4a1.306,1.306,0,0,0,1.31,1.3h61.39a1.306,1.306,0,0,0,1.31-1.3v-38.4A1.306,1.306,0,0,0,1309.7,1895Zm-1.32,38.41h-58.76V1897.6h58.76v35.81Zm-29.38-3.1a1.3,1.3,0,0,0,1.31-1.3v-27.69a1.31,1.31,0,0,0-2.62,0v27.69A1.306,1.306,0,0,0,1279,1930.31Zm-25.24-26.68h7.57a1.3,1.3,0,1,0,0-2.6h-7.57A1.3,1.3,0,1,0,1253.76,1903.63Zm0,5.2h12.07a1.3,1.3,0,1,0,0-2.6h-12.07A1.3,1.3,0,1,0,1253.76,1908.83Zm0,5.2h19.08a1.3,1.3,0,1,0,0-2.6h-19.08A1.3,1.3,0,1,0,1253.76,1914.03Zm0,5.19h19.08a1.3,1.3,0,1,0,0-2.59h-19.08A1.3,1.3,0,1,0,1253.76,1919.22Zm0,5.2h19.08a1.3,1.3,0,1,0,0-2.6h-19.08A1.3,1.3,0,1,0,1253.76,1924.42Zm19.17,2.6h-3.96a1.3,1.3,0,1,0,0,2.6h3.96A1.3,1.3,0,1,0,1272.93,1927.02Zm24.74-15.44h8.24a1.3,1.3,0,0,0,1.31-1.3v-9.65a1.306,1.306,0,0,0-1.31-1.3h-8.24a1.312,1.312,0,0,0-1.31,1.3v9.65A1.306,1.306,0,0,0,1297.67,1911.58Zm1.31-9.65h5.62v7.06h-5.62v-7.06Zm-12.69,3.18h0.16a4.188,4.188,0,0,0,2.97-1.32,1.958,1.958,0,0,1,1.6-.73,1.518,1.518,0,0,1,1.02.95,1.319,1.319,0,0,0,1.71.71,1.293,1.293,0,0,0,.72-1.69,4.092,4.092,0,0,0-2.93-2.52,4.315,4.315,0,0,0-3.97,1.44,1.483,1.483,0,0,1-1.15.56,2.423,2.423,0,0,1-1.5-.84,1.333,1.333,0,0,0-1.85-.16,1.3,1.3,0,0,0-.17,1.83A5.151,5.151,0,0,0,1286.29,1905.11Zm0.32,4.45a3.9,3.9,0,0,0,2.81-1.2,1.958,1.958,0,0,1,1.6-.73,1.518,1.518,0,0,1,1.02.95,1.31,1.31,0,0,0,1.71.71,1.293,1.293,0,0,0,.72-1.69,4.092,4.092,0,0,0-2.93-2.52,4.341,4.341,0,0,0-3.97,1.44c-1.09,1.08-2.48-.12-2.75-0.37a1.319,1.319,0,0,0-1.85.02,1.3,1.3,0,0,0,.03,1.84A5.445,5.445,0,0,0,1286.61,1909.56Z" transform="translate(-1247 -1895)"/>
</svg>
