<svg xmlns="http://www.w3.org/2000/svg" width="18" height="14" viewBox="0 0 18 14">
  <defs>
    <style>
      .cls-1 {
        fill: #fff;
        fill-rule: evenodd;
      }
    </style>
  </defs>
  <path class="cls-1" d="M871,7359.66a7.847,7.847,0,0,1-2.121.56,3.583,3.583,0,0,0,1.624-1.96,7.517,7.517,0,0,1-2.346.86,3.756,3.756,0,0,0-2.7-1.12,3.623,3.623,0,0,0-3.694,3.54,3.407,3.407,0,0,0,.1.8,10.65,10.65,0,0,1-7.612-3.69,3.4,3.4,0,0,0-.5,1.78,3.509,3.509,0,0,0,1.643,2.94,3.766,3.766,0,0,1-1.673-.45v0.05a3.572,3.572,0,0,0,2.962,3.46,3.891,3.891,0,0,1-.973.13,3.974,3.974,0,0,1-.695-0.07,3.679,3.679,0,0,0,3.45,2.46,7.607,7.607,0,0,1-4.586,1.51,8.561,8.561,0,0,1-.882-0.05,10.828,10.828,0,0,0,5.662,1.59,10.206,10.206,0,0,0,10.508-10.05c0-.16,0-0.31-0.011-0.46A7.335,7.335,0,0,0,871,7359.66Z" transform="translate(-853 -7358)"/>
</svg>
