<svg xmlns="http://www.w3.org/2000/svg" width="16" height="16" viewBox="0 0 16 16">
  <defs>
    <style>
      .cls-1 {
        fill: #fff;
        fill-rule: evenodd;
      }
    </style>
  </defs>
  <path class="cls-1" d="M862,6900H850a2,2,0,0,0-2,2v12a2,2,0,0,0,2,2h12a2,2,0,0,0,2-2v-12A2,2,0,0,0,862,6900Zm-6,6a2.1,2.1,0,0,1,2,2,2,2,0,0,1-4,0A2.1,2.1,0,0,1,856,6906Zm6,7a1,1,0,0,1-1,1H851a1,1,0,0,1-1-1v-5a1,1,0,0,1,1-1h1.142a3.907,3.907,0,0,0-.142,1,4,4,0,0,0,8,0,3.952,3.952,0,0,0-.142-1H861a1,1,0,0,1,1,1v5Zm0-9a1,1,0,0,1-1,1h-1a1,1,0,0,1-1-1v-1a1,1,0,0,1,1-1h1a1,1,0,0,1,1,1v1Z" transform="translate(-848 -6900)"/>
</svg>
