<svg xmlns="http://www.w3.org/2000/svg" width="20" height="13.16" viewBox="0 0 20 13.16">
  <defs>
    <style>
      .cls-1 {
        fill: #fff;
        fill-rule: evenodd;
      }
    </style>
  </defs>
  <path id="vk_-_international" data-name="vk - international" class="cls-1" d="M736.776,6918.98h1.194a0.913,0.913,0,0,0,.545-0.27,1.106,1.106,0,0,0,.164-0.6s-0.023-1.85.72-2.12,1.675,1.77,2.673,2.55a1.6,1.6,0,0,0,1.328.44l2.668,0.01a0.864,0.864,0,0,0,.734-1.38,10.189,10.189,0,0,0-1.984-2.62c-1.673-1.77-1.449-1.49.567-4.55,1.227-1.87,1.717-3.01,1.564-3.5a1.1,1.1,0,0,0-1.042-.39H742.9a0.681,0.681,0,0,0-.388.09,0.977,0.977,0,0,0-.265.4,20.8,20.8,0,0,1-1.11,2.7c-1.337,2.59-1.872,2.73-2.091,2.57-0.509-.38-0.381-1.51-0.381-2.31,0-2.52.334-3.57-.651-3.84a4.53,4.53,0,0,0-1.4-.16,5.881,5.881,0,0,0-2.493.29c-0.341.19-.605,0.62-0.444,0.65a1.274,1.274,0,0,1,.886.5,3.749,3.749,0,0,1,.3,1.56s0.177,2.96-.413,3.32c-0.405.26-.96-0.26-2.153-2.61a22.88,22.88,0,0,1-1.072-2.57,1.087,1.087,0,0,0-.248-0.38,1.153,1.153,0,0,0-.461-0.21h-2.855a0.863,0.863,0,0,0-.586.23,0.8,0.8,0,0,0-.011.58s2.234,6.02,4.765,9.03A6.46,6.46,0,0,0,736.776,6918.98Z" transform="translate(-727 -6906)"/>
</svg>
